<svg width="63" height="63" viewBox="0 0 63 63" fill="none" xmlns="http://www.w3.org/2000/svg">
<rect x="30.9688" y="3.125" width="21.3362" height="52.3707" rx="10.6681" transform="rotate(30 30.9688 3.125)" fill="#FFA500"/>
<path d="M42.5833 35.5924C41.6371 35.8958 40.6675 36.0601 39.7015 36.0924L39.6926 36.0946L39.6975 36.0926C35.888 36.2188 32.1349 34.294 30.096 30.7626L25.6301 23.0274C23.1782 18.7805 20.732 20.9176 19.8154 22.517L23.6947 15.7282C26.6042 10.8791 27.3587 9.71088 29.5349 8.45447C34.6374 5.50856 41.1619 7.2568 44.1078 12.3593L48.5737 20.0945C51.171 24.5931 50.1194 30.1972 46.3373 33.4795C45.6747 34.8655 45.8186 35.1206 46.741 35.1466C51.5816 33.2211 57.2293 35.0863 59.9111 39.7314C62.8571 44.8339 61.1088 51.3584 56.0063 54.3043C50.9039 57.2502 44.3794 55.502 41.4334 50.3995C38.766 45.7794 39.9472 39.9935 43.9821 36.7539C44.3065 36.0251 44.0287 35.5279 42.5833 35.5924Z" fill="#FFA500"/>
<path d="M38.1661 33.8633C34.1311 37.1029 32.95 42.8888 35.6174 47.5089C38.5634 52.6114 45.0879 54.3596 50.1903 51.4137C55.2928 48.4678 57.0411 41.9433 54.0951 36.8408M34.3913 5.56388C32.7113 4.59392 30.8771 4.13285 29.0673 4.13284C27.2495 4.1287 25.4064 4.58954 23.7189 5.56385C23.2066 5.85961 22.7731 6.15049 22.3717 6.48565C21.3707 7.28992 20.499 8.28977 19.8184 9.46867L4.30115 36.3453C1.35524 41.4478 3.10347 47.9723 8.20595 50.9182" stroke="#222222" stroke-width="2.90948" stroke-linecap="round" stroke-linejoin="round"/>
<path d="M23.1325 24.0461C26.5095 31.4001 38.0177 32.0721 39.9096 23.073M23.1325 24.0461L22.022 26.055M23.1325 24.0461C23.3209 23.7801 23.8117 23.1097 24.268 22.5554" stroke="#222222" stroke-width="2.90948" stroke-linecap="round" stroke-linejoin="round"/>
<ellipse cx="28.087" cy="16.7365" rx="0.969828" ry="1.93966" fill="#222222" stroke="#222222" stroke-width="1.93966"/>
<ellipse cx="34.8751" cy="16.7365" rx="0.969828" ry="1.93966" fill="#222222" stroke="#222222" stroke-width="1.93966"/>
</svg>
