<svg width="907" height="597" viewBox="0 0 907 597" fill="none" xmlns="http://www.w3.org/2000/svg">
<rect x="0.300781" y="0.0078125" width="906.65" height="596.305" rx="9.97537" fill="white"/>
<rect x="0.965806" y="0.672837" width="905.32" height="594.975" rx="9.31034" stroke="#969696" stroke-opacity="0.3" stroke-width="1.33005"/>
<rect x="453.96" y="247.727" width="38.9281" height="95.5507" rx="19.464" transform="rotate(30 453.96 247.727)" fill="#FFA500"/>
<path d="M475.151 306.968C473.425 307.522 471.656 307.821 469.894 307.88L469.877 307.884L469.886 307.881C462.936 308.111 456.088 304.599 452.368 298.156L444.22 284.043C439.747 276.295 435.284 280.194 433.611 283.112L440.689 270.726C445.998 261.878 447.374 259.747 451.345 257.455C460.654 252.08 472.558 255.27 477.933 264.579L486.081 278.692C490.82 286.9 488.901 297.124 482.001 303.113C480.792 305.642 481.054 306.107 482.737 306.155C491.569 302.642 501.873 306.045 506.766 314.52C512.141 323.829 508.951 335.733 499.642 341.108C490.332 346.483 478.428 343.293 473.054 333.984C468.187 325.554 470.342 314.998 477.704 309.087C478.296 307.757 477.789 306.85 475.151 306.968Z" fill="#FFA500"/>
<path d="M467.087 303.79C459.725 309.701 457.571 320.258 462.437 328.687C467.812 337.996 479.716 341.186 489.026 335.811C498.335 330.436 501.525 318.532 496.15 309.223M460.2 252.158C457.135 250.388 453.788 249.547 450.486 249.547C447.17 249.539 443.807 250.38 440.728 252.158C439.794 252.697 439.003 253.228 438.27 253.84C436.444 255.307 434.854 257.131 433.612 259.282L405.3 308.319C399.926 317.628 403.115 329.532 412.425 334.907" stroke="#222222" stroke-width="5.30837" stroke-linecap="round" stroke-linejoin="round"/>
<path d="M439.65 285.893C445.811 299.31 466.808 300.536 470.26 284.117M439.65 285.893L437.624 289.558M439.65 285.893C439.994 285.407 440.889 284.184 441.722 283.173" stroke="#222222" stroke-width="5.30837" stroke-linecap="round" stroke-linejoin="round"/>
<ellipse cx="448.689" cy="272.555" rx="1.76946" ry="3.53892" fill="#222222" stroke="#222222" stroke-width="3.53892"/>
<ellipse cx="461.076" cy="272.555" rx="1.76946" ry="3.53892" fill="#222222" stroke="#222222" stroke-width="3.53892"/>
</svg>
