<svg width="910" height="601" viewBox="0 0 910 601" fill="none" xmlns="http://www.w3.org/2000/svg">
<g clip-path="url(#clip0_55995_35231)">
<rect x="2" y="2.05469" width="905.764" height="597.192" rx="9.97537" fill="white"/>
<rect x="398.448" y="65.8984" width="112.872" height="23.6404" rx="11.8202" fill="#F3F4F6"/>
<path d="M423.171 72.7501V82.1435H422.059V77.3949H421.02V81.6656H419.94V72.9267H421.02V76.4493H422.059V72.7501H423.171ZM416.677 73.8307V78.7873C417.487 78.7717 418.376 78.7041 419.358 78.5067L419.472 79.5146C418.204 79.7432 417.134 79.8056 416.136 79.8056H415.513V73.8307H416.677ZM435.401 77.4468V78.3716H431.775V80.0965H430.632V78.3716H426.818V77.4468H435.401ZM434.3 73.1761V76.574H427.909V73.1761H434.3ZM429.032 74.0801V75.67H433.157V74.0801H429.032ZM434.456 81.0213V81.9565H427.858V79.2341H429.011V81.0213H434.456ZM439.495 75.0049C439.495 76.7506 440.327 78.4651 441.823 79.1198L441.127 80.0446C440.062 79.525 439.314 78.5275 438.914 77.3013C438.503 78.595 437.739 79.6705 436.659 80.2212L435.931 79.286C437.459 78.569 438.311 76.761 438.321 75.0049V73.5086H439.495V75.0049ZM443.901 72.7501V82.1539H442.758V76.7194H440.784V75.7843H442.758V72.7501H443.901ZM452.515 73.5606V77.9975H448.068V73.5606H452.515ZM449.201 74.4854V77.0831H451.383V74.4854H449.201ZM455.155 72.7501V75.5037H456.464V76.4701H455.155V79.6081H454.001V72.7501H455.155ZM455.529 81.0213V81.9565H449.138V78.9431H450.292V81.0213H455.529ZM465.515 76.5116V77.426H456.942V76.5116H465.515ZM464.496 74.9945V75.9089H458.033V72.9891H464.413V73.9139H459.186V74.9945H464.496ZM464.434 78.0703V80.429H459.093V81.146H464.694V82.05H457.96V79.5978H463.301V78.9431H457.95V78.0703H464.434ZM473.983 72.7501V82.1435H472.819V72.7501H473.983ZM471.178 73.7476C471.178 76.5428 470.097 78.9223 466.803 80.481L466.2 79.5562C468.658 78.3872 469.801 76.7974 470.003 74.662H466.678V73.7476H471.178Z" fill="#6B7280"/>
<path d="M493.863 77.7204L491.369 75.2266M493.863 77.7204L491.369 80.2142M493.863 77.7204H484.885" stroke="#6B7280" stroke-width="1.33005" stroke-linecap="round" stroke-linejoin="round"/>
<path d="M296.857 157.594V161.917H282.061V174.303H276.823V161.917H262.234V157.594H296.857ZM279.442 137.685C287.547 137.685 293.241 141.052 293.241 146.289C293.241 151.443 287.547 154.726 279.442 154.726C271.337 154.726 265.684 151.443 265.726 146.289C265.684 141.052 271.337 137.685 279.442 137.685ZM279.442 141.925C274.371 141.925 271.129 143.504 271.171 146.289C271.129 148.99 274.371 150.528 279.442 150.528C284.554 150.528 287.755 148.99 287.755 146.289C287.755 143.504 284.554 141.925 279.442 141.925ZM330.774 136.438V174.345H325.495V136.438H330.774ZM319.053 139.597V154.186H306.583V161.127C312.34 161.106 317.244 160.774 322.793 159.88L323.25 164.161C317.016 165.242 311.405 165.491 304.505 165.491H301.097V149.988H313.649V143.878H301.055V139.597H319.053ZM348.106 138.974C354.091 138.932 358.58 142.839 358.58 148.242C358.58 153.687 354.091 157.553 348.106 157.553C342.121 157.553 337.59 153.687 337.59 148.242C337.59 142.839 342.121 138.932 348.106 138.974ZM348.106 143.546C345.113 143.546 342.827 145.291 342.869 148.242C342.827 151.235 345.113 152.939 348.106 152.939C351.098 152.939 353.384 151.235 353.426 148.242C353.384 145.291 351.14 143.546 348.106 143.546ZM367.641 136.438V174.345H362.362V136.438H367.641ZM336.011 162.291C342.744 162.333 352.096 162.208 360.201 161.086L360.617 164.909C352.221 166.53 343.243 166.614 336.634 166.614L336.011 162.291ZM404.882 139.805V144.003H382.438V139.805H391.041V136.23H396.32V139.805H404.882ZM393.66 145.208C399.146 145.208 402.97 148.034 402.97 152.191C402.97 156.347 399.146 159.174 393.66 159.174C388.174 159.174 384.266 156.347 384.266 152.191C384.266 148.034 388.174 145.208 393.66 145.208ZM393.66 149.198C391.125 149.198 389.42 150.237 389.462 152.191C389.42 154.103 391.125 155.1 393.66 155.1C396.195 155.1 397.941 154.103 397.941 152.191C397.941 150.237 396.195 149.198 393.66 149.198ZM412.447 136.438V146.247H417.559V150.57H412.447V160.171H407.127V136.438H412.447ZM412.447 161.751V174.261H407.127V165.99H386.968V161.751H412.447ZM450.603 139.722V143.421C450.561 148.034 450.561 153.23 449.19 160.836L443.994 160.379C445.241 153.459 445.282 148.305 445.282 143.92H422.63V139.722H450.603ZM453.72 165.325V169.648H419.222V165.325H426.579V153.438H431.857V165.325H436.014V153.438H441.251V165.325H453.72ZM468.101 143.171C468.101 147.245 470.221 151.318 475.25 153.23L472.424 157.262C469.203 156.036 466.979 153.791 465.607 150.986C464.236 154.269 461.867 157.012 458.334 158.467L455.466 154.394C460.786 152.066 462.947 147.411 462.947 143.171V138.724H468.101V143.171ZM488.509 136.48V159.589H483.48V149.988H480.321V158.425H475.375V137.145H480.321V145.707H483.48V136.48H488.509ZM475.583 160.13C483.563 160.13 488.675 162.79 488.717 167.196C488.675 171.601 483.563 174.261 475.583 174.261C467.561 174.261 462.49 171.601 462.49 167.196C462.49 162.79 467.561 160.13 475.583 160.13ZM475.583 164.078C470.637 164.078 467.769 165.159 467.81 167.196C467.769 169.232 470.637 170.271 475.583 170.271C480.487 170.271 483.355 169.232 483.355 167.196C483.355 165.159 480.487 164.078 475.583 164.078ZM523.049 136.438V145.374H527.87V149.78H523.049V158.716H517.729V136.438H523.049ZM523.049 160.046V168.526H502.766V170.479H524.296V174.012H497.445V165.325H517.729V163.579H497.404V160.046H523.049ZM492.375 154.643C495.139 154.664 498.277 154.664 501.56 154.56V152.897C497.425 152.419 494.868 150.695 494.91 147.993C494.868 144.917 498.526 143.13 504.179 143.13C509.79 143.13 513.406 144.917 513.448 147.993C513.406 150.695 510.912 152.399 506.839 152.897V154.394C509.935 154.248 513.053 153.999 515.983 153.604L516.357 156.888C508.294 158.259 499.524 158.301 492.915 158.301L492.375 154.643ZM515.027 138.807V142.34H493.372V138.807H501.56V136.106H506.839V138.807H515.027ZM504.179 146.413C501.477 146.413 499.939 146.912 499.981 147.993C499.939 149.115 501.477 149.697 504.179 149.739C506.839 149.697 508.335 149.115 508.377 147.993C508.335 146.912 506.839 146.413 504.179 146.413ZM571.055 136.438V174.345H565.693V136.438H571.055ZM550.523 139.098C556.217 139.098 560.456 144.335 560.456 152.565C560.456 160.878 556.217 166.073 550.523 166.073C544.704 166.073 540.464 160.878 540.506 152.565C540.464 144.335 544.704 139.098 550.523 139.098ZM550.523 143.878C547.572 143.878 545.618 146.954 545.618 152.565C545.618 158.218 547.572 161.252 550.523 161.252C553.391 161.252 555.344 158.218 555.344 152.565C555.344 146.954 553.391 143.878 550.523 143.878ZM586.351 139.098C592.128 139.098 596.285 144.335 596.326 152.565C596.285 160.878 592.128 166.073 586.351 166.073C580.573 166.073 576.334 160.878 576.375 152.565C576.334 144.335 580.573 139.098 586.351 139.098ZM586.351 143.878C583.441 143.878 581.488 146.954 581.488 152.565C581.488 158.218 583.441 161.252 586.351 161.252C589.302 161.252 591.214 158.218 591.255 152.565C591.214 146.954 589.302 143.878 586.351 143.878ZM611.372 145.208V149.655H606.011V156.389H611.372V160.712H606.011V174.261H600.69V136.438H606.011V145.208H611.372ZM644.748 136.438V174.261H639.387V136.438H644.748ZM633.401 140.387C633.401 151.858 629.37 161.377 615.861 167.777L613.077 163.538C622.844 158.924 627.146 152.939 627.998 144.543H615.113V140.387H633.401Z" fill="#1F2937"/>
<path d="M378.364 187.438V225.261H373.335V206.267H369.678V223.433H364.815V188.062H369.678V202.027H373.335V187.438H378.364ZM360.824 191.802V196.083H352.054V212.21C355.712 212.19 358.954 212.002 362.612 211.337L362.986 215.66C358.372 216.533 354.34 216.658 349.353 216.699H346.734V191.802H360.824ZM401.807 191.013V216.034H383.643V191.013H401.807ZM388.88 195.169V211.836H396.528V195.169H388.88ZM412.281 187.438V201.695H417.85V206.1H412.281V225.261H406.96V187.438H412.281ZM431.566 189.018C437.344 188.976 441.542 192.26 441.542 197.039C441.542 201.778 437.344 205.103 431.566 205.061C425.789 205.103 421.591 201.778 421.633 197.039C421.591 192.26 425.789 188.976 431.566 189.018ZM431.566 193.257C428.74 193.257 426.745 194.629 426.745 197.039C426.745 199.409 428.74 200.78 431.566 200.739C434.476 200.78 436.512 199.409 436.512 197.039C436.512 194.629 434.476 193.257 431.566 193.257ZM451.101 187.48V225.261H445.864V187.48H451.101ZM419.305 207.389C425.997 207.389 435.515 207.223 443.578 206.017L443.911 209.924C440.794 210.548 437.593 210.943 434.434 211.171V224.139H429.156V211.504C425.831 211.649 422.692 211.67 419.97 211.712L419.305 207.389ZM476.663 191.054C476.622 202.692 473.421 212.584 459.123 219.609L456.339 215.535C462.594 212.46 466.501 208.927 468.766 204.646L457.295 205.685L456.629 201.196L470.47 200.365C470.928 198.785 471.218 197.081 471.385 195.294H458.583V191.054H476.663ZM487.803 187.438V225.261H482.441V187.438H487.803ZM525.584 187.438V225.261H520.513V187.438H525.584ZM517.687 187.978V223.516H512.699V205.643H509.665C509.166 213.083 506.008 217.572 501.352 217.572C496.365 217.572 493.123 212.335 493.123 203.814C493.123 195.335 496.365 190.14 501.352 190.14C505.904 190.14 509.021 194.379 509.624 201.445H512.699V187.978H517.687ZM501.352 195.127C499.233 195.127 497.986 198.037 498.027 203.814C497.986 209.633 499.233 212.501 501.352 212.46C503.514 212.501 504.802 209.633 504.802 203.814C504.802 198.037 503.514 195.127 501.352 195.127ZM543.872 196C543.872 203.108 546.74 210.007 553.058 212.751L549.816 216.99C545.618 214.933 542.813 211.171 541.254 206.516C539.591 211.462 536.682 215.515 532.359 217.655L529.034 213.333C535.518 210.423 538.469 203.108 538.511 196V190.348H543.872V196ZM561.496 187.438V225.345H556.258V203.607H548.819V199.325H556.258V187.438H561.496Z" fill="#84CC16"/>
<path d="M324.295 251.047V252.034H317.359V251.047H320.216V249.813H321.45V251.047H324.295ZM320.827 252.553C322.502 252.566 323.645 253.397 323.645 254.67C323.645 255.943 322.502 256.788 320.827 256.788C319.138 256.788 317.995 255.943 317.995 254.67C317.995 253.397 319.138 252.566 320.827 252.553ZM320.827 253.501C319.84 253.501 319.177 253.956 319.19 254.67C319.177 255.398 319.84 255.826 320.827 255.826C321.814 255.826 322.476 255.398 322.489 254.67C322.476 253.956 321.814 253.501 320.827 253.501ZM326.49 249.865V253.021H328.178V254.047H326.49V257.138H325.256V249.865H326.49ZM326.49 257.736V261.502H325.256V258.736H318.801V257.736H326.49ZM332.4 252.099C332.4 253.372 333.218 254.657 334.725 255.229L334.075 256.177C332.991 255.761 332.231 254.969 331.815 254.008C331.387 255.093 330.588 256.034 329.464 256.515L328.789 255.554C330.361 254.865 331.205 253.397 331.205 252.099V250.592H332.4V252.099ZM338.764 249.878V257.034H337.595V253.917H336.231V256.671H335.088V250.085H336.231V252.904H337.595V249.878H338.764ZM334.868 257.255C337.297 257.255 338.816 258.047 338.829 259.372C338.816 260.697 337.297 261.489 334.868 261.477C332.439 261.489 330.919 260.697 330.932 259.372C330.919 258.047 332.439 257.255 334.868 257.255ZM334.868 258.203C333.179 258.203 332.14 258.632 332.153 259.372C332.14 260.113 333.179 260.541 334.868 260.528C336.556 260.541 337.582 260.113 337.595 259.372C337.582 258.632 336.556 258.203 334.868 258.203ZM350.961 254.631V255.619H340.336V254.631H350.961ZM349.701 252.8V253.787H341.726V250.202H349.584V251.202H342.96V252.8H349.701ZM349.61 256.541V259.359H342.83V260.398H349.935V261.373H341.622V258.45H348.389V257.489H341.609V256.541H349.61ZM355.624 250.696C357.468 250.683 358.78 251.826 358.793 253.462C358.78 255.099 357.468 256.242 355.624 256.242C353.792 256.242 352.441 255.099 352.454 253.462C352.441 251.826 353.792 250.683 355.624 250.696ZM355.624 251.761C354.494 251.761 353.662 252.436 353.675 253.462C353.662 254.489 354.494 255.164 355.624 255.164C356.754 255.164 357.585 254.489 357.585 253.462C357.585 252.436 356.754 251.761 355.624 251.761ZM361.456 249.865V261.528H360.222V249.865H361.456ZM351.896 257.996C354.013 257.996 356.949 257.97 359.494 257.606L359.585 258.502C356.949 259.009 354.13 259.022 352.052 259.022L351.896 257.996ZM376.276 249.865V256.788H375.042V253.839H372.873V252.826H375.042V249.865H376.276ZM372.379 257.112C374.821 257.112 376.315 257.918 376.315 259.307C376.315 260.697 374.821 261.489 372.379 261.502C369.937 261.489 368.431 260.697 368.444 259.307C368.431 257.918 369.937 257.112 372.379 257.112ZM372.379 258.073C370.678 258.073 369.665 258.515 369.665 259.307C369.665 260.087 370.678 260.541 372.379 260.528C374.081 260.541 375.094 260.087 375.094 259.307C375.094 258.515 374.081 258.073 372.379 258.073ZM370.743 251.917C370.743 253.397 371.795 254.826 373.548 255.424L372.912 256.398C371.606 255.943 370.645 255.015 370.145 253.865C369.632 255.17 368.612 256.216 367.223 256.723L366.573 255.735C368.379 255.112 369.483 253.54 369.483 251.93V251.67H366.963V250.67H373.236V251.67H370.743V251.917ZM388.719 259.035V260.061H378.068V259.035H382.757V256.645H379.289V250.657H380.523V252.657H386.238V250.657H387.459V256.645H383.978V259.035H388.719ZM380.523 255.645H386.238V253.657H380.523V255.645ZM393.057 250.605C394.85 250.605 396.188 251.735 396.188 253.372C396.188 254.813 395.148 255.859 393.681 256.086V257.931C394.713 257.885 395.746 257.807 396.707 257.684L396.798 258.606C394.343 259.035 391.629 259.048 389.615 259.035L389.42 258.021C390.323 258.015 391.362 258.009 392.447 257.983V256.086C390.94 255.872 389.914 254.82 389.927 253.372C389.914 251.735 391.226 250.605 393.057 250.605ZM393.057 251.644C391.94 251.657 391.122 252.332 391.122 253.372C391.122 254.411 391.94 255.099 393.057 255.086C394.161 255.099 394.967 254.411 394.98 253.372C394.967 252.332 394.161 251.657 393.057 251.644ZM398.642 249.865V254.592H400.435V255.632H398.642V261.502H397.409V249.865H398.642ZM411.255 251.047V252.034H404.319V251.047H407.176V249.813H408.41V251.047H411.255ZM407.787 252.553C409.462 252.566 410.605 253.397 410.605 254.67C410.605 255.943 409.462 256.788 407.787 256.788C406.098 256.788 404.955 255.943 404.955 254.67C404.955 253.397 406.098 252.566 407.787 252.553ZM407.787 253.501C406.799 253.501 406.137 253.956 406.15 254.67C406.137 255.398 406.799 255.826 407.787 255.826C408.774 255.826 409.436 255.398 409.449 254.67C409.436 253.956 408.774 253.501 407.787 253.501ZM413.45 249.865V253.021H415.138V254.047H413.45V257.138H412.216V249.865H413.45ZM413.45 257.736V261.502H412.216V258.736H405.76V257.736H413.45ZM425.256 250.982V252.229C425.243 253.696 425.243 255.229 424.828 257.45L423.62 257.32C424.022 255.216 424.022 253.657 424.022 252.229V251.982H416.892V250.982H425.256ZM426.412 258.905V259.931H415.801V258.905H418.307V255.138H419.541V258.905H421.217V255.138H422.425V258.905H426.412ZM437.31 249.865V261.502H436.128V249.865H437.31ZM434.946 250.085V260.931H433.764V255.32H432.452C432.348 257.593 431.374 259.009 429.932 258.996C428.413 259.009 427.426 257.411 427.426 254.891C427.426 252.371 428.413 250.787 429.932 250.8C431.348 250.787 432.309 252.131 432.452 254.32H433.764V250.085H434.946ZM429.932 251.956C429.088 251.956 428.569 253.034 428.569 254.891C428.569 256.749 429.088 257.827 429.932 257.827C430.79 257.827 431.322 256.749 431.322 254.891C431.322 253.034 430.79 251.956 429.932 251.956ZM442.986 252.826C442.986 254.956 444.181 257.073 445.961 257.879L445.207 258.866C443.882 258.203 442.889 256.885 442.376 255.294C441.863 256.969 440.843 258.385 439.505 259.087L438.726 258.086C440.531 257.229 441.739 254.982 441.739 252.826V250.839H442.986V252.826ZM448.493 249.865V261.528H447.272V254.735H444.675V253.735H447.272V249.865H448.493ZM456.832 250.254C458.586 250.267 459.871 251.345 459.884 252.865C459.871 254.398 458.586 255.463 456.832 255.463C455.066 255.463 453.767 254.398 453.767 252.865C453.767 251.345 455.066 250.267 456.832 250.254ZM456.832 251.293C455.754 251.28 454.962 251.917 454.975 252.865C454.962 253.826 455.754 254.463 456.832 254.463C457.897 254.463 458.689 253.826 458.689 252.865C458.689 251.917 457.897 251.28 456.832 251.293ZM463.184 249.865V255.787H461.95V249.865H463.184ZM463.184 256.32V259.255H456.767V260.372H463.573V261.36H455.572V258.333H461.963V257.307H455.533V256.32H463.184ZM468.184 250.735C469.762 250.735 470.918 252.073 471.107 254.229H473.51V249.865H474.731V261.528H473.51V255.229H471.12C470.983 257.495 469.801 258.905 468.184 258.905C466.444 258.905 465.223 257.32 465.236 254.813C465.223 252.319 466.444 250.735 468.184 250.735ZM468.184 251.839C467.132 251.839 466.405 252.982 466.405 254.813C466.405 256.658 467.132 257.801 468.184 257.801C469.236 257.801 469.964 256.658 469.964 254.813C469.964 252.982 469.236 251.839 468.184 251.839ZM478.29 250.696V255.177C479.868 255.177 481.53 255.073 483.329 254.696L483.472 255.709C481.524 256.112 479.731 256.216 478.004 256.216H477.056V250.696H478.29ZM485.667 249.878V253.268H487.356V254.32H485.667V258.268H484.433V249.878H485.667ZM486.07 260.256V261.256H478.316V257.45H479.562V260.256H486.07ZM495.305 252.826C495.292 254.891 496.487 256.995 498.227 257.84L497.461 258.827C496.195 258.171 495.214 256.865 494.707 255.307C494.181 256.969 493.162 258.359 491.837 259.048L491.07 258.047C492.863 257.19 494.071 254.956 494.071 252.826V250.839H495.305V252.826ZM500.331 249.865V254.502H502.202V255.554H500.331V261.502H499.098V249.865H500.331ZM512.463 249.878V258.45H511.229V254.411H508.813V253.385H511.229V249.878H512.463ZM508.891 250.748C508.878 253.787 506.787 256.073 503.449 257.151L502.929 256.164C505.52 255.326 507.28 253.742 507.54 251.774H503.527V250.748H508.891ZM512.762 260.256V261.256H504.968V257.567H506.215V260.256H512.762ZM519.555 250.059C522.179 250.059 523.711 250.761 523.711 252.06C523.711 253.359 522.179 254.073 519.555 254.073C516.931 254.073 515.398 253.359 515.398 252.06C515.398 250.761 516.931 250.059 519.555 250.059ZM519.555 250.969C517.697 250.969 516.671 251.371 516.684 252.06C516.671 252.774 517.697 253.151 519.555 253.151C521.412 253.151 522.438 252.774 522.438 252.06C522.438 251.371 521.412 250.969 519.555 250.969ZM524.867 254.787V255.774H514.255V254.787H524.867ZM523.529 256.671V259.398H516.749V260.437H523.854V261.386H515.541V258.502H522.308V257.593H515.528V256.671H523.529ZM538.674 249.865V261.502H537.427V249.865H538.674ZM535.206 251.111C535.206 254.515 533.752 257.476 529.764 259.385L529.115 258.385C532.212 256.911 533.719 254.813 533.959 252.099H529.673V251.111H535.206ZM551.131 256.216V257.216H540.48V256.216H545.195V255.112H541.844V252.151H548.559V251.111H541.818V250.137H549.793V253.06H543.064V254.151H550.026V255.112H546.416V256.216H551.131ZM549.858 258.034V261.412H548.611V259.022H541.675V258.034H549.858ZM561.054 249.865V254.579H562.924V255.606H561.054V261.502H559.833V249.865H561.054ZM558.82 251.683V252.696H551.923V251.683H554.793V250.02H556.027V251.683H558.82ZM555.417 253.553C557.079 253.553 558.3 254.67 558.313 256.255C558.3 257.853 557.079 258.957 555.417 258.97C553.741 258.957 552.52 257.853 552.52 256.255C552.52 254.67 553.741 253.553 555.417 253.553ZM555.417 254.566C554.43 254.566 553.689 255.255 553.702 256.255C553.689 257.268 554.43 257.944 555.417 257.931C556.404 257.944 557.131 257.268 557.131 256.255C557.131 255.255 556.404 254.566 555.417 254.566ZM572.9 253.268V254.255H564.886V250.28H566.107V253.268H572.9ZM574.121 255.722V256.71H563.47V255.722H574.121ZM572.978 260.217V261.23H564.795V257.814H566.029V260.217H572.978ZM587.499 250.423V251.267C587.499 252.151 587.499 253.164 587.213 254.515L585.992 254.385C586.265 253.125 586.278 252.222 586.278 251.397H579.472V250.423H587.499ZM588.824 255.255V256.242H578.238V255.255H582.485V252.969H583.693V255.255H588.824ZM584.109 257.567C584.096 258.996 585.746 260.178 588.032 260.489L587.564 261.451C585.72 261.171 584.2 260.359 583.486 259.165C582.765 260.359 581.238 261.171 579.407 261.451L578.965 260.489C581.212 260.178 582.849 258.996 582.862 257.567V257.099H584.109V257.567ZM591.811 259.502L590.772 263.087H589.668L590.357 259.502H591.811ZM304.37 265.865V277.502H303.188V271.489H301.681V276.905H300.551V266.098H301.681V270.476H303.188V265.865H304.37ZM299.136 267.267V268.267H296.005V273.658C297.434 273.645 298.512 273.58 299.759 273.346L299.85 274.359C298.447 274.645 297.252 274.697 295.551 274.71H294.771V267.267H299.136ZM311.761 267.021V274.58H306.318V267.021H311.761ZM307.526 267.995V273.58H310.54V267.995H307.526ZM314.943 265.865V270.424H316.813V271.463H314.943V277.502H313.709V265.865H314.943ZM321.19 266.397C322.944 266.397 324.217 267.371 324.217 268.813C324.217 270.242 322.944 271.229 321.19 271.216C319.437 271.229 318.19 270.242 318.19 268.813C318.19 267.371 319.437 266.397 321.19 266.397ZM321.19 267.397C320.138 267.397 319.372 267.956 319.385 268.813C319.372 269.657 320.138 270.216 321.19 270.203C322.269 270.216 323.035 269.657 323.035 268.813C323.035 267.956 322.269 267.397 321.19 267.397ZM327.048 265.878V277.502H325.827V265.878H327.048ZM317.359 272.125C319.502 272.125 322.476 272.073 325.022 271.697L325.113 272.619C324.054 272.82 322.95 272.943 321.879 273.021V277.139H320.645V273.086C319.515 273.138 318.45 273.145 317.528 273.151L317.359 272.125ZM335.14 267.047C335.14 270.476 333.997 273.567 329.724 275.645L329.062 274.684C331.146 273.671 332.445 272.417 333.179 270.93L329.295 271.294L329.127 270.216L333.569 269.93C333.751 269.339 333.867 268.709 333.919 268.047H329.711V267.047H335.14ZM338.543 265.865V277.502H337.297V265.865H338.543ZM350.376 265.865V277.502H349.194V265.865H350.376ZM348.012 266.085V276.931H346.83V271.32H345.518C345.415 273.593 344.44 275.009 342.999 274.996C341.479 275.009 340.492 273.411 340.492 270.891C340.492 268.371 341.479 266.787 342.999 266.8C344.414 266.787 345.376 268.131 345.518 270.32H346.83V266.085H348.012ZM342.999 267.956C342.154 267.956 341.635 269.034 341.635 270.891C341.635 272.749 342.154 273.827 342.999 273.827C343.856 273.827 344.388 272.749 344.388 270.891C344.388 269.034 343.856 267.956 342.999 267.956ZM356.052 268.826C356.052 270.956 357.247 273.073 359.027 273.879L358.273 274.866C356.949 274.203 355.955 272.885 355.442 271.294C354.929 272.969 353.909 274.385 352.571 275.087L351.792 274.086C353.597 273.229 354.805 270.982 354.805 268.826V266.839H356.052V268.826ZM361.56 265.865V277.528H360.339V270.735H357.741V269.735H360.339V265.865H361.56ZM375.743 265.865V268.878H377.432V269.93H375.743V272.878H374.509V265.865H375.743ZM375.743 273.489V277.36H368.314V273.489H375.743ZM369.522 274.463V276.359H374.522V274.463H369.522ZM373.548 267.047V268.034H366.612V267.047H369.47V265.774H370.704V267.047H373.548ZM370.08 268.54C371.756 268.54 372.899 269.372 372.899 270.618C372.899 271.878 371.756 272.697 370.08 272.71C368.379 272.697 367.249 271.878 367.249 270.618C367.249 269.372 368.379 268.54 370.08 268.54ZM370.08 269.488C369.093 269.475 368.431 269.917 368.444 270.618C368.431 271.346 369.093 271.774 370.08 271.774C371.067 271.774 371.73 271.346 371.743 270.618C371.73 269.917 371.067 269.475 370.08 269.488ZM380.978 267.241C380.965 269.852 380.64 272.541 379.016 274.827L378.055 274.281C379.413 272.463 379.822 270.45 379.913 268.254H378.328V267.241H380.978ZM383.563 267.241C383.563 268.222 383.543 269.294 383.42 270.372H384.783V266.163H385.952V276.931H384.783V271.372H383.277C383.01 272.82 382.523 274.255 381.627 275.528L380.666 274.97C382.173 272.95 382.445 270.502 382.497 268.254H381.328V267.241H383.563ZM388.161 265.865V277.502H386.979V265.865H388.161ZM402.539 265.865V272.788H401.305V269.839H399.136V268.826H401.305V265.865H402.539ZM398.642 273.112C401.084 273.112 402.578 273.918 402.578 275.307C402.578 276.697 401.084 277.489 398.642 277.502C396.201 277.489 394.694 276.697 394.707 275.307C394.694 273.918 396.201 273.112 398.642 273.112ZM398.642 274.073C396.941 274.073 395.928 274.515 395.928 275.307C395.928 276.087 396.941 276.541 398.642 276.528C400.344 276.541 401.357 276.087 401.357 275.307C401.357 274.515 400.344 274.073 398.642 274.073ZM397.006 267.917C397.006 269.397 398.058 270.826 399.811 271.424L399.175 272.398C397.87 271.943 396.908 271.015 396.408 269.865C395.895 271.17 394.876 272.216 393.486 272.723L392.836 271.735C394.642 271.112 395.746 269.54 395.746 267.93V267.67H393.226V266.67H399.5V267.67H397.006V267.917ZM414.982 275.035V276.061H404.332V275.035H409.02V272.645H405.552V266.657H406.786V268.657H412.501V266.657H413.722V272.645H410.241V275.035H414.982ZM406.786 271.645H412.501V269.657H406.786V271.645ZM426.464 271.203V272.151H415.814V271.203H426.464ZM425.153 272.969V275.528H418.32V276.489H425.516V277.36H417.086V274.71H423.932V273.853H417.074V272.969H425.153ZM425.127 266.163V268.683H418.398V269.566H425.321V270.437H417.177V267.865H423.893V267.034H417.151V266.163H425.127ZM435.816 273.177C438.336 273.177 439.921 273.97 439.934 275.333C439.921 276.684 438.336 277.489 435.816 277.477C433.322 277.489 431.725 276.684 431.725 275.333C431.725 273.97 433.322 273.177 435.816 273.177ZM435.816 274.112C434.05 274.112 432.946 274.567 432.959 275.333C432.946 276.087 434.05 276.528 435.816 276.528C437.596 276.528 438.7 276.087 438.713 275.333C438.7 274.567 437.596 274.112 435.816 274.112ZM439.843 266.436V267.41C439.843 268.345 439.843 269.307 439.518 270.502L438.31 270.372C438.622 269.183 438.622 268.326 438.622 267.423H431.816V266.436H439.843ZM441.168 271.216V272.216H430.582V271.216H434.829V269.034H436.037V271.216H441.168ZM452.702 272.437V273.45H450V277.502H448.753V273.45H445.974V277.502H444.701V273.45H442.051V272.437H452.702ZM447.35 266.306C449.805 266.306 451.494 267.306 451.494 268.878C451.494 270.424 449.805 271.411 447.35 271.398C444.882 271.411 443.207 270.424 443.207 268.878C443.207 267.306 444.882 266.306 447.35 266.306ZM447.35 267.293C445.623 267.306 444.467 267.904 444.48 268.878C444.467 269.826 445.623 270.424 447.35 270.424C449.078 270.424 450.234 269.826 450.234 268.878C450.234 267.904 449.078 267.306 447.35 267.293ZM462.625 265.865V270.579H464.495V271.606H462.625V277.502H461.404V265.865H462.625ZM460.391 267.683V268.696H453.494V267.683H456.365V266.02H457.598V267.683H460.391ZM456.988 269.553C458.651 269.553 459.871 270.67 459.884 272.255C459.871 273.853 458.651 274.957 456.988 274.97C455.312 274.957 454.091 273.853 454.091 272.255C454.091 270.67 455.312 269.553 456.988 269.553ZM456.988 270.566C456.001 270.566 455.26 271.255 455.273 272.255C455.26 273.268 456.001 273.944 456.988 273.931C457.975 273.944 458.702 273.268 458.702 272.255C458.702 271.255 457.975 270.566 456.988 270.566ZM474.471 266.982V268.125C474.471 269.566 474.471 271.177 474.029 273.554L472.782 273.424C473.237 271.177 473.237 269.527 473.237 268.125V267.982H466.171V266.982H474.471ZM475.666 274.905V275.931H465.054V274.905H469.094V270.8H470.314V274.905H475.666ZM486.745 267.047V268.034H479.809V267.047H482.667V265.813H483.901V267.047H486.745ZM483.277 268.553C484.953 268.566 486.096 269.397 486.096 270.67C486.096 271.943 484.953 272.788 483.277 272.788C481.589 272.788 480.446 271.943 480.446 270.67C480.446 269.397 481.589 268.566 483.277 268.553ZM483.277 269.501C482.29 269.501 481.628 269.956 481.641 270.67C481.628 271.398 482.29 271.826 483.277 271.826C484.264 271.826 484.927 271.398 484.94 270.67C484.927 269.956 484.264 269.501 483.277 269.501ZM488.94 265.865V269.021H490.629V270.047H488.94V273.138H487.706V265.865H488.94ZM488.94 273.736V277.502H487.706V274.736H481.251V273.736H488.94ZM500.747 266.982V268.229C500.734 269.696 500.734 271.229 500.318 273.45L499.111 273.32C499.513 271.216 499.513 269.657 499.513 268.229V267.982H492.382V266.982H500.747ZM501.903 274.905V275.931H491.291V274.905H493.798V271.138H495.032V274.905H496.708V271.138H497.916V274.905H501.903ZM509.592 268.099C509.592 269.372 510.411 270.657 511.917 271.229L511.268 272.177C510.183 271.761 509.424 270.969 509.008 270.008C508.579 271.093 507.781 272.034 506.657 272.515L505.982 271.554C507.553 270.865 508.397 269.397 508.397 268.099V266.592H509.592V268.099ZM515.957 265.878V273.034H514.788V269.917H513.424V272.671H512.281V266.085H513.424V268.904H514.788V265.878H515.957ZM512.06 273.255C514.489 273.255 516.009 274.047 516.022 275.372C516.009 276.697 514.489 277.489 512.06 277.477C509.631 277.489 508.112 276.697 508.125 275.372C508.112 274.047 509.631 273.255 512.06 273.255ZM512.06 274.203C510.372 274.203 509.333 274.632 509.346 275.372C509.333 276.113 510.372 276.541 512.06 276.528C513.749 276.541 514.775 276.113 514.788 275.372C514.775 274.632 513.749 274.203 512.06 274.203ZM526.686 265.865V268.761H528.348V269.813H526.686V272.723H525.452V265.865H526.686ZM526.686 273.216V275.645H520.256V276.528H527.114V277.386H519.022V274.853H525.465V274.073H518.996V273.216H526.686ZM517.451 271.619C518.353 271.619 519.399 271.619 520.49 271.58V270.93C519.152 270.807 518.321 270.274 518.334 269.397C518.321 268.449 519.412 267.891 521.1 267.891C522.776 267.891 523.867 268.449 523.867 269.397C523.867 270.268 523.042 270.8 521.724 270.93V271.541C522.763 271.489 523.815 271.404 524.789 271.268L524.893 272.073C522.386 272.489 519.633 272.502 517.581 272.502L517.451 271.619ZM524.465 266.696V267.553H517.749V266.696H520.49V265.761H521.724V266.696H524.465ZM521.1 268.696C520.1 268.696 519.503 268.956 519.503 269.397C519.503 269.865 520.1 270.151 521.1 270.151C522.088 270.151 522.685 269.865 522.685 269.397C522.685 268.956 522.088 268.696 521.1 268.696ZM534.323 266.059C536.947 266.059 538.479 266.761 538.479 268.06C538.479 269.359 536.947 270.073 534.323 270.073C531.699 270.073 530.167 269.359 530.167 268.06C530.167 266.761 531.699 266.059 534.323 266.059ZM534.323 266.969C532.466 266.969 531.44 267.371 531.453 268.06C531.44 268.774 532.466 269.151 534.323 269.151C536.18 269.151 537.207 268.774 537.207 268.06C537.207 267.371 536.18 266.969 534.323 266.969ZM539.635 270.787V271.774H529.024V270.787H539.635ZM538.298 272.671V275.398H531.517V276.437H538.622V277.386H530.31V274.502H537.077V273.593H530.297V272.671H538.298ZM553.443 265.865V277.502H552.196V265.865H553.443ZM549.975 267.111C549.975 270.515 548.52 273.476 544.532 275.385L543.883 274.385C546.981 272.911 548.487 270.813 548.728 268.099H544.441V267.111H549.975ZM565.899 272.216V273.216H555.248V272.216H559.963V271.112H556.612V268.151H563.327V267.111H556.586V266.137H564.561V269.06H557.833V270.151H564.795V271.112H561.184V272.216H565.899ZM564.626 274.034V277.412H563.379V275.022H556.443V274.034H564.626ZM572.51 267.787V268.787H566.73V267.787H569.016V266.202H570.237V267.787H572.51ZM569.627 269.488C571.107 269.488 572.146 270.592 572.159 272.164C572.146 273.749 571.107 274.866 569.627 274.866C568.172 274.866 567.094 273.749 567.107 272.164C567.094 270.592 568.172 269.488 569.627 269.488ZM569.627 270.515C568.782 270.515 568.198 271.203 568.198 272.164C568.198 273.151 568.782 273.814 569.627 273.814C570.458 273.814 571.068 273.151 571.068 272.164C571.068 271.203 570.458 270.515 569.627 270.515ZM576.718 265.865V277.502H575.549V271.722H574.212V276.957H573.043V266.124H574.212V270.709H575.549V265.865H576.718ZM588.902 275.035V276.061H578.251V275.035H582.94V272.645H579.472V266.657H580.706V268.657H586.421V266.657H587.642V272.645H584.161V275.035H588.902ZM580.706 271.645H586.421V269.657H580.706V271.645ZM593.292 269.047C593.292 270.904 594.071 272.891 595.63 273.84L594.942 274.788C593.851 274.132 593.11 272.969 592.721 271.619C592.285 273.099 591.487 274.359 590.357 275.048L589.59 274.125C591.24 273.138 592.097 271.086 592.097 269.099V266.93H593.292V269.047ZM599.76 265.865V277.502H598.578V265.865H599.76ZM597.345 266.085V276.931H596.176V270.982H594.37V269.956H596.176V266.085H597.345ZM611.892 275.022V276.048H601.241V275.022H603.787V271.982C602.832 271.456 602.254 270.618 602.254 269.579C602.254 267.748 604.047 266.54 606.541 266.54C609.047 266.54 610.84 267.748 610.84 269.579C610.84 270.605 610.281 271.43 609.346 271.956V275.022H611.892ZM606.541 267.527C604.709 267.527 603.449 268.319 603.449 269.579C603.449 270.826 604.709 271.645 606.541 271.645C608.359 271.645 609.645 270.826 609.645 269.579C609.645 268.319 608.359 267.527 606.541 267.527ZM605.008 275.022H608.099V272.424C607.625 272.547 607.099 272.606 606.541 272.606C605.995 272.606 605.475 272.547 605.008 272.437V275.022ZM614.061 276.489C613.555 276.489 613.126 276.074 613.139 275.567C613.126 275.061 613.555 274.645 614.061 274.645C614.555 274.645 614.983 275.061 614.983 275.567C614.983 276.074 614.555 276.489 614.061 276.489ZM388.966 286.437V287.45H387.16V293.489H385.926V281.865H387.16V286.437H388.966ZM379.757 282.995V289.541C381.38 289.541 383.075 289.405 384.926 289.021L385.069 290.06C383.082 290.463 381.238 290.567 379.497 290.567H378.536V282.995H379.757ZM395.486 282.891V288.32H390.044V282.891H395.486ZM391.252 283.891V287.346H394.278V283.891H391.252ZM398.733 281.852V285.333H400.422V286.372H398.733V290.385H397.499V281.852H398.733ZM399.227 292.256V293.256H391.356V289.567H392.59V292.256H399.227ZM414.943 286.839V287.839H404.332V286.839H409.007V285.826H405.695V282.241H413.58V285.826H410.215V286.839H414.943ZM406.903 283.215V284.852H412.346V283.215H406.903ZM413.606 288.684V291.411H406.825V292.437H413.93V293.386H405.617V290.515H412.385V289.632H405.604V288.684H413.606ZM424.971 281.878V284.657H426.672V285.683H424.971V288.671H423.737V281.878H424.971ZM419.736 289.541C419.736 290.548 420.23 291.606 421.295 292.243C422.353 291.554 422.866 290.424 422.866 289.541V289.073H424.074V289.541C424.074 290.762 424.867 291.931 426.386 292.437L425.763 293.36C424.633 292.944 423.854 292.165 423.464 291.203C423.087 292.145 422.386 293.022 421.308 293.464C420.197 293.035 419.496 292.21 419.139 291.255C418.717 292.171 417.95 292.95 416.866 293.36L416.255 292.437C417.736 291.905 418.554 290.671 418.554 289.541V289.073H419.736V289.541ZM421.594 282.436V285.709H417.541V287.099C419.756 287.106 421.12 287.021 422.685 286.722L422.815 287.748C421.113 288.047 419.684 288.112 417.242 288.112H416.307V284.748H420.386V283.449H416.294V282.436H421.594ZM433.348 282.774V283.787H429.231V287.684C431.179 287.677 432.485 287.619 433.972 287.333L434.102 288.333C432.478 288.619 431.075 288.697 428.906 288.697H428.01V282.774H433.348ZM437.024 281.878V290.359H435.79V286.021H432.621V285.034H435.79V281.878H437.024ZM437.323 292.321V293.321H429.439V289.697H430.686V292.321H437.323ZM452.702 288.476V289.502H447.948V293.502H446.74V289.502H442.051V288.476H452.702ZM447.35 282.306C449.805 282.306 451.494 283.306 451.494 284.891C451.494 286.463 449.805 287.45 447.35 287.45C444.882 287.45 443.207 286.463 443.207 284.891C443.207 283.306 444.882 282.306 447.35 282.306ZM447.35 283.293C445.623 283.306 444.467 283.904 444.48 284.891C444.467 285.865 445.623 286.463 447.35 286.463C449.078 286.463 450.234 285.865 450.234 284.891C450.234 283.904 449.078 283.306 447.35 283.293ZM463.223 281.865V293.528H461.989V281.865H463.223ZM459.664 282.917V287.164H455.481V289.71C457.365 289.703 459.014 289.619 460.963 289.294L461.079 290.307C459.014 290.658 457.261 290.736 455.209 290.736H454.221V286.177H458.404V283.917H454.208V282.917H459.664ZM475.25 283.047V284.034H468.314V283.047H471.172V281.813H472.406V283.047H475.25ZM471.782 284.553C473.458 284.566 474.601 285.397 474.601 286.67C474.601 287.943 473.458 288.788 471.782 288.788C470.094 288.788 468.951 287.943 468.951 286.67C468.951 285.397 470.094 284.566 471.782 284.553ZM471.782 285.501C470.795 285.501 470.133 285.956 470.146 286.67C470.133 287.398 470.795 287.826 471.782 287.826C472.769 287.826 473.432 287.398 473.445 286.67C473.432 285.956 472.769 285.501 471.782 285.501ZM477.445 281.865V285.021H479.134V286.047H477.445V289.138H476.211V281.865H477.445ZM477.445 289.736V293.502H476.211V290.736H469.756V289.736H477.445ZM489.252 282.982V284.229C489.239 285.696 489.239 287.229 488.823 289.45L487.615 289.32C488.018 287.216 488.018 285.657 488.018 284.229V283.982H480.887V282.982H489.252ZM490.408 290.905V291.931H479.796V290.905H482.303V287.138H483.537V290.905H485.213V287.138H486.421V290.905H490.408ZM504.176 281.865V293.528H502.942V281.865H504.176ZM497.955 282.735C499.682 282.735 500.955 284.319 500.955 286.813C500.955 289.32 499.682 290.905 497.955 290.905C496.201 290.905 494.941 289.32 494.941 286.813C494.941 284.319 496.201 282.735 497.955 282.735ZM497.955 283.839C496.876 283.839 496.136 284.982 496.136 286.813C496.136 288.658 496.876 289.801 497.955 289.801C499.02 289.801 499.76 288.658 499.76 286.813C499.76 284.982 499.02 283.839 497.955 283.839ZM509.151 282.735C510.891 282.735 512.125 284.319 512.138 286.813C512.125 289.32 510.891 290.905 509.151 290.905C507.41 290.905 506.163 289.32 506.176 286.813C506.163 284.319 507.41 282.735 509.151 282.735ZM509.151 283.839C508.086 283.839 507.358 284.982 507.358 286.813C507.358 288.658 508.086 289.801 509.151 289.801C510.229 289.801 510.956 288.658 510.956 286.813C510.956 284.982 510.229 283.839 509.151 283.839ZM516.905 284.709V285.761H515.1V288.177H516.905V289.19H515.1V293.502H513.866V281.865H515.1V284.709H516.905ZM527.205 281.865V293.502H525.958V281.865H527.205ZM523.737 283.111C523.737 286.515 522.282 289.476 518.295 291.385L517.645 290.385C520.743 288.911 522.25 286.813 522.49 284.099H518.204V283.111H523.737ZM530.348 292.489C529.842 292.489 529.413 292.074 529.426 291.567C529.413 291.061 529.842 290.645 530.348 290.645C530.842 290.645 531.271 291.061 531.271 291.567C531.271 292.074 530.842 292.489 530.348 292.489Z" fill="#6B7280"/>
<g clip-path="url(#clip1_55995_35231)">
<rect x="381.47" y="349.083" width="57.6158" height="25.6355" rx="4.98768" fill="#A3E635"/>
<rect x="381.47" y="349.083" width="57.6158" height="25.6355" rx="4.98768" stroke="#84CC16" stroke-width="0.665025"/>
<path d="M395.845 359.039C395.845 360.774 396.635 362.52 398.235 363.196L397.456 364.255C396.375 363.767 395.627 362.827 395.201 361.658C394.77 362.931 393.996 363.959 392.842 364.484L392.042 363.383C393.694 362.686 394.494 360.878 394.505 359.039V357.626H395.845V359.039ZM400.085 356.899V366.375H398.744V356.899H400.085ZM406.735 357.449V358.509H404.854C404.865 359.616 405.519 360.748 407.057 361.242L406.382 362.271C405.332 361.933 404.61 361.258 404.2 360.411C403.779 361.336 403.025 362.068 401.924 362.427L401.217 361.408C402.781 360.904 403.493 359.694 403.514 358.509H401.581V357.449H406.735ZM408.865 356.899V359.195H410.143V360.296H408.865V362.603H407.535V356.899H408.865ZM408.865 363.009V366.354H407.535V364.058H402.495V363.009H408.865ZM418.02 356.899V360.598H419.412V361.689H418.02V366.354H416.71V356.899H418.02ZM416.066 358.312V359.372H410.507V358.312H412.647V357.044H413.978V358.312H416.066ZM413.312 359.902C414.694 359.902 415.723 360.837 415.723 362.156C415.723 363.476 414.694 364.411 413.312 364.411C411.92 364.411 410.891 363.476 410.891 362.156C410.891 360.837 411.92 359.902 413.312 359.902ZM413.312 360.972C412.647 360.982 412.159 361.429 412.159 362.156C412.159 362.894 412.647 363.331 413.312 363.32C413.978 363.331 414.456 362.894 414.456 362.156C414.456 361.429 413.978 360.982 413.312 360.972ZM427.704 356.899V366.354H426.364V356.899H427.704ZM424.867 357.886C424.867 360.754 423.859 363.133 420.482 364.733L419.786 363.674C422.228 362.52 423.303 361.024 423.516 358.925H420.295V357.886H424.867Z" fill="#F9FAFB"/>
<rect x="450.391" y="348.934" width="77.9064" height="25.936" rx="4.98768" fill="#F3F4F6"/>
<rect x="450.391" y="348.934" width="77.9064" height="25.936" rx="4.98768" stroke="#E5E7EB" stroke-width="0.665025"/>
<path d="M465.686 364.673H469.012M465.686 363.01H469.012M467.903 356.915C467.85 356.914 467.791 356.914 467.723 356.914H465.243C464.622 356.914 464.312 356.914 464.075 357.035C463.866 357.141 463.697 357.311 463.591 357.519C463.47 357.756 463.47 358.067 463.47 358.688V365.116C463.47 365.737 463.47 366.047 463.591 366.284C463.697 366.493 463.866 366.662 464.075 366.769C464.312 366.889 464.622 366.889 465.241 366.889L469.457 366.889C470.076 366.889 470.386 366.889 470.623 366.769C470.831 366.662 471.001 366.493 471.108 366.284C471.228 366.047 471.228 365.738 471.228 365.118V360.42C471.228 360.352 471.228 360.292 471.228 360.239M467.903 356.915C468.062 356.916 468.161 356.922 468.257 356.945C468.37 356.972 468.478 357.017 468.578 357.078C468.689 357.146 468.785 357.242 468.977 357.434L470.709 359.166C470.901 359.357 470.996 359.453 471.065 359.565C471.125 359.664 471.17 359.772 471.197 359.885C471.22 359.981 471.226 360.081 471.228 360.239M467.903 356.915L467.903 358.466C467.903 359.087 467.903 359.397 468.024 359.634C468.13 359.843 468.3 360.012 468.508 360.118C468.745 360.239 469.055 360.239 469.675 360.239H471.228" stroke="#6B7280" stroke-width="1.33005" stroke-linecap="round" stroke-linejoin="round"/>
<path d="M486.777 356.909V363.923H485.52V360.66H484.699V363.725H483.463V357.075H484.699V359.59H485.52V356.909H486.777ZM487.016 365.128V366.188H480.366V363.258H481.696V365.128H487.016ZM482.631 357.668V360.608H480.314V361.575C481.348 361.569 482.117 361.523 483.016 361.346L483.13 362.395C482.029 362.593 481.093 362.624 479.691 362.624H479.036V359.631H481.353V358.707H479.026V357.668H482.631ZM492.659 357.429V358.488H489.676V360.993C491.178 360.982 492.061 360.935 493.074 360.733L493.189 361.793C492.046 362.032 491.006 362.073 489.105 362.084H488.357V357.429H492.659ZM495.818 356.899V362.364H494.498V360.151H492.201V359.081H494.498V356.899H495.818ZM495.818 362.749V366.251H489.458V362.749H495.818ZM490.788 363.809V365.191H494.519V363.809H490.788ZM508.141 361.575V362.624H504.577V364.255H503.268V362.624H499.486V361.575H508.141ZM507.029 357.314V360.795H500.566V357.314H507.029ZM501.865 358.343V359.767H505.731V358.343H501.865ZM507.185 365.128V366.188H500.504V363.435H501.824V365.128H507.185ZM512.267 359.039C512.267 360.816 512.983 362.541 514.563 363.227L513.752 364.287C512.703 363.772 512.002 362.832 511.612 361.668C511.196 362.905 510.469 363.918 509.388 364.453L508.557 363.372C510.178 362.645 510.916 360.816 510.926 359.039V357.626H512.267V359.039ZM516.672 356.899V366.375H515.363V360.941H513.503V359.87H515.363V356.899H516.672Z" fill="#4B5563"/>
</g>
<path d="M404.281 440.677V454.269H401.621V440.677H404.281ZM404.78 457.116V459.236H391.604V452.897H394.285V457.116H404.78ZM393.911 441.883C396.82 441.883 399.085 443.878 399.085 446.642C399.085 449.468 396.82 451.442 393.911 451.442C391.001 451.442 388.736 449.468 388.736 446.642C388.736 443.878 391.001 441.883 393.911 441.883ZM393.911 444.19C392.435 444.169 391.313 445.104 391.334 446.642C391.313 448.221 392.435 449.136 393.911 449.136C395.345 449.136 396.467 448.221 396.467 446.642C396.467 445.104 395.345 444.169 393.911 444.19ZM422.735 440.657V459.568H420.054V440.657H422.735ZM417.062 442.631C417.062 448.367 415.046 453.126 408.292 456.326L406.899 454.206C411.783 451.9 413.934 448.907 414.36 444.709H407.918V442.631H417.062ZM432.108 452.793C432.108 454.321 432.742 455.89 434.29 456.929C435.849 455.827 436.534 454.196 436.534 452.793V452.149H439.153V452.793C439.132 454.768 440.192 456.596 442.707 457.365L441.418 459.298C439.61 458.685 438.426 457.532 437.781 456.077C437.148 457.532 436.046 458.799 434.352 459.464C432.565 458.82 431.453 457.594 430.84 456.139C430.175 457.552 429.011 458.695 427.286 459.298L425.977 457.365C428.471 456.513 429.51 454.643 429.531 452.793V452.149H432.108V452.793ZM441.065 440.677V451.359H438.405V440.677H441.065ZM430.695 441.633C433.646 441.633 435.869 443.504 435.869 446.185C435.869 448.824 433.646 450.694 430.695 450.694C427.744 450.694 425.52 448.824 425.52 446.185C425.52 443.504 427.744 441.633 430.695 441.633ZM430.695 443.857C429.178 443.857 428.097 444.73 428.118 446.185C428.097 447.619 429.178 448.491 430.695 448.491C432.17 448.491 433.251 447.619 433.251 446.185C433.251 444.73 432.17 443.857 430.695 443.857ZM458.979 445.81V447.889H445.762V441.322H448.401V445.81H458.979ZM460.912 449.925V452.004H443.6V449.925H460.912ZM459.104 457.033V459.153H445.595V453.541H448.256V457.033H459.104ZM484.208 450.008V452.107H477.08V455.37H474.462V452.107H466.897V450.008H484.208ZM481.985 441.488V448.45H469.058V441.488H481.985ZM471.656 443.545V446.392H479.387V443.545H471.656ZM482.297 457.116V459.236H468.934V453.728H471.573V457.116H482.297ZM492.459 444.938C492.459 448.491 493.893 451.941 497.052 453.313L495.431 455.433C493.332 454.404 491.929 452.523 491.15 450.196C490.318 452.669 488.864 454.695 486.702 455.765L485.04 453.604C488.282 452.149 489.757 448.491 489.778 444.938V442.111H492.459V444.938ZM501.27 440.657V459.61H498.652V448.741H494.932V446.6H498.652V440.657H501.27ZM520.993 448.034V450.112H503.702V448.034H520.993ZM518.935 444.917V446.995H505.863V441.031H518.79V443.15H508.503V444.917H518.935ZM518.852 451.235V456.181H508.316V457.345H519.351V459.402H505.718V454.29H516.234V453.23H505.697V451.235H518.852Z" fill="black"/>
<path d="M222.236 481.083V485.59H224.106V486.604H222.236V492.747H221.002V481.083H222.236ZM219.105 482.2V483.2H214.897V488.825C216.852 488.818 218.319 488.734 219.976 488.435L220.131 489.474C218.313 489.799 216.767 489.864 214.598 489.851H213.663V482.2H219.105ZM235.458 482.733V483.746H233.809V485.227H235.458V486.253H233.809V487.954H232.575V481.083H233.809V482.733H235.458ZM227.938 481.759C229.717 481.759 231.029 482.889 231.042 484.525C231.029 486.149 229.717 487.279 227.938 487.292C226.158 487.279 224.833 486.149 224.846 484.525C224.833 482.889 226.158 481.759 227.938 481.759ZM227.938 482.798C226.847 482.798 226.041 483.499 226.054 484.525C226.041 485.564 226.847 486.24 227.938 486.253C229.029 486.24 229.834 485.564 229.834 484.525C229.834 483.499 229.029 482.798 227.938 482.798ZM230.055 488.266C232.432 488.266 233.912 489.084 233.912 490.487C233.912 491.877 232.432 492.708 230.055 492.695C227.652 492.708 226.145 491.877 226.145 490.487C226.145 489.084 227.652 488.266 230.055 488.266ZM230.055 489.266C228.366 489.266 227.366 489.708 227.379 490.487C227.366 491.279 228.366 491.708 230.055 491.708C231.73 491.708 232.705 491.279 232.705 490.487C232.705 489.708 231.73 489.266 230.055 489.266ZM245.304 481.096V484.837H246.992V485.863H245.304V489.799H244.07V481.096H245.304ZM243.109 482.447V483.447H236.173V482.447H239.03V481.083H240.264V482.447H243.109ZM239.641 484.006C241.316 484.006 242.459 484.876 242.459 486.201C242.459 487.526 241.316 488.383 239.641 488.383C237.952 488.383 236.809 487.526 236.809 486.201C236.809 484.876 237.952 484.006 239.641 484.006ZM239.641 484.954C238.653 484.954 237.991 485.435 238.004 486.201C237.991 486.954 238.653 487.422 239.641 487.422C240.628 487.422 241.29 486.954 241.303 486.201C241.29 485.435 240.628 484.954 239.641 484.954ZM245.797 491.474V492.474H237.926V489.11H239.16V491.474H245.797ZM261.514 487.643V488.643H256.786V492.708H255.578V488.643H250.902V487.643H261.514ZM260.513 481.772V482.759H256.916C256.935 484.201 258.728 485.486 260.929 485.785L260.474 486.759C258.565 486.461 256.916 485.519 256.214 484.188C255.493 485.519 253.85 486.461 251.967 486.759L251.499 485.785C253.675 485.486 255.467 484.201 255.513 482.759H251.889V481.772H260.513ZM272.385 481.083V492.721H271.203V481.083H272.385ZM270.021 481.33V492.137H268.852V486.214H267.047V485.201H268.852V481.33H270.021ZM265.904 484.33C265.904 486.318 266.709 488.305 268.346 489.253L267.605 490.162C266.495 489.5 265.728 488.325 265.332 486.915C264.91 488.435 264.118 489.727 262.981 490.435L262.228 489.513C263.878 488.513 264.722 486.396 264.722 484.33V483.395H262.579V482.395H267.904V483.395H265.904V484.33ZM277.386 481.824C279.178 481.824 280.516 482.954 280.516 484.59C280.516 486.032 279.477 487.078 278.009 487.305V489.149C279.042 489.104 280.075 489.026 281.036 488.903L281.127 489.825C278.672 490.253 275.957 490.266 273.944 490.253L273.749 489.24C274.652 489.234 275.691 489.227 276.775 489.201V487.305C275.269 487.091 274.243 486.039 274.256 484.59C274.243 482.954 275.554 481.824 277.386 481.824ZM277.386 482.863C276.269 482.876 275.451 483.551 275.451 484.59C275.451 485.629 276.269 486.318 277.386 486.305C278.49 486.318 279.295 485.629 279.308 484.59C279.295 483.551 278.49 482.876 277.386 482.863ZM282.971 481.083V485.811H284.763V486.85H282.971V492.721H281.737V481.083H282.971ZM294.895 481.863C294.895 484.85 292.765 486.837 289.349 487.669L288.842 486.668C291.699 486.039 293.362 484.61 293.57 482.863H289.452V481.863H294.895ZM298.272 481.096V487.422H297.038V481.096H298.272ZM298.454 488.045V489.006H296.895V491.539H298.584V492.539H290.466V491.539H292.115V489.006H290.569V488.045H298.454ZM293.323 491.539H295.687V489.006H293.323V491.539ZM309.767 481.083V492.747H308.533V481.083H309.767ZM303.545 481.954C305.273 481.954 306.546 483.538 306.546 486.032C306.546 488.539 305.273 490.123 303.545 490.123C301.792 490.123 300.532 488.539 300.532 486.032C300.532 483.538 301.792 481.954 303.545 481.954ZM303.545 483.058C302.467 483.058 301.727 484.201 301.727 486.032C301.727 487.876 302.467 489.019 303.545 489.019C304.61 489.019 305.351 487.876 305.351 486.032C305.351 484.201 304.61 483.058 303.545 483.058ZM318.911 488.773C318.911 489.773 319.405 490.831 320.457 491.461C321.528 490.779 322.054 489.662 322.054 488.773V488.214H323.262V488.773C323.262 489.981 324.054 491.15 325.574 491.643L324.964 492.552C323.814 492.156 323.035 491.383 322.626 490.422C322.256 491.364 321.561 492.215 320.496 492.656C319.379 492.234 318.671 491.409 318.313 490.461C317.891 491.377 317.125 492.15 316.027 492.552L315.404 491.643C316.898 491.111 317.703 489.903 317.716 488.773V488.214H318.911V488.773ZM324.522 481.096V487.721H323.288V481.096H324.522ZM318.21 481.733C319.989 481.733 321.301 482.863 321.301 484.486C321.301 486.097 319.989 487.214 318.21 487.214C316.43 487.214 315.105 486.097 315.105 484.486C315.105 482.863 316.43 481.733 318.21 481.733ZM318.21 482.785C317.105 482.772 316.313 483.46 316.313 484.486C316.313 485.499 317.105 486.188 318.21 486.188C319.301 486.188 320.093 485.499 320.093 484.486C320.093 483.46 319.301 482.772 318.21 482.785ZM335.783 484.486V485.474H327.769V481.499H328.99V484.486H335.783ZM337.004 486.941V487.928H326.353V486.941H337.004ZM335.861 491.435V492.448H327.678V489.032H328.912V491.435H335.861ZM350.811 481.083V488.006H349.577V485.058H347.408V484.045H349.577V481.083H350.811ZM346.915 488.331C349.357 488.331 350.85 489.136 350.85 490.526C350.85 491.916 349.357 492.708 346.915 492.721C344.473 492.708 342.966 491.916 342.979 490.526C342.966 489.136 344.473 488.331 346.915 488.331ZM346.915 489.292C345.213 489.292 344.2 489.734 344.2 490.526C344.2 491.305 345.213 491.76 346.915 491.747C348.616 491.76 349.629 491.305 349.629 490.526C349.629 489.734 348.616 489.292 346.915 489.292ZM345.278 483.136C345.278 484.616 346.33 486.045 348.084 486.642L347.447 487.617C346.142 487.162 345.181 486.233 344.681 485.084C344.168 486.389 343.148 487.435 341.758 487.941L341.109 486.954C342.914 486.331 344.018 484.759 344.018 483.149V482.889H341.498V481.889H347.772V482.889H345.278V483.136ZM363.255 490.253V491.279H352.604V490.253H357.293V487.863H353.825V481.876H355.059V483.876H360.774V481.876H361.995V487.863H358.514V490.253H363.255ZM355.059 486.863H360.774V484.876H355.059V486.863ZM374.75 490.292V491.331H364.099V490.292H368.788V488.253H365.398V484.551H372.23V482.915H365.372V481.902H373.451V485.538H366.619V487.24H373.724V488.253H370.009V490.292H374.75ZM385.79 482.265V483.252H378.854V482.265H381.712V481.031H382.946V482.265H385.79ZM382.322 483.772C383.998 483.785 385.141 484.616 385.141 485.889C385.141 487.162 383.998 488.006 382.322 488.006C380.634 488.006 379.491 487.162 379.491 485.889C379.491 484.616 380.634 483.785 382.322 483.772ZM382.322 484.72C381.335 484.72 380.673 485.175 380.685 485.889C380.673 486.617 381.335 487.045 382.322 487.045C383.309 487.045 383.972 486.617 383.985 485.889C383.972 485.175 383.309 484.72 382.322 484.72ZM387.985 481.083V484.24H389.674V485.266H387.985V488.357H386.751V481.083H387.985ZM387.985 488.954V492.721H386.751V489.955H380.296V488.954H387.985ZM393.895 483.317C393.895 484.59 394.713 485.876 396.22 486.448L395.571 487.396C394.486 486.98 393.726 486.188 393.311 485.227C392.882 486.311 392.083 487.253 390.96 487.734L390.284 486.772C391.856 486.084 392.7 484.616 392.7 483.317V481.811H393.895V483.317ZM400.26 481.096V488.253H399.091V485.136H397.727V487.889H396.584V481.304H397.727V484.123H399.091V481.096H400.26ZM396.363 488.474C398.792 488.474 400.312 489.266 400.325 490.591C400.312 491.916 398.792 492.708 396.363 492.695C393.934 492.708 392.414 491.916 392.427 490.591C392.414 489.266 393.934 488.474 396.363 488.474ZM396.363 489.422C394.674 489.422 393.635 489.851 393.648 490.591C393.635 491.331 394.674 491.76 396.363 491.747C398.051 491.76 399.078 491.331 399.091 490.591C399.078 489.851 398.051 489.422 396.363 489.422ZM412.456 485.85V486.837H401.831V485.85H412.456ZM411.196 484.019V485.006H403.221V481.421H411.079V482.421H404.455V484.019H411.196ZM411.105 487.76V490.578H404.325V491.617H411.43V492.591H403.117V489.669H409.884V488.708H403.104V487.76H411.105ZM417.119 481.915C418.963 481.902 420.275 483.045 420.288 484.681C420.275 486.318 418.963 487.461 417.119 487.461C415.288 487.461 413.937 486.318 413.95 484.681C413.937 483.045 415.288 481.902 417.119 481.915ZM417.119 482.98C415.989 482.98 415.158 483.655 415.171 484.681C415.158 485.707 415.989 486.383 417.119 486.383C418.249 486.383 419.08 485.707 419.08 484.681C419.08 483.655 418.249 482.98 417.119 482.98ZM422.951 481.083V492.747H421.717V481.083H422.951ZM413.391 489.214C415.508 489.214 418.444 489.188 420.99 488.825L421.081 489.721C418.444 490.227 415.625 490.24 413.547 490.24L413.391 489.214ZM438.148 482.72V483.72H428.575V482.72H432.757V481.252H433.978V482.72H438.148ZM438.719 490.409V491.409H428.068V490.409H432.757V488.864C430.718 488.74 429.484 487.935 429.484 486.642C429.484 485.24 430.965 484.421 433.368 484.421C435.745 484.421 437.239 485.24 437.239 486.642C437.239 487.935 435.998 488.74 433.978 488.864V490.409H438.719ZM433.368 485.396C431.705 485.396 430.731 485.837 430.744 486.642C430.731 487.448 431.705 487.889 433.368 487.902C435.004 487.889 435.979 487.448 435.979 486.642C435.979 485.837 435.004 485.396 433.368 485.396ZM449.24 481.083V492.721H447.993V481.083H449.24ZM445.772 482.33C445.772 485.733 444.317 488.695 440.33 490.604L439.68 489.604C442.778 488.13 444.285 486.032 444.525 483.317H440.239V482.33H445.772ZM460.709 481.096V487.682H459.475V481.096H460.709ZM460.709 488.305V492.578H453.059V488.305H460.709ZM454.28 489.292V491.578H459.501V489.292H454.28ZM455.293 482.668C455.28 484.24 456.41 485.655 458.176 486.253L457.566 487.201C456.215 486.753 455.202 485.831 454.669 484.629C454.15 485.909 453.117 486.928 451.721 487.422L451.111 486.448C452.929 485.837 454.033 484.292 454.033 482.668V481.538H455.293V482.668ZM467.853 481.278C470.477 481.278 472.009 481.98 472.009 483.278C472.009 484.577 470.477 485.292 467.853 485.292C465.229 485.292 463.697 484.577 463.697 483.278C463.697 481.98 465.229 481.278 467.853 481.278ZM467.853 482.187C465.996 482.187 464.97 482.59 464.983 483.278C464.97 483.993 465.996 484.369 467.853 484.369C469.71 484.369 470.737 483.993 470.737 483.278C470.737 482.59 469.71 482.187 467.853 482.187ZM473.165 486.006V486.993H462.554V486.006H473.165ZM471.828 487.889V490.617H465.048V491.656H472.152V492.604H463.84V489.721H470.607V488.812H463.827V487.889H471.828ZM481.348 484.512C481.348 486.357 482.556 488.409 484.323 489.24L483.621 490.201C482.316 489.571 481.283 488.26 480.764 486.733C480.225 488.402 479.134 489.838 477.802 490.5L477.075 489.526C478.842 488.682 480.127 486.487 480.127 484.512V483.278H477.504V482.252H483.881V483.278H481.348V484.512ZM486.362 481.083V485.694H488.232V486.733H486.362V492.721H485.128V481.083H486.362ZM498.091 481.629V482.434C498.091 483.311 498.091 484.428 497.818 485.928H499.442V486.941H488.791V485.928H496.571C496.85 484.506 496.87 483.467 496.87 482.629H490.129V481.629H498.091ZM498.156 488.552V492.747H496.922V489.526H489.921V488.552H498.156ZM509.352 481.083V485.798H511.223V486.824H509.352V492.721H508.131V481.083H509.352ZM507.118 482.902V483.915H500.221V482.902H503.092V481.239H504.325V482.902H507.118ZM503.715 484.772C505.378 484.772 506.599 485.889 506.612 487.474C506.599 489.071 505.378 490.175 503.715 490.188C502.039 490.175 500.819 489.071 500.819 487.474C500.819 485.889 502.039 484.772 503.715 484.772ZM503.715 485.785C502.728 485.785 501.988 486.474 502.001 487.474C501.988 488.487 502.728 489.162 503.715 489.149C504.702 489.162 505.43 488.487 505.43 487.474C505.43 486.474 504.702 485.785 503.715 485.785ZM521.198 484.486V485.474H513.184V481.499H514.405V484.486H521.198ZM522.419 486.941V487.928H511.768V486.941H522.419ZM521.276 491.435V492.448H513.093V489.032H514.327V491.435H521.276ZM536.174 481.096V489.552H534.94V481.096H536.174ZM536.525 491.474V492.474H528.563V488.695H529.809V491.474H536.525ZM529.861 481.876C531.615 481.876 532.953 483.071 532.953 484.759C532.953 486.474 531.615 487.656 529.861 487.656C528.108 487.656 526.757 486.474 526.757 484.759C526.757 483.071 528.108 481.876 529.861 481.876ZM529.861 482.954C528.77 482.954 527.965 483.694 527.965 484.759C527.965 485.85 528.77 486.578 529.861 486.578C530.926 486.578 531.745 485.85 531.745 484.759C531.745 483.694 530.926 482.954 529.861 482.954ZM547.695 481.083V492.721H546.448V481.083H547.695ZM544.227 482.33C544.227 485.733 542.772 488.695 538.785 490.604L538.135 489.604C541.233 488.13 542.74 486.032 542.98 483.317H538.694V482.33H544.227ZM553.553 488.773C553.553 489.773 554.046 490.831 555.099 491.461C556.17 490.779 556.696 489.662 556.696 488.773V488.214H557.904V488.773C557.904 489.981 558.696 491.15 560.216 491.643L559.606 492.552C558.456 492.156 557.677 491.383 557.268 490.422C556.898 491.364 556.203 492.215 555.138 492.656C554.021 492.234 553.313 491.409 552.955 490.461C552.533 491.377 551.767 492.15 550.669 492.552L550.046 491.643C551.54 491.111 552.345 489.903 552.358 488.773V488.214H553.553V488.773ZM559.164 481.096V487.721H557.93V481.096H559.164ZM552.852 481.733C554.631 481.733 555.943 482.863 555.943 484.486C555.943 486.097 554.631 487.214 552.852 487.214C551.072 487.214 549.747 486.097 549.747 484.486C549.747 482.863 551.072 481.733 552.852 481.733ZM552.852 482.785C551.747 482.772 550.955 483.46 550.955 484.486C550.955 485.499 551.747 486.188 552.852 486.188C553.943 486.188 554.735 485.499 554.735 484.486C554.735 483.46 553.943 482.772 552.852 482.785ZM570.425 484.486V485.474H562.411V481.499H563.632V484.486H570.425ZM571.646 486.941V487.928H560.995V486.941H571.646ZM570.503 491.435V492.448H562.32V489.032H563.554V491.435H570.503ZM586.389 486.967V487.967H581.765V490.227H580.544V487.967H575.738V486.967H586.389ZM585.012 481.629V485.759H577.102V481.629H585.012ZM578.309 482.603V484.785H583.791V482.603H578.309ZM585.207 491.474V492.474H577.063V489.123H578.297V491.474H585.207ZM591.441 484.045C591.441 486.175 592.636 488.292 594.416 489.097L593.662 490.085C592.337 489.422 591.344 488.104 590.831 486.513C590.318 488.188 589.298 489.604 587.96 490.305L587.181 489.305C588.986 488.448 590.194 486.201 590.194 484.045V482.057H591.441V484.045ZM596.948 481.083V492.747H595.727V485.954H593.13V484.954H595.727V481.083H596.948ZM609.366 485.85V486.837H598.741V485.85H609.366ZM608.106 484.019V485.006H600.131V481.421H607.989V482.421H601.365V484.019H608.106ZM608.015 487.76V490.578H601.235V491.617H608.34V492.591H600.027V489.669H606.794V488.708H600.014V487.76H608.015ZM619.874 481.083V492.747H618.64V481.083H619.874ZM613.652 481.954C615.379 481.954 616.652 483.538 616.652 486.032C616.652 488.539 615.379 490.123 613.652 490.123C611.898 490.123 610.639 488.539 610.639 486.032C610.639 483.538 611.898 481.954 613.652 481.954ZM613.652 483.058C612.574 483.058 611.833 484.201 611.833 486.032C611.833 487.876 612.574 489.019 613.652 489.019C614.717 489.019 615.457 487.876 615.457 486.032C615.457 484.201 614.717 483.058 613.652 483.058ZM635.629 490.24V491.266H624.978V490.24H629.667V487.552H626.199V482.018H634.356V487.552H630.888V490.24H635.629ZM627.394 483.006V486.578H633.148V483.006H627.394ZM639.629 481.954C640.688 481.954 641.565 482.564 642.084 483.616H644.955V481.083H646.176V492.747H644.955V488.279H642.162C641.662 489.448 640.746 490.123 639.629 490.123C637.889 490.123 636.668 488.539 636.681 486.032C636.668 483.538 637.889 481.954 639.629 481.954ZM639.629 483.058C638.577 483.058 637.85 484.201 637.85 486.032C637.85 487.876 638.577 489.019 639.629 489.019C640.682 489.019 641.409 487.876 641.409 486.032C641.409 484.201 640.682 483.058 639.629 483.058ZM642.435 484.629C642.519 485.058 642.578 485.525 642.578 486.032C642.578 486.474 642.539 486.883 642.461 487.266H644.955V484.629H642.435ZM652.008 488.773C652.008 489.773 652.501 490.831 653.553 491.461C654.625 490.779 655.151 489.662 655.151 488.773V488.214H656.359V488.773C656.359 489.981 657.151 491.15 658.671 491.643L658.061 492.552C656.911 492.156 656.132 491.383 655.723 490.422C655.352 491.364 654.657 492.215 653.592 492.656C652.475 492.234 651.767 491.409 651.41 490.461C650.988 491.377 650.222 492.15 649.124 492.552L648.501 491.643C649.994 491.111 650.8 489.903 650.813 488.773V488.214H652.008V488.773ZM657.619 481.096V487.721H656.385V481.096H657.619ZM651.306 481.733C653.086 481.733 654.398 482.863 654.398 484.486C654.398 486.097 653.086 487.214 651.306 487.214C649.527 487.214 648.202 486.097 648.202 484.486C648.202 482.863 649.527 481.733 651.306 481.733ZM651.306 482.785C650.202 482.772 649.41 483.46 649.41 484.486C649.41 485.499 650.202 486.188 651.306 486.188C652.397 486.188 653.19 485.499 653.19 484.486C653.19 483.46 652.397 482.772 651.306 482.785ZM661.996 488.058V489.292H667.464V488.058H668.698V492.578H660.775V488.058H661.996ZM661.996 491.591H667.464V490.253H661.996V491.591ZM670.075 486.305V487.331H659.463V486.305H670.075ZM665.399 481.707C665.399 483.045 667.257 484.343 669.491 484.616L669.049 485.59C667.159 485.324 665.516 484.434 664.776 483.2C664.016 484.441 662.366 485.324 660.502 485.59L660.035 484.616C662.295 484.33 664.139 483.084 664.139 481.707V481.213H665.399V481.707ZM680.622 481.083V492.721H679.388V481.083H680.622ZM672.894 482.213V488.695C674.589 488.682 676.375 488.545 678.245 488.162L678.414 489.201C676.349 489.617 674.478 489.76 672.647 489.76H671.673V482.213H672.894ZM691.52 481.083V485.59H693.39V486.604H691.52V492.747H690.286V481.083H691.52ZM688.389 482.2V483.2H684.181V488.825C686.136 488.818 687.603 488.734 689.26 488.435L689.415 489.474C687.597 489.799 686.051 489.864 683.882 489.851H682.947V482.2H688.389ZM695.273 491.708C694.767 491.708 694.338 491.292 694.351 490.786C694.338 490.279 694.767 489.864 695.273 489.864C695.767 489.864 696.196 490.279 696.196 490.786C696.196 491.292 695.767 491.708 695.273 491.708Z" fill="#6B7280"/>
<g filter="url(#filter0_d_55995_35231)">
<rect x="87.79" y="534.516" width="234.089" height="266.01" rx="10.6404" fill="white"/>
<rect x="103.751" y="550.477" width="39.9015" height="39.9015" rx="5.3202" fill="#F3F4F6"/>
<path d="M127.692 575.413C129.344 575.413 130.684 574.073 130.684 572.42V570.425M130.684 570.425V567.032C130.684 566.474 130.684 566.195 130.576 565.982C130.48 565.794 130.327 565.642 130.139 565.546C129.926 565.438 129.647 565.438 129.088 565.438H127.293C126.734 565.438 126.455 565.438 126.241 565.546C126.053 565.642 125.901 565.794 125.805 565.982C125.697 566.195 125.697 566.475 125.697 567.034V568.829C125.697 569.388 125.697 569.667 125.805 569.88C125.901 570.068 126.053 570.221 126.241 570.317C126.454 570.425 126.734 570.425 127.291 570.425L130.684 570.425ZM118.714 575.413C120.367 575.413 121.706 574.073 121.706 572.42L121.706 570.425M121.706 570.425V567.032C121.706 566.474 121.706 566.195 121.598 565.982C121.502 565.794 121.349 565.642 121.161 565.546C120.948 565.438 120.669 565.438 120.11 565.438H118.315C117.756 565.438 117.477 565.438 117.263 565.546C117.076 565.642 116.923 565.794 116.827 565.982C116.719 566.195 116.719 566.475 116.719 567.034V568.829C116.719 569.388 116.719 569.667 116.827 569.88C116.923 570.068 117.076 570.221 117.263 570.317C117.476 570.425 117.756 570.425 118.313 570.425L121.706 570.425Z" stroke="#9CA3AF" stroke-width="1.99507" stroke-linecap="round" stroke-linejoin="round"/>
<rect x="272.618" y="550.477" width="33.3005" height="16.3202" rx="3.99015" fill="#A3E635"/>
<path d="M279.823 562.133V555.55H281.187V558.278H284.042V555.55H285.415V562.133H284.042V559.405H281.187V562.133H279.823ZM292.552 558.841C292.552 560.987 291.216 562.224 289.479 562.224C287.724 562.224 286.397 560.978 286.397 558.841C286.397 556.696 287.724 555.459 289.479 555.459C291.216 555.459 292.552 556.696 292.552 558.841ZM291.161 558.841C291.161 557.432 290.497 556.668 289.479 556.668C288.461 556.668 287.788 557.432 287.788 558.841C287.788 560.251 288.461 561.014 289.479 561.014C290.497 561.014 291.161 560.251 291.161 558.841ZM292.989 556.678V555.55H298.38V556.678H296.362V562.133H295.007V556.678H292.989Z" fill="white"/>
</g>
<g filter="url(#filter1_d_55995_35231)">
<rect x="337.839" y="534.516" width="234.089" height="266.01" rx="10.6404" fill="white"/>
<rect x="353.8" y="550.477" width="39.9015" height="39.9015" rx="5.3202" fill="#F3F4F6"/>
<path d="M377.74 575.413C379.393 575.413 380.733 574.073 380.733 572.42V570.425M380.733 570.425V567.032C380.733 566.474 380.733 566.195 380.624 565.982C380.529 565.794 380.376 565.642 380.188 565.546C379.975 565.438 379.696 565.438 379.137 565.438H377.342C376.783 565.438 376.503 565.438 376.29 565.546C376.102 565.642 375.95 565.794 375.854 565.982C375.745 566.195 375.745 566.475 375.745 567.034V568.829C375.745 569.388 375.745 569.667 375.854 569.88C375.95 570.068 376.102 570.221 376.29 570.317C376.503 570.425 376.782 570.425 377.34 570.425L380.733 570.425ZM368.763 575.413C370.415 575.413 371.755 574.073 371.755 572.42L371.755 570.425M371.755 570.425V567.032C371.755 566.474 371.755 566.195 371.647 565.982C371.551 565.794 371.398 565.642 371.21 565.546C370.997 565.438 370.718 565.438 370.159 565.438H368.364C367.805 565.438 367.526 565.438 367.312 565.546C367.124 565.642 366.972 565.794 366.876 565.982C366.768 566.195 366.768 566.475 366.768 567.034V568.829C366.768 569.388 366.768 569.667 366.876 569.88C366.972 570.068 367.124 570.221 367.312 570.317C367.525 570.425 367.805 570.425 368.362 570.425L371.755 570.425Z" stroke="#9CA3AF" stroke-width="1.99507" stroke-linecap="round" stroke-linejoin="round"/>
</g>
<g filter="url(#filter2_d_55995_35231)">
<rect x="587.889" y="534.516" width="234.089" height="266.01" rx="10.6404" fill="white"/>
<rect x="603.85" y="550.477" width="39.9015" height="39.9015" rx="5.3202" fill="#F3F4F6"/>
<path d="M627.79 575.413C629.443 575.413 630.783 574.073 630.783 572.42V570.425M630.783 570.425V567.032C630.783 566.474 630.783 566.195 630.674 565.982C630.579 565.794 630.426 565.642 630.238 565.546C630.025 565.438 629.746 565.438 629.187 565.438H627.391C626.833 565.438 626.553 565.438 626.34 565.546C626.152 565.642 626 565.794 625.904 565.982C625.795 566.195 625.795 566.475 625.795 567.034V568.829C625.795 569.388 625.795 569.667 625.904 569.88C626 570.068 626.152 570.221 626.34 570.317C626.553 570.425 626.832 570.425 627.39 570.425L630.783 570.425ZM618.812 575.413C620.465 575.413 621.805 574.073 621.805 572.42L621.805 570.425M621.805 570.425V567.032C621.805 566.474 621.805 566.195 621.696 565.982C621.601 565.794 621.448 565.642 621.26 565.546C621.047 565.438 620.768 565.438 620.209 565.438H618.414C617.855 565.438 617.575 565.438 617.362 565.546C617.174 565.642 617.022 565.794 616.926 565.982C616.817 566.195 616.817 566.475 616.817 567.034V568.829C616.817 569.388 616.817 569.667 616.926 569.88C617.022 570.068 617.174 570.221 617.362 570.317C617.575 570.425 617.854 570.425 618.412 570.425L621.805 570.425Z" stroke="#9CA3AF" stroke-width="1.99507" stroke-linecap="round" stroke-linejoin="round"/>
</g>
</g>
<rect x="1.33498" y="1.38966" width="907.094" height="598.522" rx="10.6404" stroke="#969696" stroke-opacity="0.2" stroke-width="1.33005"/>
<defs>
<filter id="filter0_d_55995_35231" x="77.1496" y="525.205" width="255.37" height="287.289" filterUnits="userSpaceOnUse" color-interpolation-filters="sRGB">
<feFlood flood-opacity="0" result="BackgroundImageFix"/>
<feColorMatrix in="SourceAlpha" type="matrix" values="0 0 0 0 0 0 0 0 0 0 0 0 0 0 0 0 0 0 127 0" result="hardAlpha"/>
<feOffset dy="1.33005"/>
<feGaussianBlur stdDeviation="5.3202"/>
<feComposite in2="hardAlpha" operator="out"/>
<feColorMatrix type="matrix" values="0 0 0 0 0 0 0 0 0 0 0 0 0 0 0 0 0 0 0.1 0"/>
<feBlend mode="normal" in2="BackgroundImageFix" result="effect1_dropShadow_55995_35231"/>
<feBlend mode="normal" in="SourceGraphic" in2="effect1_dropShadow_55995_35231" result="shape"/>
</filter>
<filter id="filter1_d_55995_35231" x="327.198" y="525.205" width="255.37" height="287.289" filterUnits="userSpaceOnUse" color-interpolation-filters="sRGB">
<feFlood flood-opacity="0" result="BackgroundImageFix"/>
<feColorMatrix in="SourceAlpha" type="matrix" values="0 0 0 0 0 0 0 0 0 0 0 0 0 0 0 0 0 0 127 0" result="hardAlpha"/>
<feOffset dy="1.33005"/>
<feGaussianBlur stdDeviation="5.3202"/>
<feComposite in2="hardAlpha" operator="out"/>
<feColorMatrix type="matrix" values="0 0 0 0 0 0 0 0 0 0 0 0 0 0 0 0 0 0 0.1 0"/>
<feBlend mode="normal" in2="BackgroundImageFix" result="effect1_dropShadow_55995_35231"/>
<feBlend mode="normal" in="SourceGraphic" in2="effect1_dropShadow_55995_35231" result="shape"/>
</filter>
<filter id="filter2_d_55995_35231" x="577.248" y="525.205" width="255.37" height="287.289" filterUnits="userSpaceOnUse" color-interpolation-filters="sRGB">
<feFlood flood-opacity="0" result="BackgroundImageFix"/>
<feColorMatrix in="SourceAlpha" type="matrix" values="0 0 0 0 0 0 0 0 0 0 0 0 0 0 0 0 0 0 127 0" result="hardAlpha"/>
<feOffset dy="1.33005"/>
<feGaussianBlur stdDeviation="5.3202"/>
<feComposite in2="hardAlpha" operator="out"/>
<feColorMatrix type="matrix" values="0 0 0 0 0 0 0 0 0 0 0 0 0 0 0 0 0 0 0.1 0"/>
<feBlend mode="normal" in2="BackgroundImageFix" result="effect1_dropShadow_55995_35231"/>
<feBlend mode="normal" in="SourceGraphic" in2="effect1_dropShadow_55995_35231" result="shape"/>
</filter>
<clipPath id="clip0_55995_35231">
<rect x="2" y="2.05469" width="905.764" height="597.192" rx="9.97537" fill="white"/>
</clipPath>
<clipPath id="clip1_55995_35231">
<rect width="147.493" height="26.601" fill="white" transform="translate(381.138 348.602)"/>
</clipPath>
</defs>
</svg>
