<svg width="63" height="63" viewBox="0 0 63 63" fill="none" xmlns="http://www.w3.org/2000/svg">
<path fill-rule="evenodd" clip-rule="evenodd" d="M31.5425 10.3349C30.6852 10.3349 29.9902 11.0299 29.9902 11.8873C29.9902 12.7446 30.6852 13.4396 31.5425 13.4396C32.0021 13.4396 32.4129 13.2425 32.7001 12.9217C32.9471 12.6456 33.0949 12.2862 33.0949 11.8873C33.0949 11.0299 32.3999 10.3349 31.5425 10.3349ZM25.8506 11.8873C25.8506 8.74369 28.399 6.19531 31.5425 6.19531C34.6861 6.19531 37.2345 8.74369 37.2345 11.8873C37.2345 13.3438 36.6847 14.6768 35.7847 15.6824C35.1954 16.3408 34.4525 16.8624 33.6123 17.1907V27.1961L39.1012 23.5891C38.8975 23.0033 38.7869 22.374 38.7869 21.7188C38.7869 18.5753 41.3352 16.0269 44.4788 16.0269C47.6224 16.0269 50.1708 18.5753 50.1708 21.7188C50.1708 23.1753 49.621 24.5083 48.7209 25.514C47.6817 26.6752 46.1648 27.4108 44.4788 27.4108C43.5184 27.4108 42.6135 27.1729 41.8199 26.7529C41.7921 26.7732 41.7637 26.7929 41.7346 26.812L33.6123 32.1495V36.6529L38.1573 41.2021C38.7342 41.7795 38.7337 42.7152 38.1563 43.2921L37.3188 44.1289C36.7414 44.7058 35.8057 44.7053 35.2288 44.1279L21.7446 30.6312C21.0938 30.8902 20.3839 31.033 19.6412 31.033C16.4976 31.033 13.9492 28.4846 13.9492 25.341C13.9492 22.1974 16.4976 19.649 19.6412 19.649C22.7847 19.649 25.3331 22.1974 25.3331 25.341C25.3331 26.2228 25.1316 27.0593 24.7729 27.8053L29.4727 32.5095V17.1912C27.3525 16.3632 25.8506 14.3006 25.8506 11.8873ZM44.4788 20.1665C43.6215 20.1665 42.9265 20.8615 42.9265 21.7188C42.9265 22.5762 43.6215 23.2712 44.4788 23.2712C44.9384 23.2712 45.3492 23.0741 45.6364 22.7532C45.8834 22.4772 46.0312 22.1177 46.0312 21.7188C46.0312 20.8615 45.3362 20.1665 44.4788 20.1665ZM19.6412 23.7886C18.7838 23.7886 18.0888 24.4837 18.0888 25.341C18.0888 26.1983 18.7838 26.8933 19.6412 26.8933C20.1007 26.8933 20.5115 26.6963 20.7987 26.3754C21.0458 26.0994 21.1935 25.7399 21.1935 25.341C21.1935 24.4837 20.4985 23.7886 19.6412 23.7886ZM50.9266 38.888C48.2342 38.1525 45.3152 38.1439 42.5081 38.5502C41.3768 38.714 40.3269 37.9296 40.1631 36.7983C39.9994 35.667 40.7837 34.6171 41.915 34.4533C45.4635 33.9397 49.4534 33.964 53.2182 35.2654V35.2654C53.8196 35.4733 54.2919 35.9462 54.4991 36.5479L58.596 48.4493C59.1107 49.9445 57.8264 51.4413 56.2703 51.1597V51.1597C53.5636 50.6699 49.0756 50.2639 44.5574 50.6522C39.9648 51.0469 35.753 52.2286 33.1938 54.5559C32.4073 55.2712 31.2068 55.2743 30.4166 54.5631C27.8263 52.2318 23.5633 51.053 18.9182 50.663C14.3487 50.2792 9.80962 50.6904 7.0698 51.1811V51.1811C5.51194 51.4601 4.23004 49.9586 4.74997 48.4638L8.88958 36.5624C9.09862 35.9614 9.57248 35.49 10.1745 35.284V35.284C13.9364 33.997 17.9222 33.9573 21.4785 34.4517C22.6107 34.6091 23.401 35.6545 23.2436 36.7867C23.0862 37.919 22.0408 38.7093 20.9085 38.5519C18.0892 38.16 15.1595 38.1789 12.4549 38.913L9.76704 46.6404C12.5215 46.3672 15.8751 46.2532 19.2646 46.5379C23.5758 46.8999 28.2653 47.9315 31.795 50.3865C35.2917 47.9313 39.9352 46.8946 44.2029 46.5278C47.5506 46.2401 50.8631 46.349 53.5879 46.6189L50.9266 38.888Z" fill="#84CC16"/>
</svg>
