<svg width="1260" height="604" viewBox="0 0 1260 604" fill="none" xmlns="http://www.w3.org/2000/svg">
<rect width="1260" height="604" fill="#FFFAFA"/>
<rect x="0.9" y="0.9" width="531.2" height="109.8" rx="8.1" stroke="#BEBEBE" stroke-opacity="0.5" stroke-width="1.8"/>
<path d="M74.7779 72.2139L58.8389 50.2899C64.1309 43.1709 69.4859 36.0519 74.8409 28.9959H82.8419L67.3439 49.4709C72.8249 57.0309 78.3059 64.5909 83.7239 72.2139H74.7779ZM50.3339 72.2139V28.9959H58.0829V72.2139H50.3339ZM89.4466 72.2139V39.7689H96.7546V72.2139H89.4466ZM89.4466 34.4139V27.7989H96.8176V34.4139H89.4466ZM105.501 72.2139V39.7689H112.494V42.6669H112.746C115.518 40.7139 118.857 39.2019 122.637 39.2019C126.354 39.2019 128.874 40.3359 130.323 42.8559H130.701C134.04 40.5879 137.694 39.2019 141.348 39.2019C147.081 39.2019 150.294 41.6589 150.294 48.0849V72.2139H143.112V49.7859C143.112 46.5729 141.852 45.2499 138.135 45.2499C135.993 45.2499 133.851 45.8799 131.394 47.0769C131.457 47.5809 131.52 47.8959 131.52 48.5259V72.2139H124.401V49.7859C124.401 46.5729 123.078 45.2499 119.424 45.2499C117.093 45.2499 114.699 46.0059 112.746 47.0139V72.2139H105.501ZM186.295 72.9699C180.625 72.9699 176.341 71.7729 173.38 70.1979V64.0869C176.845 65.5989 180.94 66.7329 185.665 66.7329C191.461 66.7329 193.918 64.3389 193.918 60.4329C193.918 56.8419 192.343 55.4559 187.618 54.0069L183.523 52.8729C177.412 51.1719 173.695 47.8959 173.695 40.5879C173.695 33.2799 178.42 28.3029 188.185 28.3029C193.855 28.3029 196.942 29.3739 199.336 30.6339V36.6819C196.627 35.5479 193.099 34.5399 188.311 34.5399C183.775 34.5399 181.255 36.4299 181.255 39.8949C181.255 43.2969 182.515 44.7459 186.799 45.9429L190.831 47.2029C197.635 49.1559 201.73 51.9909 201.73 59.6769C201.73 67.8669 196.753 72.9699 186.295 72.9699ZM222.976 72.7809C212.203 72.7809 206.911 66.6699 206.911 56.4009V55.5189C206.911 44.6199 213.526 39.2649 221.779 39.2649C231.355 39.2649 235.513 44.6199 235.513 54.9519V57.9759H214.345C214.786 64.7169 218.251 67.1109 224.425 67.1109C228.583 67.1109 231.607 66.1659 234.442 64.7169V69.7569C232.237 71.2059 228.457 72.7809 222.976 72.7809ZM221.653 44.6199C218.314 44.6199 214.849 46.3839 214.345 52.9989H228.142C228.142 46.8879 225.874 44.6199 221.653 44.6199ZM251.845 72.7809C245.545 72.7809 242.017 69.6939 242.017 63.3309V39.7689H249.262V61.9449C249.262 65.4729 250.522 66.9219 254.554 66.9219C257.389 66.9219 259.72 65.9139 261.799 64.9689V39.7689H269.044V72.2139H262.744L262.114 69.3789H261.799C259.09 71.3319 255.94 72.7809 251.845 72.7809ZM277.521 72.2139V39.7689H284.514V42.6669H284.766C287.538 40.6509 291.507 39.2019 295.413 39.2019C301.65 39.2019 304.863 41.7219 304.863 48.1479V72.2139H297.555V49.8489C297.555 46.5729 296.484 45.2499 292.074 45.2499C289.554 45.2499 286.719 46.0689 284.766 47.0139V72.2139H277.521ZM325.173 81.4119C315.03 81.4119 310.179 78.5139 310.179 73.9149C310.179 70.5759 312.825 68.5599 316.227 67.5519V67.2999C314.274 66.6069 312.825 64.8429 312.825 62.5749C312.825 60.3699 314.274 59.0469 316.605 57.5349C314.148 55.9599 312.51 53.5659 312.51 49.9119V49.3449C312.51 42.6669 317.802 39.2649 325.488 39.2649C327.252 39.2649 328.953 39.4539 330.528 39.7689H341.49V44.5569H336.513C337.584 45.7539 338.151 47.1399 338.151 49.1559V49.5969C338.151 56.5269 332.733 59.5509 325.425 59.5509C323.598 59.5509 321.834 59.4249 320.322 58.9209C319.566 59.5509 319.125 59.7399 319.125 60.5589C319.125 62.1339 320.007 62.7009 322.023 62.7009H330.969C337.143 62.7009 341.49 64.9059 341.49 70.8909C341.49 76.9389 336.576 81.4119 325.173 81.4119ZM325.047 76.4979C331.788 76.4979 334.056 74.7969 334.056 72.0879C334.056 69.5679 332.922 68.8119 329.016 68.8119H320.7C318.747 69.4419 317.361 70.6389 317.361 72.8439C317.361 75.2379 319.44 76.4979 325.047 76.4979ZM325.425 54.8889C329.142 54.8889 331.158 53.5029 331.158 49.9119V49.0929C331.158 45.2499 328.953 43.8639 325.425 43.8639C321.708 43.8639 319.629 45.5649 319.629 48.9669V49.7229C319.629 53.5029 321.834 54.8889 325.425 54.8889ZM371.655 72.2139L360.882 28.9959H368.757L376.128 60.9999H376.317L385.137 28.9959H391.437L400.131 60.9999H400.32L407.754 28.9959H414.747L404.163 72.2139H396.477L388.035 40.8399H387.846L379.278 72.2139H371.655ZM434.231 72.7809C424.34 72.7809 418.859 66.7959 418.859 56.6529V55.6449C418.859 45.2499 425.159 39.2019 434.294 39.2019C443.996 39.2019 449.603 45.1239 449.603 55.4559V56.3379C449.603 66.7959 443.303 72.7809 434.231 72.7809ZM434.357 67.2999C439.208 67.2999 442.043 63.9609 442.043 56.9679V55.3929C442.043 46.9509 438.578 44.6829 434.168 44.6829C429.191 44.6829 426.293 48.1479 426.293 55.1409V56.6529C426.293 65.0319 429.821 67.2999 434.357 67.2999ZM456.308 72.2139V39.7689H463.301V42.6669H463.553C466.325 40.6509 470.294 39.2019 474.2 39.2019C480.437 39.2019 483.65 41.7219 483.65 48.1479V72.2139H476.342V49.8489C476.342 46.5729 475.271 45.2499 470.861 45.2499C468.341 45.2499 465.506 46.0689 463.553 47.0139V72.2139H456.308Z" fill="#1C194A"/>
<rect x="563.9" y="0.9" width="328.2" height="109.8" rx="54.9" stroke="#BEBEBE" stroke-opacity="0.5" stroke-width="1.8"/>
<path d="M613.563 72.2139V28.9959H628.683C638.637 28.9959 642.921 33.0279 642.921 39.8949C642.921 44.4309 641.031 47.7069 635.865 49.3449V49.5339C641.283 50.5419 644.811 53.5659 644.811 59.8659C644.811 67.0479 639.96 72.2139 629.754 72.2139H613.563ZM621.249 66.4179H628.683C633.912 66.4179 636.684 64.1499 636.684 59.4249C636.684 54.4479 633.723 52.5579 628.242 52.5579H621.249V66.4179ZM621.249 47.3919H627.297C631.833 47.3919 635.235 45.8799 635.235 40.9659C635.235 36.3039 632.589 34.7289 627.612 34.7289H621.249V47.3919ZM660 72.7809C654.141 72.7809 650.046 69.8199 650.046 63.5829C650.046 57.5979 654.015 54.8259 660.441 53.8809L668.064 52.9989V50.5419C668.064 46.1319 666.111 45.1239 660.63 45.1239C657.48 45.1239 654.708 45.5649 652.755 46.0059V41.0289C655.779 39.8319 659.244 39.2649 663.465 39.2649C670.962 39.2649 675.309 42.1629 675.309 48.9039V72.2139H669.324L668.757 69.5679H668.379C666.804 71.3949 664.221 72.7809 660 72.7809ZM662.205 67.6779C664.536 67.6779 666.867 66.8589 668.064 65.7249V57.7239L662.079 58.3539C658.866 58.6059 657.165 59.9289 657.165 63.2049C657.165 66.2919 659.244 67.6779 662.205 67.6779ZM697.413 72.7809C687.837 72.7809 681.915 67.4259 681.915 56.7159V55.7079C681.915 44.4939 688.719 39.2019 697.728 39.2019C702.012 39.2019 704.595 40.0209 706.674 41.1549V46.8249C703.965 45.7539 702.012 45.0609 698.169 45.0609C692.751 45.0609 689.412 48.4629 689.412 54.9519V56.4009C689.412 63.8349 692.499 66.9849 698.673 66.9849C702.642 66.9849 705.351 65.7249 706.989 64.9689V70.2609C704.91 71.5839 701.886 72.7809 697.413 72.7809ZM713.273 72.2139V26.1609H720.518V72.2139H713.273ZM732.614 72.2139C732.047 71.3319 721.652 56.2749 721.148 55.4559C721.652 54.5739 731.732 40.6509 732.236 39.8319H739.796C739.166 40.5879 729.212 54.2589 728.708 55.0149C729.275 55.8339 740.048 71.2689 740.615 72.2139H732.614ZM760.488 72.7809C749.715 72.7809 744.423 66.6699 744.423 56.4009V55.5189C744.423 44.6199 751.038 39.2649 759.291 39.2649C768.867 39.2649 773.025 44.6199 773.025 54.9519V57.9759H751.857C752.298 64.7169 755.763 67.1109 761.937 67.1109C766.095 67.1109 769.119 66.1659 771.954 64.7169V69.7569C769.749 71.2059 765.969 72.7809 760.488 72.7809ZM759.165 44.6199C755.826 44.6199 752.361 46.3839 751.857 52.9989H765.654C765.654 46.8879 763.386 44.6199 759.165 44.6199ZM779.719 72.2139V39.7689H786.712V42.6669H786.964C789.736 40.6509 793.705 39.2019 797.611 39.2019C803.848 39.2019 807.061 41.7219 807.061 48.1479V72.2139H799.753V49.8489C799.753 46.5729 798.682 45.2499 794.272 45.2499C791.752 45.2499 788.917 46.0689 786.964 47.0139V72.2139H779.719ZM826.993 72.7809C820.567 72.7809 813.826 68.6859 813.826 56.9679V56.1489C813.826 44.2419 819.874 39.2019 828.316 39.2019C832.096 39.2019 834.553 40.2099 836.065 41.0289V26.1609H843.247V72.2139H837.073L836.443 69.6309H836.191C834.175 71.5209 831.151 72.7809 826.993 72.7809ZM829.513 67.1739C832.537 67.1739 834.805 65.9139 836.065 64.9689V46.5099C834.868 45.5649 832.348 44.8089 829.45 44.8089C824.41 44.8089 821.26 47.4549 821.26 55.4559V56.6529C821.26 64.7169 824.599 67.1739 829.513 67.1739Z" fill="#1C194A"/>
<rect x="923.9" y="0.9" width="335.2" height="109.8" rx="8.1" stroke="#BEBEBE" stroke-opacity="0.5" stroke-width="1.8"/>
<path d="M973.372 72.2139V28.9959H988.492C998.635 28.9959 1003.74 33.7209 1003.74 42.2889C1003.74 51.2979 998.005 56.0229 988.996 56.0229H981.121V72.2139H973.372ZM981.121 50.2269H987.547C993.406 50.2269 995.611 47.7699 995.611 42.7299C995.611 37.0599 993.406 34.9809 987.673 34.9809H981.121V50.2269ZM1023.63 72.7809C1013.74 72.7809 1008.25 66.7959 1008.25 56.6529V55.6449C1008.25 45.2499 1014.55 39.2019 1023.69 39.2019C1033.39 39.2019 1039 45.1239 1039 55.4559V56.3379C1039 66.7959 1032.7 72.7809 1023.63 72.7809ZM1023.75 67.2999C1028.6 67.2999 1031.44 63.9609 1031.44 56.9679V55.3929C1031.44 46.9509 1027.97 44.6829 1023.56 44.6829C1018.59 44.6829 1015.69 48.1479 1015.69 55.1409V56.6529C1015.69 65.0319 1019.22 67.2999 1023.75 67.2999ZM1045.7 72.2139V39.7689H1052.7V43.5489H1052.95C1054.71 41.2179 1058.05 39.5169 1061.45 39.5169C1062.34 39.5169 1063.15 39.5799 1063.47 39.7059V46.1319C1062.65 46.0059 1061.58 45.9429 1060.82 45.9429C1057.93 45.9429 1055.03 46.7619 1052.95 48.0849V72.2139H1045.7ZM1081.16 72.5919C1075.55 72.5919 1071.96 70.3239 1071.96 64.2129V45.4389H1067.42V39.7689H1071.96V32.1459H1079.08V39.7689H1086.83V45.4389H1079.08V63.2049C1079.08 65.9139 1080.08 66.9219 1083.49 66.9219C1084.75 66.9219 1086.07 66.7329 1087.2 66.4179V71.2689C1085.94 71.8989 1084.18 72.5919 1081.16 72.5919ZM1095.22 72.2139V45.4389H1090.55V39.7689H1095.22V35.7369C1095.22 28.7439 1099.56 25.6569 1105.67 25.6569C1108.57 25.6569 1110.59 26.1609 1111.79 26.6649V31.5159C1110.9 31.3269 1109.52 31.0749 1107.63 31.0749C1104.23 31.0749 1102.34 32.6499 1102.34 36.4929V39.7689H1109.45V45.4389H1102.34V72.2139H1095.22ZM1128.95 72.7809C1119.06 72.7809 1113.58 66.7959 1113.58 56.6529V55.6449C1113.58 45.2499 1119.88 39.2019 1129.02 39.2019C1138.72 39.2019 1144.33 45.1239 1144.33 55.4559V56.3379C1144.33 66.7959 1138.03 72.7809 1128.95 72.7809ZM1129.08 67.2999C1133.93 67.2999 1136.77 63.9609 1136.77 56.9679V55.3929C1136.77 46.9509 1133.3 44.6829 1128.89 44.6829C1123.91 44.6829 1121.02 48.1479 1121.02 55.1409V56.6529C1121.02 65.0319 1124.54 67.2999 1129.08 67.2999ZM1151.16 72.2139V26.1609H1158.47V72.2139H1151.16ZM1167.34 72.2139V39.7689H1174.65V72.2139H1167.34ZM1167.34 34.4139V27.7989H1174.71V34.4139H1167.34ZM1196.94 72.7809C1187.05 72.7809 1181.57 66.7959 1181.57 56.6529V55.6449C1181.57 45.2499 1187.87 39.2019 1197 39.2019C1206.7 39.2019 1212.31 45.1239 1212.31 55.4559V56.3379C1212.31 66.7959 1206.01 72.7809 1196.94 72.7809ZM1197.06 67.2999C1201.92 67.2999 1204.75 63.9609 1204.75 56.9679V55.3929C1204.75 46.9509 1201.29 44.6829 1196.88 44.6829C1191.9 44.6829 1189 48.1479 1189 55.1409V56.6529C1189 65.0319 1192.53 67.2999 1197.06 67.2999Z" fill="#1C194A"/>
<rect y="142" width="93" height="93" rx="46.5" fill="#B7B4CB"/>
<rect x="0.75" y="142.75" width="91.5" height="91.5" rx="45.75" stroke="#BEBEBE" stroke-opacity="0.5" stroke-width="1.5"/>
<path d="M38.1006 202.557V172.947L32.0631 174.155V170.375L41.1981 166.28H44.6106V202.557H38.1006ZM53.1681 203.187V197.045H59.5731V203.187H53.1681Z" fill="#1C194A"/>
<rect x="123" y="142" width="351" height="93" rx="7.5" fill="#B7B4CB"/>
<rect x="123.75" y="142.75" width="349.5" height="91.5" rx="6.75" stroke="#BEBEBE" stroke-opacity="0.5" stroke-width="1.5"/>
<path d="M173.779 202.977C169.054 202.977 165.484 201.98 163.017 200.667V195.575C165.904 196.835 169.317 197.78 173.254 197.78C178.084 197.78 180.132 195.785 180.132 192.53C180.132 189.537 178.819 188.382 174.882 187.175L171.469 186.23C166.377 184.812 163.279 182.082 163.279 175.992C163.279 169.902 167.217 165.755 175.354 165.755C180.079 165.755 182.652 166.647 184.647 167.697V172.737C182.389 171.792 179.449 170.952 175.459 170.952C171.679 170.952 169.579 172.527 169.579 175.415C169.579 178.25 170.629 179.457 174.199 180.455L177.559 181.505C183.229 183.132 186.642 185.495 186.642 191.9C186.642 198.725 182.494 202.977 173.779 202.977ZM192.481 210.17V175.31H198.309V177.62H198.519C200.146 175.992 202.929 174.838 206.341 174.838C211.959 174.838 217.051 178.092 217.051 188.015V188.697C217.051 198.83 212.169 202.82 204.819 202.82C201.826 202.82 199.831 202.032 198.519 201.297V210.17H192.481ZM203.979 198.252C208.284 198.252 210.751 196.047 210.751 189.485V188.382C210.751 181.715 208.441 179.772 204.189 179.772C201.616 179.772 199.569 180.612 198.519 181.347V196.677C199.569 197.517 201.616 198.252 203.979 198.252ZM222.782 202.347V175.31H228.609V178.46H228.819C230.289 176.517 233.072 175.1 235.907 175.1C236.642 175.1 237.324 175.152 237.587 175.257V180.612C236.904 180.507 236.012 180.455 235.382 180.455C232.967 180.455 230.552 181.137 228.819 182.24V202.347H222.782ZM242.677 202.347V175.31H248.767V202.347H242.677ZM242.677 170.847V165.335H248.819V170.847H242.677ZM256.056 202.347V175.31H261.883V177.725H262.093C264.403 176.045 267.711 174.838 270.966 174.838C276.163 174.838 278.841 176.937 278.841 182.292V202.347H272.751V183.71C272.751 180.98 271.858 179.877 268.183 179.877C266.083 179.877 263.721 180.56 262.093 181.347V202.347H256.056ZM295.766 210.013C287.313 210.013 283.271 207.598 283.271 203.765C283.271 200.982 285.476 199.302 288.311 198.462V198.252C286.683 197.675 285.476 196.205 285.476 194.315C285.476 192.477 286.683 191.375 288.626 190.115C286.578 188.802 285.213 186.807 285.213 183.762V183.29C285.213 177.725 289.623 174.89 296.028 174.89C297.498 174.89 298.916 175.047 300.228 175.31H309.363V179.3H305.216C306.108 180.297 306.581 181.452 306.581 183.132V183.5C306.581 189.275 302.066 191.795 295.976 191.795C294.453 191.795 292.983 191.69 291.723 191.27C291.093 191.795 290.726 191.952 290.726 192.635C290.726 193.947 291.461 194.42 293.141 194.42H300.596C305.741 194.42 309.363 196.257 309.363 201.245C309.363 206.285 305.268 210.013 295.766 210.013ZM295.661 205.918C301.278 205.918 303.168 204.5 303.168 202.242C303.168 200.142 302.223 199.512 298.968 199.512H292.038C290.411 200.037 289.256 201.035 289.256 202.872C289.256 204.868 290.988 205.918 295.661 205.918ZM295.976 187.91C299.073 187.91 300.753 186.755 300.753 183.762V183.08C300.753 179.877 298.916 178.722 295.976 178.722C292.878 178.722 291.146 180.14 291.146 182.975V183.605C291.146 186.755 292.983 187.91 295.976 187.91ZM328.515 202.347V166.332H341.115C349.41 166.332 352.98 169.692 352.98 175.415C352.98 179.195 351.405 181.925 347.1 183.29V183.447C351.615 184.287 354.555 186.807 354.555 192.057C354.555 198.042 350.513 202.347 342.008 202.347H328.515ZM334.92 197.517H341.115C345.473 197.517 347.783 195.627 347.783 191.69C347.783 187.542 345.315 185.967 340.748 185.967H334.92V197.517ZM334.92 181.662H339.96C343.74 181.662 346.575 180.402 346.575 176.307C346.575 172.422 344.37 171.11 340.223 171.11H334.92V181.662ZM371.728 202.82C363.485 202.82 358.918 197.832 358.918 189.38V188.54C358.918 179.877 364.168 174.838 371.78 174.838C379.865 174.838 384.538 179.772 384.538 188.382V189.117C384.538 197.832 379.288 202.82 371.728 202.82ZM371.833 198.252C375.875 198.252 378.238 195.47 378.238 189.642V188.33C378.238 181.295 375.35 179.405 371.675 179.405C367.528 179.405 365.113 182.292 365.113 188.12V189.38C365.113 196.362 368.053 198.252 371.833 198.252ZM401.413 202.82C393.17 202.82 388.603 197.832 388.603 189.38V188.54C388.603 179.877 393.853 174.838 401.465 174.838C409.55 174.838 414.223 179.772 414.223 188.382V189.117C414.223 197.832 408.973 202.82 401.413 202.82ZM401.518 198.252C405.56 198.252 407.923 195.47 407.923 189.642V188.33C407.923 181.295 405.035 179.405 401.36 179.405C397.213 179.405 394.798 182.292 394.798 188.12V189.38C394.798 196.362 397.738 198.252 401.518 198.252ZM429.05 202.662C424.378 202.662 421.385 200.772 421.385 195.68V180.035H417.605V175.31H421.385V168.957H427.318V175.31H433.775V180.035H427.318V194.84C427.318 197.097 428.158 197.938 430.993 197.938C432.043 197.938 433.145 197.78 434.09 197.517V201.56C433.04 202.085 431.57 202.662 429.05 202.662Z" fill="#1C194A"/>
<rect x="504" y="142" width="443" height="93" rx="46.5" fill="#B7B4CB"/>
<rect x="504.75" y="142.75" width="441.5" height="91.5" rx="45.75" stroke="#BEBEBE" stroke-opacity="0.5" stroke-width="1.5"/>
<path d="M554.355 202.977C549.63 202.977 546.06 201.98 543.592 200.667V195.575C546.48 196.835 549.892 197.78 553.83 197.78C558.66 197.78 560.707 195.785 560.707 192.53C560.707 189.537 559.395 188.382 555.457 187.175L552.045 186.23C546.952 184.812 543.855 182.082 543.855 175.992C543.855 169.902 547.792 165.755 555.93 165.755C560.655 165.755 563.227 166.647 565.222 167.697V172.737C562.965 171.792 560.025 170.952 556.035 170.952C552.255 170.952 550.155 172.527 550.155 175.415C550.155 178.25 551.205 179.457 554.775 180.455L558.135 181.505C563.805 183.132 567.217 185.495 567.217 191.9C567.217 198.725 563.07 202.977 554.355 202.977ZM573.057 210.17V175.31H578.884V177.62H579.094C580.722 175.992 583.504 174.838 586.917 174.838C592.534 174.838 597.627 178.092 597.627 188.015V188.697C597.627 198.83 592.744 202.82 585.394 202.82C582.402 202.82 580.407 202.032 579.094 201.297V210.17H573.057ZM584.554 198.252C588.859 198.252 591.327 196.047 591.327 189.485V188.382C591.327 181.715 589.017 179.772 584.764 179.772C582.192 179.772 580.144 180.612 579.094 181.347V196.677C580.144 197.517 582.192 198.252 584.554 198.252ZM603.357 202.347V175.31H609.185V178.46H609.395C610.865 176.517 613.647 175.1 616.482 175.1C617.217 175.1 617.9 175.152 618.162 175.257V180.612C617.48 180.507 616.587 180.455 615.957 180.455C613.542 180.455 611.127 181.137 609.395 182.24V202.347H603.357ZM623.252 202.347V175.31H629.342V202.347H623.252ZM623.252 170.847V165.335H629.395V170.847H623.252ZM636.631 202.347V175.31H642.459V177.725H642.669C644.979 176.045 648.286 174.838 651.541 174.838C656.739 174.838 659.416 176.937 659.416 182.292V202.347H653.326V183.71C653.326 180.98 652.434 179.877 648.759 179.877C646.659 179.877 644.296 180.56 642.669 181.347V202.347H636.631ZM676.341 210.013C667.889 210.013 663.846 207.598 663.846 203.765C663.846 200.982 666.051 199.302 668.886 198.462V198.252C667.259 197.675 666.051 196.205 666.051 194.315C666.051 192.477 667.259 191.375 669.201 190.115C667.154 188.802 665.789 186.807 665.789 183.762V183.29C665.789 177.725 670.199 174.89 676.604 174.89C678.074 174.89 679.491 175.047 680.804 175.31H689.939V179.3H685.791C686.684 180.297 687.156 181.452 687.156 183.132V183.5C687.156 189.275 682.641 191.795 676.551 191.795C675.029 191.795 673.559 191.69 672.299 191.27C671.669 191.795 671.301 191.952 671.301 192.635C671.301 193.947 672.036 194.42 673.716 194.42H681.171C686.316 194.42 689.939 196.257 689.939 201.245C689.939 206.285 685.844 210.013 676.341 210.013ZM676.236 205.918C681.854 205.918 683.744 204.5 683.744 202.242C683.744 200.142 682.799 199.512 679.544 199.512H672.614C670.986 200.037 669.831 201.035 669.831 202.872C669.831 204.868 671.564 205.918 676.236 205.918ZM676.551 187.91C679.649 187.91 681.329 186.755 681.329 183.762V183.08C681.329 179.877 679.491 178.722 676.551 178.722C673.454 178.722 671.721 180.14 671.721 182.975V183.605C671.721 186.755 673.559 187.91 676.551 187.91ZM715.076 202.347L706.098 166.332H712.661L718.803 193.002H718.961L726.311 166.332H731.561L738.806 193.002H738.963L745.158 166.332H750.986L742.166 202.347H735.761L728.726 176.202H728.568L721.428 202.347H715.076ZM767.8 202.82C758.823 202.82 754.413 197.727 754.413 189.17V188.435C754.413 179.352 759.925 174.89 766.803 174.89C774.783 174.89 778.248 179.352 778.248 187.962V190.482H760.608C760.975 196.1 763.863 198.095 769.008 198.095C772.473 198.095 774.993 197.307 777.355 196.1V200.3C775.518 201.507 772.368 202.82 767.8 202.82ZM766.698 179.352C763.915 179.352 761.028 180.822 760.608 186.335H772.105C772.105 181.242 770.215 179.352 766.698 179.352ZM794.378 202.925C790.756 202.925 786.346 202.347 783.826 201.35V163.97H789.863V177.147H790.126C792.121 175.835 794.536 174.838 798.106 174.838C803.146 174.838 808.396 177.935 808.396 187.91V188.54C808.396 198.095 803.513 202.925 794.378 202.925ZM794.746 198.305C798.683 198.305 802.096 196.467 802.096 189.432V188.382C802.096 181.82 799.943 179.772 795.271 179.772C793.013 179.772 790.966 180.56 789.863 181.085V197.517C790.913 197.885 792.436 198.305 794.746 198.305ZM814.809 202.347V166.332H836.911V171.425H821.266V182.187H833.446V187.175H821.266V202.347H814.809ZM842.737 202.347V163.97H848.827V202.347H842.737ZM864.148 202.82C858.898 202.82 855.958 200.247 855.958 194.945V175.31H861.996V193.79C861.996 196.73 863.046 197.938 866.406 197.938C868.768 197.938 870.711 197.097 872.443 196.31V175.31H878.481V202.347H873.231L872.706 199.985H872.443C870.186 201.612 867.561 202.82 864.148 202.82ZM883.025 202.347L891.845 188.487L883.497 175.31H890.48L896.202 184.655L901.4 175.31H907.647L899.667 188.435L908.382 202.347H901.295L895.362 192.53L889.325 202.347H883.025Z" fill="#1C194A"/>
<rect x="978" y="142" width="248" height="93" rx="7.5" fill="#B7B4CB"/>
<rect x="978.75" y="142.75" width="246.5" height="91.5" rx="6.75" stroke="#BEBEBE" stroke-opacity="0.5" stroke-width="1.5"/>
<path d="M1020.09 202.347V166.332H1027.34L1042.3 191.742H1042.46V166.332H1048.18V202.347H1041.78L1025.97 175.205H1025.82V202.347H1020.09ZM1067.83 202.82C1058.85 202.82 1054.44 197.727 1054.44 189.17V188.435C1054.44 179.352 1059.96 174.89 1066.83 174.89C1074.81 174.89 1078.28 179.352 1078.28 187.962V190.482H1060.64C1061.01 196.1 1063.89 198.095 1069.04 198.095C1072.5 198.095 1075.02 197.307 1077.39 196.1V200.3C1075.55 201.507 1072.4 202.82 1067.83 202.82ZM1066.73 179.352C1063.95 179.352 1061.06 180.822 1060.64 186.335H1072.14C1072.14 181.242 1070.25 179.352 1066.73 179.352ZM1091.26 202.768C1087.74 202.768 1084.59 202.137 1082.33 200.93V196.52C1084.59 197.412 1086.59 198.2 1090.37 198.2C1094.15 198.2 1095.72 196.94 1095.72 194.945C1095.72 193.002 1094.67 192.057 1091.73 191.427L1089.21 190.85C1085.06 190.01 1082.33 187.91 1082.33 183.08C1082.33 178.092 1085.54 174.89 1092.36 174.89C1096.04 174.89 1098.35 175.573 1100.13 176.36V180.927C1098.56 180.245 1095.93 179.457 1092.89 179.457C1089.74 179.457 1088.06 180.507 1088.06 182.607C1088.06 184.497 1089.11 185.18 1091.68 185.81L1094.25 186.387C1099.55 187.595 1101.6 189.695 1101.6 194.367C1101.6 199.985 1097.87 202.768 1091.26 202.768ZM1116.48 202.662C1111.8 202.662 1108.81 200.772 1108.81 195.68V180.035H1105.03V175.31H1108.81V168.957H1114.74V175.31H1121.2V180.035H1114.74V194.84C1114.74 197.097 1115.58 197.938 1118.42 197.938C1119.47 197.938 1120.57 197.78 1121.52 197.517V201.56C1120.47 202.085 1119 202.662 1116.48 202.662ZM1126.87 203.187V197.045H1133.27V203.187H1126.87ZM1145.72 202.662C1142.41 202.662 1140.36 202.137 1138.52 201.192V196.415C1139.94 196.887 1141.94 197.412 1144.35 197.412C1147.92 197.412 1149.71 195.627 1149.71 192.005V166.332H1156.27V192.53C1156.27 198.305 1153.01 202.662 1145.72 202.662ZM1173.03 202.977C1168.3 202.977 1164.73 201.98 1162.26 200.667V195.575C1165.15 196.835 1168.56 197.78 1172.5 197.78C1177.33 197.78 1179.38 195.785 1179.38 192.53C1179.38 189.537 1178.07 188.382 1174.13 187.175L1170.72 186.23C1165.62 184.812 1162.53 182.082 1162.53 175.992C1162.53 169.902 1166.46 165.755 1174.6 165.755C1179.33 165.755 1181.9 166.647 1183.89 167.697V172.737C1181.64 171.792 1178.7 170.952 1174.71 170.952C1170.93 170.952 1168.83 172.527 1168.83 175.415C1168.83 178.25 1169.88 179.457 1173.45 180.455L1176.81 181.505C1182.48 183.132 1185.89 185.495 1185.89 191.9C1185.89 198.725 1181.74 202.977 1173.03 202.977Z" fill="#1C194A"/>
<rect y="265" width="93" height="93" rx="7.5" fill="#8B88AA"/>
<rect x="0.75" y="265.75" width="91.5" height="91.5" rx="6.75" stroke="#BEBEBE" stroke-opacity="0.5" stroke-width="1.5"/>
<path d="M28.594 325.347V321.567L35.4715 314.322C40.459 309.072 44.449 304.61 44.449 300.095C44.449 295.737 42.0865 294.057 37.519 294.057C34.999 294.057 32.059 295.265 30.064 296.472L29.014 291.695C31.429 290.277 35.104 288.965 39.2515 288.965C47.1265 288.965 51.169 292.745 51.169 299.255C51.169 305.66 45.709 311.382 41.299 315.95L37.0465 320.307H51.484V325.347H28.594ZM57.3722 326.187V320.045H63.7772V326.187H57.3722Z" fill="#1C194A"/>
<rect x="123" y="265" width="178" height="93" rx="46.5" fill="#8B88AA"/>
<rect x="123.75" y="265.75" width="176.5" height="91.5" rx="45.75" stroke="#BEBEBE" stroke-opacity="0.5" stroke-width="1.5"/>
<path d="M169.839 325.662C166.531 325.662 164.484 325.137 162.646 324.192V319.415C164.064 319.887 166.059 320.412 168.474 320.412C172.044 320.412 173.829 318.627 173.829 315.005V289.332H180.391V315.53C180.391 321.305 177.136 325.662 169.839 325.662ZM194.17 325.82C189.287 325.82 185.875 323.352 185.875 318.155C185.875 313.167 189.182 310.857 194.537 310.07L200.89 309.335V307.287C200.89 303.612 199.262 302.772 194.695 302.772C192.07 302.772 189.76 303.14 188.132 303.507V299.36C190.652 298.362 193.54 297.89 197.057 297.89C203.305 297.89 206.927 300.305 206.927 305.922V325.347H201.94L201.467 323.142H201.152C199.84 324.665 197.687 325.82 194.17 325.82ZM196.007 321.567C197.95 321.567 199.892 320.885 200.89 319.94V313.272L195.902 313.797C193.225 314.008 191.807 315.11 191.807 317.84C191.807 320.412 193.54 321.567 196.007 321.567ZM220.792 325.347L210.975 298.31H217.432L223.995 318.05H224.257L230.872 298.31H236.7L226.935 325.347H220.792ZM247.029 325.82C242.146 325.82 238.734 323.352 238.734 318.155C238.734 313.167 242.041 310.857 247.396 310.07L253.749 309.335V307.287C253.749 303.612 252.121 302.772 247.554 302.772C244.929 302.772 242.619 303.14 240.991 303.507V299.36C243.511 298.362 246.399 297.89 249.916 297.89C256.164 297.89 259.786 300.305 259.786 305.922V325.347H254.799L254.326 323.142H254.011C252.699 324.665 250.546 325.82 247.029 325.82ZM248.866 321.567C250.809 321.567 252.751 320.885 253.749 319.94V313.272L248.761 313.797C246.084 314.008 244.666 315.11 244.666 317.84C244.666 320.412 246.399 321.567 248.866 321.567Z" fill="#1C194A"/>
<rect x="331.5" y="265" width="215" height="93" rx="7.5" fill="#8B88AA"/>
<rect x="332.25" y="265.75" width="213.5" height="91.5" rx="6.75" stroke="#BEBEBE" stroke-opacity="0.5" stroke-width="1.5"/>
<path d="M393.922 325.347L380.639 307.077C385.049 301.145 389.512 295.212 393.974 289.332H400.642L387.727 306.395C392.294 312.695 396.862 318.995 401.377 325.347H393.922ZM373.552 325.347V289.332H380.009V325.347H373.552ZM417.328 325.82C409.085 325.82 404.518 320.832 404.518 312.38V311.54C404.518 302.877 409.768 297.838 417.38 297.838C425.465 297.838 430.138 302.772 430.138 311.382V312.117C430.138 320.832 424.888 325.82 417.328 325.82ZM417.433 321.252C421.475 321.252 423.838 318.47 423.838 312.642V311.33C423.838 304.295 420.95 302.405 417.275 302.405C413.128 302.405 410.713 305.292 410.713 311.12V312.38C410.713 319.362 413.653 321.252 417.433 321.252ZM444.966 325.662C440.293 325.662 437.301 323.772 437.301 318.68V303.035H433.521V298.31H437.301V291.957H443.233V298.31H449.691V303.035H443.233V317.84C443.233 320.097 444.073 320.938 446.908 320.938C447.958 320.938 449.061 320.78 450.006 320.517V324.56C448.956 325.085 447.486 325.662 444.966 325.662ZM455.621 325.347V286.97H461.711V325.347H455.621ZM469.104 325.347V298.31H475.194V325.347H469.104ZM469.104 293.847V288.335H475.247V293.847H469.104ZM482.483 325.347V298.31H488.311V300.725H488.521C490.831 299.045 494.138 297.838 497.393 297.838C502.591 297.838 505.268 299.937 505.268 305.292V325.347H499.178V306.71C499.178 303.98 498.286 302.877 494.611 302.877C492.511 302.877 490.148 303.56 488.521 304.347V325.347H482.483Z" fill="#1C194A"/>
<rect x="576" y="265" width="341" height="93" rx="46.5" fill="#8B88AA"/>
<rect x="576.75" y="265.75" width="339.5" height="91.5" rx="45.75" stroke="#BEBEBE" stroke-opacity="0.5" stroke-width="1.5"/>
<path d="M625.549 325.347V294.425H615.206V289.332H642.244V294.425H632.006V325.347H625.549ZM650.449 333.118C649.084 333.118 647.299 332.75 646.511 332.225V328.183C647.194 328.34 648.191 328.445 649.136 328.445C651.604 328.445 653.231 327.815 654.176 325.242L654.911 323.352L644.726 298.31H651.131L657.956 315.845H658.166L664.466 298.31H670.294L659.846 326.082C658.061 331.228 655.436 333.118 650.449 333.118ZM674.883 333.17V298.31H680.711V300.62H680.921C682.548 298.992 685.331 297.838 688.743 297.838C694.361 297.838 699.453 301.092 699.453 311.015V311.697C699.453 321.83 694.571 325.82 687.221 325.82C684.228 325.82 682.233 325.032 680.921 324.297V333.17H674.883ZM686.381 321.252C690.686 321.252 693.153 319.047 693.153 312.485V311.382C693.153 304.715 690.843 302.772 686.591 302.772C684.018 302.772 681.971 303.612 680.921 304.347V319.677C681.971 320.517 684.018 321.252 686.381 321.252ZM717.049 325.82C708.071 325.82 703.661 320.727 703.661 312.17V311.435C703.661 302.352 709.174 297.89 716.051 297.89C724.031 297.89 727.496 302.352 727.496 310.962V313.482H709.856C710.224 319.1 713.111 321.095 718.256 321.095C721.721 321.095 724.241 320.307 726.604 319.1V323.3C724.766 324.507 721.616 325.82 717.049 325.82ZM715.946 302.352C713.164 302.352 710.276 303.822 709.856 309.335H721.354C721.354 304.242 719.464 302.352 715.946 302.352ZM756.106 325.977C751.381 325.977 747.811 324.98 745.343 323.667V318.575C748.231 319.835 751.643 320.78 755.581 320.78C760.411 320.78 762.458 318.785 762.458 315.53C762.458 312.537 761.146 311.382 757.208 310.175L753.796 309.23C748.703 307.812 745.606 305.082 745.606 298.992C745.606 292.902 749.543 288.755 757.681 288.755C762.406 288.755 764.978 289.647 766.973 290.697V295.737C764.716 294.792 761.776 293.952 757.786 293.952C754.006 293.952 751.906 295.527 751.906 298.415C751.906 301.25 752.956 302.457 756.526 303.455L759.886 304.505C765.556 306.132 768.968 308.495 768.968 314.9C768.968 321.725 764.821 325.977 756.106 325.977ZM786.2 325.82C778.22 325.82 773.285 321.357 773.285 312.432V311.592C773.285 302.247 778.955 297.838 786.463 297.838C790.033 297.838 792.185 298.52 793.918 299.465V304.19C791.66 303.297 790.033 302.72 786.83 302.72C782.315 302.72 779.533 305.555 779.533 310.962V312.17C779.533 318.365 782.105 320.99 787.25 320.99C790.558 320.99 792.815 319.94 794.18 319.31V323.72C792.448 324.822 789.928 325.82 786.2 325.82ZM799.417 325.347V298.31H805.244V301.46H805.454C806.924 299.517 809.707 298.1 812.542 298.1C813.277 298.1 813.959 298.152 814.222 298.257V303.612C813.539 303.507 812.647 303.455 812.017 303.455C809.602 303.455 807.187 304.137 805.454 305.24V325.347H799.417ZM819.312 325.347V298.31H825.402V325.347H819.312ZM819.312 293.847V288.335H825.454V293.847H819.312ZM832.691 333.17V298.31H838.518V300.62H838.728C840.356 298.992 843.138 297.838 846.551 297.838C852.168 297.838 857.261 301.092 857.261 311.015V311.697C857.261 321.83 852.378 325.82 845.028 325.82C842.036 325.82 840.041 325.032 838.728 324.297V333.17H832.691ZM844.188 321.252C848.493 321.252 850.961 319.047 850.961 312.485V311.382C850.961 304.715 848.651 302.772 844.398 302.772C841.826 302.772 839.778 303.612 838.728 304.347V319.677C839.778 320.517 841.826 321.252 844.188 321.252ZM872.231 325.662C867.559 325.662 864.566 323.772 864.566 318.68V303.035H860.786V298.31H864.566V291.957H870.499V298.31H876.956V303.035H870.499V317.84C870.499 320.097 871.339 320.938 874.174 320.938C875.224 320.938 876.326 320.78 877.271 320.517V324.56C876.221 325.085 874.751 325.662 872.231 325.662Z" fill="#1C194A"/>
<rect y="388" width="93" height="93" rx="46.5" fill="#615F8C"/>
<rect x="0.75" y="388.75" width="91.5" height="91.5" rx="45.75" stroke="#BEBEBE" stroke-opacity="0.5" stroke-width="1.5"/>
<path d="M38.2284 448.872C33.9234 448.872 29.7234 447.665 27.6759 446.352L28.7259 441.68C30.5634 442.835 34.4484 443.727 37.1259 443.727C41.9559 443.727 44.7909 441.732 44.7909 437.69C44.7909 433.857 41.9034 432.282 37.3359 432.23L33.6084 432.125V427.452L36.9159 427.4C41.0634 427.295 43.8459 425.405 43.8459 422.045C43.8459 418.422 41.3784 417.11 37.4409 417.11C34.7634 417.11 31.9284 418.002 29.7759 419L29.0409 414.222C31.2459 412.962 35.6034 411.965 39.1209 411.965C45.7884 411.965 50.3034 415.115 50.3034 420.89C50.3034 425.195 47.7834 427.925 43.8459 429.29C48.3609 430.182 51.5109 432.755 51.5109 438.11C51.5109 444.725 46.4184 448.872 38.2284 448.872ZM57.3979 449.187V443.045H63.8029V449.187H57.3979Z" fill="#1C194A"/>
<rect x="123" y="388" width="305" height="93" rx="7.5" fill="#615F8C"/>
<rect x="123.75" y="388.75" width="303.5" height="91.5" rx="6.75" stroke="#BEBEBE" stroke-opacity="0.5" stroke-width="1.5"/>
<path d="M164.806 448.347V412.332H173.889L182.656 439.475H182.814L191.581 412.332H200.611V448.347H194.154V420.365H193.944L184.914 448.347H179.611L170.634 420.365H170.476V448.347H164.806ZM219.657 448.82C211.414 448.82 206.847 443.832 206.847 435.38V434.54C206.847 425.877 212.097 420.838 219.709 420.838C227.794 420.838 232.467 425.772 232.467 434.382V435.117C232.467 443.832 227.217 448.82 219.657 448.82ZM219.762 444.252C223.804 444.252 226.167 441.47 226.167 435.642V434.33C226.167 427.295 223.279 425.405 219.604 425.405C215.457 425.405 213.042 428.292 213.042 434.12V435.38C213.042 442.362 215.982 444.252 219.762 444.252ZM238.054 448.347V421.31H243.882V423.725H244.092C246.402 422.045 249.709 420.838 252.964 420.838C258.162 420.838 260.839 422.937 260.839 428.292V448.347H254.749V429.71C254.749 426.98 253.857 425.877 250.182 425.877C248.082 425.877 245.719 426.56 244.092 427.347V448.347H238.054ZM277.764 456.013C269.312 456.013 265.269 453.598 265.269 449.765C265.269 446.982 267.474 445.302 270.309 444.462V444.252C268.682 443.675 267.474 442.205 267.474 440.315C267.474 438.477 268.682 437.375 270.624 436.115C268.577 434.802 267.212 432.807 267.212 429.762V429.29C267.212 423.725 271.622 420.89 278.027 420.89C279.497 420.89 280.914 421.047 282.227 421.31H291.362V425.3H287.214C288.107 426.297 288.579 427.452 288.579 429.132V429.5C288.579 435.275 284.064 437.795 277.974 437.795C276.452 437.795 274.982 437.69 273.722 437.27C273.092 437.795 272.724 437.952 272.724 438.635C272.724 439.947 273.459 440.42 275.139 440.42H282.594C287.739 440.42 291.362 442.257 291.362 447.245C291.362 452.285 287.267 456.013 277.764 456.013ZM277.659 451.918C283.277 451.918 285.167 450.5 285.167 448.242C285.167 446.142 284.222 445.512 280.967 445.512H274.037C272.409 446.037 271.254 447.035 271.254 448.872C271.254 450.868 272.987 451.918 277.659 451.918ZM277.974 433.91C281.072 433.91 282.752 432.755 282.752 429.762V429.08C282.752 425.877 280.914 424.722 277.974 424.722C274.877 424.722 273.144 426.14 273.144 428.975V429.605C273.144 432.755 274.982 433.91 277.974 433.91ZM307.328 448.82C299.085 448.82 294.518 443.832 294.518 435.38V434.54C294.518 425.877 299.768 420.838 307.38 420.838C315.465 420.838 320.138 425.772 320.138 434.382V435.117C320.138 443.832 314.888 448.82 307.328 448.82ZM307.433 444.252C311.475 444.252 313.838 441.47 313.838 435.642V434.33C313.838 427.295 310.95 425.405 307.275 425.405C303.128 425.405 300.713 428.292 300.713 434.12V435.38C300.713 442.362 303.653 444.252 307.433 444.252ZM326.408 448.347V412.332H338.22C349.245 412.332 355.44 417.635 355.44 429.395V430.445C355.44 441.995 349.823 448.347 338.273 448.347H326.408ZM332.865 443.255H338.325C345.36 443.255 348.615 439.79 348.615 431.075V429.342C348.615 420.26 344.678 417.425 337.853 417.425H332.865V443.255ZM362.091 448.347V412.332H374.691C382.986 412.332 386.556 415.692 386.556 421.415C386.556 425.195 384.981 427.925 380.676 429.29V429.447C385.191 430.287 388.131 432.807 388.131 438.057C388.131 444.042 384.089 448.347 375.584 448.347H362.091ZM368.496 443.517H374.691C379.049 443.517 381.359 441.627 381.359 437.69C381.359 433.542 378.891 431.967 374.324 431.967H368.496V443.517ZM368.496 427.662H373.536C377.316 427.662 380.151 426.402 380.151 422.307C380.151 418.422 377.946 417.11 373.799 417.11H368.496V427.662Z" fill="#1C194A"/>
<rect x="459" y="388" width="240" height="93" rx="46.5" fill="#615F8C"/>
<rect x="459.75" y="388.75" width="238.5" height="91.5" rx="45.75" stroke="#BEBEBE" stroke-opacity="0.5" stroke-width="1.5"/>
<path d="M500.811 448.347V412.332H509.894L518.661 439.475H518.819L527.586 412.332H536.616V448.347H530.159V420.365H529.949L520.919 448.347H515.616L506.639 420.365H506.481V448.347H500.811ZM547.472 456.118C546.107 456.118 544.322 455.75 543.534 455.225V451.183C544.217 451.34 545.214 451.445 546.159 451.445C548.627 451.445 550.254 450.815 551.199 448.242L551.934 446.352L541.749 421.31H548.154L554.979 438.845H555.189L561.489 421.31H567.317L556.869 449.082C555.084 454.228 552.459 456.118 547.472 456.118ZM581.146 448.977C576.421 448.977 572.851 447.98 570.383 446.667V441.575C573.271 442.835 576.683 443.78 580.621 443.78C585.451 443.78 587.498 441.785 587.498 438.53C587.498 435.537 586.186 434.382 582.248 433.175L578.836 432.23C573.743 430.812 570.646 428.082 570.646 421.992C570.646 415.902 574.583 411.755 582.721 411.755C587.446 411.755 590.018 412.647 592.013 413.697V418.737C589.756 417.792 586.816 416.952 582.826 416.952C579.046 416.952 576.946 418.527 576.946 421.415C576.946 424.25 577.996 425.457 581.566 426.455L584.926 427.505C590.596 429.132 594.008 431.495 594.008 437.9C594.008 444.725 589.861 448.977 581.146 448.977ZM631.348 430.76C631.348 439.58 627.515 444.882 621.163 446.72L632.45 449.292L631.138 454.595L610.82 448.715C603.26 446.562 598.693 441.417 598.693 430.917V429.762C598.693 418.16 605.36 411.755 615.178 411.755C624.785 411.755 631.348 417.74 631.348 429.657V430.76ZM615.073 444.042C621.373 444.042 624.47 439.002 624.47 431.652V429.815C624.47 421.73 621.845 416.847 614.863 416.795C608.615 416.795 605.57 421.73 605.57 429.027V430.865C605.57 439.055 608.195 444.042 615.073 444.042ZM638.008 448.347V412.332H644.466V443.255H659.691V448.347H638.008Z" fill="#1C194A"/>
<rect x="729" y="388" width="203" height="93" rx="7.5" fill="#615F8C"/>
<rect x="729.75" y="388.75" width="201.5" height="91.5" rx="6.75" stroke="#BEBEBE" stroke-opacity="0.5" stroke-width="1.5"/>
<path d="M770.973 448.347V412.332H783.048C791.343 412.332 795.596 415.85 795.596 422.885C795.596 427.925 793.128 430.602 789.086 432.177V432.44L798.011 448.347H790.976L782.943 433.805H777.431V448.347H770.973ZM777.431 429.342H782.366C787.038 429.342 788.928 427.295 788.928 423.095C788.928 419 786.933 417.32 782.313 417.32H777.431V429.342ZM814.661 448.82C805.683 448.82 801.273 443.727 801.273 435.17V434.435C801.273 425.352 806.786 420.89 813.663 420.89C821.643 420.89 825.108 425.352 825.108 433.962V436.482H807.468C807.836 442.1 810.723 444.095 815.868 444.095C819.333 444.095 821.853 443.307 824.216 442.1V446.3C822.378 447.507 819.228 448.82 814.661 448.82ZM813.558 425.352C810.776 425.352 807.888 426.822 807.468 432.335H818.966C818.966 427.242 817.076 425.352 813.558 425.352ZM840.294 448.82C834.939 448.82 829.321 445.407 829.321 435.642V434.96C829.321 425.037 834.361 420.838 841.396 420.838C844.546 420.838 846.594 421.677 847.854 422.36V409.97H853.839V448.347H848.694L848.169 446.195H847.959C846.279 447.77 843.759 448.82 840.294 448.82ZM842.394 444.147C844.914 444.147 846.804 443.097 847.854 442.31V426.927C846.856 426.14 844.756 425.51 842.341 425.51C838.141 425.51 835.516 427.715 835.516 434.382V435.38C835.516 442.1 838.299 444.147 842.394 444.147ZM861.092 448.347V421.31H867.182V448.347H861.092ZM861.092 416.847V411.335H867.234V416.847H861.092ZM881.873 448.768C878.355 448.768 875.205 448.137 872.948 446.93V442.52C875.205 443.412 877.2 444.2 880.98 444.2C884.76 444.2 886.335 442.94 886.335 440.945C886.335 439.002 885.285 438.057 882.345 437.427L879.825 436.85C875.678 436.01 872.948 433.91 872.948 429.08C872.948 424.092 876.15 420.89 882.975 420.89C886.65 420.89 888.96 421.573 890.745 422.36V426.927C889.17 426.245 886.545 425.457 883.5 425.457C880.35 425.457 878.67 426.507 878.67 428.607C878.67 430.497 879.72 431.18 882.293 431.81L884.865 432.387C890.168 433.595 892.215 435.695 892.215 440.367C892.215 445.985 888.488 448.768 881.873 448.768Z" fill="#1C194A"/>
<rect x="123.75" y="511.75" width="412.5" height="91.5" rx="6.75" stroke="#BEBEBE" stroke-opacity="0.5" stroke-width="1.5"/>
<path d="M177.303 571.977C169.428 571.977 163.338 566.938 163.338 554.705V552.447C163.338 539.585 169.953 534.965 177.355 534.965C184.81 534.965 191.215 539.637 191.215 552.29V554.547C191.215 567.2 184.81 571.977 177.303 571.977ZM177.303 567.042C182.133 567.042 184.548 563.577 184.548 554.967V552.29C184.548 543.732 182.08 539.952 177.355 539.952C172.473 539.952 170.058 543.522 170.058 551.922V554.705C170.058 563.052 172.42 567.042 177.303 567.042ZM201.963 571.557V541.947L195.926 543.155V539.375L205.061 535.28H208.473V571.557H201.963ZM230.418 571.977C222.543 571.977 216.453 566.938 216.453 554.705V552.447C216.453 539.585 223.068 534.965 230.471 534.965C237.926 534.965 244.331 539.637 244.331 552.29V554.547C244.331 567.2 237.926 571.977 230.418 571.977ZM230.418 567.042C235.248 567.042 237.663 563.577 237.663 554.967V552.29C237.663 543.732 235.196 539.952 230.471 539.952C225.588 539.952 223.173 543.522 223.173 551.922V554.705C223.173 563.052 225.536 567.042 230.418 567.042ZM250.446 559.325V554.285H264.884V559.325H250.446ZM268.592 571.347V567.567L275.469 560.322C280.457 555.072 284.447 550.61 284.447 546.095C284.447 541.737 282.084 540.057 277.517 540.057C274.997 540.057 272.057 541.265 270.062 542.472L269.012 537.695C271.427 536.277 275.102 534.965 279.249 534.965C287.124 534.965 291.167 538.745 291.167 545.255C291.167 551.66 285.707 557.382 281.297 561.95L277.044 566.307H291.482V571.347H268.592ZM308.08 535.017C316.69 535.017 321.52 540.688 321.52 550.82V553.235C321.52 567.147 315.115 571.977 306.4 571.977C302.778 571.977 299.313 570.717 297.633 569.72L298.735 564.995C300.205 565.783 303.46 566.78 306.033 566.78C311.283 566.78 314.853 564.627 315.168 555.492C313.33 557.172 310.495 558.695 306.715 558.695C300.573 558.695 296.005 554.442 296.005 547.512C296.005 540.477 300.1 535.017 308.08 535.017ZM308.238 539.795C304.3 539.795 302.2 542.63 302.2 547.04C302.2 551.87 304.93 554.022 308.605 554.022C311.23 554.022 313.908 552.237 315.115 550.505V549.612C315.115 543.627 313.068 539.795 308.238 539.795ZM328.327 571.347L341.452 540.688H325.125V535.595H348.435V539.427L335.467 571.347H328.327ZM355.859 571.347L368.984 540.688H352.657V535.595H375.967V539.427L362.999 571.347H355.859ZM378.364 559.325V554.285H392.801V559.325H378.364ZM410.702 571.977C402.145 571.977 397.315 568.092 397.315 562.265C397.315 557.75 400.78 554.547 404.717 552.972C400.99 551.292 398.365 548.825 398.365 544.362C398.365 538.797 403.142 534.965 410.702 534.965C418.262 534.965 422.882 538.272 422.882 543.89C422.882 547.827 420.047 550.662 416.32 552.447C420.52 553.865 424.3 556.49 424.3 561.53C424.3 567.62 419.26 571.977 410.702 571.977ZM410.545 567.252C414.955 567.252 417.79 565.1 417.79 562.002C417.79 558.275 415.007 556.437 409.652 555.02C406.45 556.122 403.405 558.537 403.405 561.74C403.405 565.205 406.187 567.252 410.545 567.252ZM411.595 550.295C414.377 549.14 416.792 547.25 416.792 544.362C416.792 541.685 414.85 539.637 410.807 539.637C407.132 539.637 404.822 541.37 404.822 544.205C404.822 547.302 407.132 549.192 411.595 550.295ZM438.252 571.872C434.157 571.872 430.324 570.822 428.014 569.405L429.169 564.47C431.112 565.625 433.842 566.622 436.624 566.622C441.612 566.622 444.657 564.207 444.657 559.85C444.657 555.282 441.822 553.392 436.887 553.392C434.629 553.392 431.269 554.495 429.589 555.335L430.902 535.542H449.697V540.582H435.837L435.154 549.35C436.362 549.035 438.304 548.72 439.669 548.72C446.862 548.72 451.324 552.395 451.324 560.008C451.324 566.675 446.442 571.872 438.252 571.872ZM460.823 571.557V541.947L454.786 543.155V539.375L463.921 535.28H467.333V571.557H460.823ZM477.676 571.347L490.801 540.688H474.473V535.595H497.783V539.427L484.816 571.347H477.676Z" fill="#1C194A"/>
<rect x="567.75" y="511.75" width="669.5" height="91.5" rx="45.75" stroke="#BEBEBE" stroke-opacity="0.5" stroke-width="1.5"/>
<path d="M617.357 571.662C612.685 571.662 609.692 569.772 609.692 564.68V549.035H605.912V544.31H609.692V537.957H615.625V544.31H622.082V549.035H615.625V563.84C615.625 566.097 616.465 566.938 619.3 566.938C620.35 566.938 621.452 566.78 622.397 566.517V570.56C621.347 571.085 619.877 571.662 617.357 571.662ZM627.907 571.347V544.31H633.735V546.725H633.945C636.255 545.097 639.037 543.838 642.187 543.838C645.285 543.838 647.385 544.782 648.592 546.882H648.907C651.69 544.992 654.735 543.838 657.78 543.838C662.557 543.838 665.235 545.885 665.235 551.24V571.347H659.25V552.657C659.25 549.98 658.2 548.877 655.102 548.877C653.317 548.877 651.532 549.402 649.485 550.4C649.537 550.82 649.59 551.082 649.59 551.607V571.347H643.657V552.657C643.657 549.98 642.555 548.877 639.51 548.877C637.567 548.877 635.572 549.507 633.945 550.347V571.347H627.907ZM681.812 571.82C676.457 571.82 670.839 568.407 670.839 558.642V557.96C670.839 548.037 675.879 543.838 682.914 543.838C686.064 543.838 688.112 544.677 689.372 545.36V532.97H695.357V571.347H690.212L689.687 569.195H689.477C687.797 570.77 685.277 571.82 681.812 571.82ZM683.912 567.147C686.432 567.147 688.322 566.097 689.372 565.31V549.927C688.374 549.14 686.274 548.51 683.859 548.51C679.659 548.51 677.034 550.715 677.034 557.382V558.38C677.034 565.1 679.817 567.147 683.912 567.147ZM712.112 571.82C706.757 571.82 701.139 568.407 701.139 558.642V557.96C701.139 548.037 706.179 543.838 713.214 543.838C716.364 543.838 718.412 544.677 719.672 545.36V532.97H725.657V571.347H720.512L719.987 569.195H719.777C718.097 570.77 715.577 571.82 712.112 571.82ZM714.212 567.147C716.732 567.147 718.622 566.097 719.672 565.31V549.927C718.674 549.14 716.574 548.51 714.159 548.51C709.959 548.51 707.334 550.715 707.334 557.382V558.38C707.334 565.1 710.117 567.147 714.212 567.147ZM732.805 571.347V544.31H738.632V546.725H738.842C741.152 545.045 744.46 543.838 747.715 543.838C752.912 543.838 755.59 545.937 755.59 551.292V571.347H749.5V552.71C749.5 549.98 748.607 548.877 744.932 548.877C742.832 548.877 740.47 549.56 738.842 550.347V571.347H732.805ZM760.65 579.17C758.602 579.17 757.29 578.75 756.24 578.173V574.235C756.975 574.393 757.972 574.55 758.865 574.55C761.332 574.55 762.697 573.395 762.697 570.717V544.31H768.787V571.19C768.787 575.81 766.477 579.17 760.65 579.17ZM762.697 539.847V534.335H768.84V539.847H762.697ZM783.479 571.768C779.961 571.768 776.811 571.137 774.554 569.93V565.52C776.811 566.412 778.806 567.2 782.586 567.2C786.366 567.2 787.941 565.94 787.941 563.945C787.941 562.002 786.891 561.057 783.951 560.427L781.431 559.85C777.284 559.01 774.554 556.91 774.554 552.08C774.554 547.092 777.756 543.89 784.581 543.89C788.256 543.89 790.566 544.573 792.351 545.36V549.927C790.776 549.245 788.151 548.457 785.106 548.457C781.956 548.457 780.276 549.507 780.276 551.607C780.276 553.497 781.326 554.18 783.899 554.81L786.471 555.387C791.774 556.595 793.821 558.695 793.821 563.367C793.821 568.985 790.094 571.768 783.479 571.768ZM799.455 571.347V544.31H805.283V547.46H805.493C806.963 545.517 809.745 544.1 812.58 544.1C813.315 544.1 813.998 544.152 814.26 544.257V549.612C813.578 549.507 812.685 549.455 812.055 549.455C809.64 549.455 807.225 550.137 805.493 551.24V571.347H799.455ZM819.35 571.347V532.97H825.44V571.347H819.35ZM839.501 571.82C834.619 571.82 831.206 569.352 831.206 564.155C831.206 559.167 834.514 556.857 839.869 556.07L846.221 555.335V553.287C846.221 549.612 844.594 548.772 840.026 548.772C837.401 548.772 835.091 549.14 833.464 549.507V545.36C835.984 544.362 838.871 543.89 842.389 543.89C848.636 543.89 852.259 546.305 852.259 551.922V571.347H847.271L846.799 569.142H846.484C845.171 570.665 843.019 571.82 839.501 571.82ZM841.339 567.567C843.281 567.567 845.224 566.885 846.221 565.94V559.272L841.234 559.797C838.556 560.008 837.139 561.11 837.139 563.84C837.139 566.412 838.871 567.567 841.339 567.567ZM869.839 535.017C878.449 535.017 883.279 540.688 883.279 550.82V553.235C883.279 567.147 876.874 571.977 868.159 571.977C864.537 571.977 861.072 570.717 859.392 569.72L860.494 564.995C861.964 565.783 865.219 566.78 867.792 566.78C873.042 566.78 876.612 564.627 876.927 555.492C875.089 557.172 872.254 558.695 868.474 558.695C862.332 558.695 857.764 554.442 857.764 547.512C857.764 540.477 861.859 535.017 869.839 535.017ZM869.997 539.795C866.059 539.795 863.959 542.63 863.959 547.04C863.959 551.87 866.689 554.022 870.364 554.022C872.989 554.022 875.667 552.237 876.874 550.505V549.612C876.874 543.627 874.827 539.795 869.997 539.795ZM899.627 535.017C908.237 535.017 913.067 540.688 913.067 550.82V553.235C913.067 567.147 906.662 571.977 897.947 571.977C894.324 571.977 890.859 570.717 889.179 569.72L890.282 564.995C891.752 565.783 895.007 566.78 897.579 566.78C902.829 566.78 906.399 564.627 906.714 555.492C904.877 557.172 902.042 558.695 898.262 558.695C892.119 558.695 887.552 554.442 887.552 547.512C887.552 540.477 891.647 535.017 899.627 535.017ZM899.784 539.795C895.847 539.795 893.747 542.63 893.747 547.04C893.747 551.87 896.477 554.022 900.152 554.022C902.777 554.022 905.454 552.237 906.662 550.505V549.612C906.662 543.627 904.614 539.795 899.784 539.795ZM939.324 578.75C926.252 578.75 918.377 571.768 918.377 559.167C918.377 546.672 926.672 535.332 941.739 535.332C953.237 535.332 960.797 542.787 960.797 553.445C960.797 563.315 956.019 568.88 948.669 568.88C945.204 568.88 943.262 567.62 942.684 565.677H942.422C941.004 567.305 938.799 568.827 935.964 568.827C931.607 568.827 928.667 565.835 928.667 560.375C928.667 551.607 932.762 545.832 939.429 545.832C941.897 545.832 943.892 546.62 944.994 547.617H945.309L945.572 546.252H950.874L947.882 562.212C947.514 563.84 947.882 564.995 949.667 564.995C953.814 564.995 956.334 560.952 956.334 553.76C956.334 545.045 951.662 539.165 941.529 539.165C929.454 539.165 922.787 547.775 922.787 559.062C922.787 569.3 928.562 574.918 939.377 574.918C944.417 574.918 948.879 573.815 951.504 572.87V576.283C948.407 577.595 944.259 578.75 939.324 578.75ZM937.749 564.732C939.692 564.732 941.004 563.735 942.107 562.632L944.154 551.24C943.419 550.4 942.002 549.77 940.164 549.77C935.964 549.77 934.442 554.285 934.442 560.27C934.442 563.21 935.649 564.732 937.749 564.732ZM976.157 579.013C967.705 579.013 963.662 576.598 963.662 572.765C963.662 569.982 965.867 568.302 968.702 567.462V567.252C967.075 566.675 965.867 565.205 965.867 563.315C965.867 561.477 967.075 560.375 969.017 559.115C966.97 557.802 965.605 555.807 965.605 552.762V552.29C965.605 546.725 970.015 543.89 976.42 543.89C977.89 543.89 979.307 544.047 980.62 544.31H989.755V548.3H985.607C986.5 549.297 986.972 550.452 986.972 552.132V552.5C986.972 558.275 982.457 560.795 976.367 560.795C974.845 560.795 973.375 560.69 972.115 560.27C971.485 560.795 971.117 560.952 971.117 561.635C971.117 562.947 971.852 563.42 973.532 563.42H980.987C986.132 563.42 989.755 565.257 989.755 570.245C989.755 575.285 985.66 579.013 976.157 579.013ZM976.052 574.918C981.67 574.918 983.56 573.5 983.56 571.242C983.56 569.142 982.615 568.512 979.36 568.512H972.43C970.802 569.037 969.647 570.035 969.647 571.872C969.647 573.868 971.38 574.918 976.052 574.918ZM976.367 556.91C979.465 556.91 981.145 555.755 981.145 552.762V552.08C981.145 548.877 979.307 547.722 976.367 547.722C973.27 547.722 971.537 549.14 971.537 551.975V552.605C971.537 555.755 973.375 556.91 976.367 556.91ZM994.433 571.347V544.31H1000.26V546.725H1000.47C1002.78 545.097 1005.56 543.838 1008.71 543.838C1011.81 543.838 1013.91 544.782 1015.12 546.882H1015.43C1018.22 544.992 1021.26 543.838 1024.31 543.838C1029.08 543.838 1031.76 545.885 1031.76 551.24V571.347H1025.78V552.657C1025.78 549.98 1024.73 548.877 1021.63 548.877C1019.84 548.877 1018.06 549.402 1016.01 550.4C1016.06 550.82 1016.12 551.082 1016.12 551.607V571.347H1010.18V552.657C1010.18 549.98 1009.08 548.877 1006.04 548.877C1004.09 548.877 1002.1 549.507 1000.47 550.347V571.347H994.433ZM1045.5 571.82C1040.62 571.82 1037.21 569.352 1037.21 564.155C1037.21 559.167 1040.51 556.857 1045.87 556.07L1052.22 555.335V553.287C1052.22 549.612 1050.59 548.772 1046.03 548.772C1043.4 548.772 1041.09 549.14 1039.46 549.507V545.36C1041.98 544.362 1044.87 543.89 1048.39 543.89C1054.64 543.89 1058.26 546.305 1058.26 551.922V571.347H1053.27L1052.8 569.142H1052.48C1051.17 570.665 1049.02 571.82 1045.5 571.82ZM1047.34 567.567C1049.28 567.567 1051.22 566.885 1052.22 565.94V559.272L1047.23 559.797C1044.56 560.008 1043.14 561.11 1043.14 563.84C1043.14 566.412 1044.87 567.567 1047.34 567.567ZM1065.39 571.347V544.31H1071.48V571.347H1065.39ZM1065.39 539.847V534.335H1071.54V539.847H1065.39ZM1078.88 571.347V532.97H1084.97V571.347H1078.88ZM1092.1 572.187V566.045H1098.5V572.187H1092.1ZM1116.82 571.82C1108.84 571.82 1103.91 567.357 1103.91 558.432V557.592C1103.91 548.247 1109.58 543.838 1117.09 543.838C1120.66 543.838 1122.81 544.52 1124.54 545.465V550.19C1122.28 549.297 1120.66 548.72 1117.45 548.72C1112.94 548.72 1110.16 551.555 1110.16 556.962V558.17C1110.16 564.365 1112.73 566.99 1117.87 566.99C1121.18 566.99 1123.44 565.94 1124.8 565.31V569.72C1123.07 570.822 1120.55 571.82 1116.82 571.82ZM1141.33 571.82C1133.09 571.82 1128.52 566.832 1128.52 558.38V557.54C1128.52 548.877 1133.77 543.838 1141.38 543.838C1149.47 543.838 1154.14 548.772 1154.14 557.382V558.117C1154.14 566.832 1148.89 571.82 1141.33 571.82ZM1141.43 567.252C1145.48 567.252 1147.84 564.47 1147.84 558.642V557.33C1147.84 550.295 1144.95 548.405 1141.28 548.405C1137.13 548.405 1134.71 551.292 1134.71 557.12V558.38C1134.71 565.362 1137.65 567.252 1141.43 567.252ZM1159.73 571.347V544.31H1165.55V546.725H1165.76C1168.07 545.097 1170.86 543.838 1174.01 543.838C1177.1 543.838 1179.2 544.782 1180.41 546.882H1180.73C1183.51 544.992 1186.55 543.838 1189.6 543.838C1194.38 543.838 1197.05 545.885 1197.05 551.24V571.347H1191.07V552.657C1191.07 549.98 1190.02 548.877 1186.92 548.877C1185.14 548.877 1183.35 549.402 1181.3 550.4C1181.36 550.82 1181.41 551.082 1181.41 551.607V571.347H1175.48V552.657C1175.48 549.98 1174.37 548.877 1171.33 548.877C1169.39 548.877 1167.39 549.507 1165.76 550.347V571.347H1159.73Z" fill="#1C194A"/>
<path d="M45.75 588.304C44.7079 588.303 43.6902 587.988 42.8295 587.401C30.0782 578.745 24.5568 572.809 21.5113 569.099C15.0213 561.189 11.9142 553.068 12.0018 544.274C12.104 534.197 20.189 526 30.0246 526C37.1767 526 42.1302 530.029 45.015 533.384C45.1064 533.489 45.2193 533.574 45.3461 533.631C45.4729 533.689 45.6106 533.719 45.75 533.719C45.8894 533.719 46.0271 533.689 46.1539 533.631C46.2807 533.574 46.3936 533.489 46.485 533.384C49.3698 530.025 54.3233 526 61.4754 526C71.311 526 79.396 534.197 79.4982 544.276C79.5858 553.072 76.4755 561.192 69.9887 569.1C66.9432 572.811 61.4218 578.746 48.6705 587.402C47.8096 587.989 46.792 588.304 45.75 588.304Z" fill="#1C194A"/>
<path d="M43.2523 586.781L43.2507 586.78C30.5543 578.161 25.0875 572.274 22.0911 568.623C15.6938 560.826 12.6662 552.872 12.7518 544.282C12.85 534.599 20.617 526.75 30.0246 526.75C36.8694 526.75 41.6336 530.602 44.4463 533.873L44.4488 533.876C44.6105 534.062 44.8104 534.211 45.0349 534.314C45.2594 534.416 45.5033 534.469 45.75 534.469C45.9967 534.469 46.2406 534.416 46.4651 534.314C46.6896 534.211 46.8895 534.062 47.0513 533.876L47.0539 533.873C49.8662 530.599 54.6304 526.75 61.4754 526.75C70.883 526.75 78.65 534.599 78.7482 544.284C78.8338 552.875 75.803 560.829 69.4088 568.625C66.4124 572.276 60.9456 578.163 48.2493 586.782L48.248 586.783C47.5117 587.285 46.6415 587.553 45.7503 587.554C44.8589 587.553 43.9885 587.284 43.2523 586.781Z" stroke="#BEBEBE" stroke-opacity="0.5" stroke-width="1.5"/>
</svg>
