<svg width="1239" height="585" viewBox="0 0 1239 585" fill="none" xmlns="http://www.w3.org/2000/svg">
<rect width="1239" height="585" fill="#FFFAFA"/>
<rect x="0.75" y="0.75" width="442.5" height="91.5" rx="6.75" stroke="#BEBEBE" stroke-opacity="0.5" stroke-width="1.5"/>
<path d="M62.2316 60.3475L48.9491 42.0775C53.3591 36.145 57.8216 30.2125 62.2841 24.3325H68.9516L56.0366 41.395C60.6041 47.695 65.1716 53.995 69.6866 60.3475H62.2316ZM41.8616 60.3475V24.3325H48.3191V60.3475H41.8616ZM74.4555 60.3475V33.31H80.5455V60.3475H74.4555ZM74.4555 28.8475V23.335H80.598V28.8475H74.4555ZM87.8344 60.3475V33.31H93.6619V35.725H93.8719C96.1819 34.0975 98.9644 32.8375 102.114 32.8375C105.212 32.8375 107.312 33.7825 108.519 35.8825H108.834C111.617 33.9925 114.662 32.8375 117.707 32.8375C122.484 32.8375 125.162 34.885 125.162 40.24V60.3475H119.177V41.6575C119.177 38.98 118.127 37.8775 115.029 37.8775C113.244 37.8775 111.459 38.4025 109.412 39.4C109.464 39.82 109.517 40.0825 109.517 40.6075V60.3475H103.584V41.6575C103.584 38.98 102.482 37.8775 99.4369 37.8775C97.4944 37.8775 95.4994 38.5075 93.8719 39.3475V60.3475H87.8344ZM155.163 60.9775C150.438 60.9775 146.868 59.98 144.4 58.6675V53.575C147.288 54.835 150.7 55.78 154.638 55.78C159.468 55.78 161.515 53.785 161.515 50.53C161.515 47.5375 160.203 46.3825 156.265 45.175L152.853 44.23C147.76 42.8125 144.663 40.0825 144.663 33.9925C144.663 27.9025 148.6 23.755 156.738 23.755C161.463 23.755 164.035 24.6475 166.03 25.6975V30.7375C163.773 29.7925 160.833 28.9525 156.843 28.9525C153.063 28.9525 150.963 30.5275 150.963 33.415C150.963 36.25 152.013 37.4575 155.583 38.455L158.943 39.505C164.613 41.1325 168.025 43.495 168.025 49.9C168.025 56.725 163.878 60.9775 155.163 60.9775ZM185.73 60.82C176.752 60.82 172.342 55.7275 172.342 47.17V46.435C172.342 37.3525 177.855 32.89 184.732 32.89C192.712 32.89 196.177 37.3525 196.177 45.9625V48.4825H178.537C178.905 54.1 181.792 56.095 186.937 56.095C190.402 56.095 192.922 55.3075 195.285 54.1V58.3C193.447 59.5075 190.297 60.82 185.73 60.82ZM184.627 37.3525C181.845 37.3525 178.957 38.8225 178.537 44.335H190.035C190.035 39.2425 188.145 37.3525 184.627 37.3525ZM209.788 60.82C204.538 60.82 201.598 58.2475 201.598 52.945V33.31H207.635V51.79C207.635 54.73 208.685 55.9375 212.045 55.9375C214.408 55.9375 216.35 55.0975 218.083 54.31V33.31H224.12V60.3475H218.87L218.345 57.985H218.083C215.825 59.6125 213.2 60.82 209.788 60.82ZM231.184 60.3475V33.31H237.012V35.725H237.222C239.532 34.045 242.839 32.8375 246.094 32.8375C251.292 32.8375 253.969 34.9375 253.969 40.2925V60.3475H247.879V41.71C247.879 38.98 246.987 37.8775 243.312 37.8775C241.212 37.8775 238.849 38.56 237.222 39.3475V60.3475H231.184ZM270.894 68.0125C262.442 68.0125 258.399 65.5975 258.399 61.765C258.399 58.9825 260.604 57.3025 263.439 56.4625V56.2525C261.812 55.675 260.604 54.205 260.604 52.315C260.604 50.4775 261.812 49.375 263.754 48.115C261.707 46.8025 260.342 44.8075 260.342 41.7625V41.29C260.342 35.725 264.752 32.89 271.157 32.89C272.627 32.89 274.044 33.0475 275.357 33.31H284.492V37.3H280.344C281.237 38.2975 281.709 39.4525 281.709 41.1325V41.5C281.709 47.275 277.194 49.795 271.104 49.795C269.582 49.795 268.112 49.69 266.852 49.27C266.222 49.795 265.854 49.9525 265.854 50.635C265.854 51.9475 266.589 52.42 268.269 52.42H275.724C280.869 52.42 284.492 54.2575 284.492 59.245C284.492 64.285 280.397 68.0125 270.894 68.0125ZM270.789 63.9175C276.407 63.9175 278.297 62.5 278.297 60.2425C278.297 58.1425 277.352 57.5125 274.097 57.5125H267.167C265.539 58.0375 264.384 59.035 264.384 60.8725C264.384 62.8675 266.117 63.9175 270.789 63.9175ZM271.104 45.91C274.202 45.91 275.882 44.755 275.882 41.7625V41.08C275.882 37.8775 274.044 36.7225 271.104 36.7225C268.007 36.7225 266.274 38.14 266.274 40.975V41.605C266.274 44.755 268.112 45.91 271.104 45.91ZM309.629 60.3475L300.651 24.3325H307.214L313.356 51.0025H313.514L320.864 24.3325H326.114L333.359 51.0025H333.516L339.711 24.3325H345.539L336.719 60.3475H330.314L323.279 34.2025H323.121L315.981 60.3475H309.629ZM361.776 60.82C353.533 60.82 348.966 55.8325 348.966 47.38V46.54C348.966 37.8775 354.216 32.8375 361.828 32.8375C369.913 32.8375 374.586 37.7725 374.586 46.3825V47.1175C374.586 55.8325 369.336 60.82 361.776 60.82ZM361.881 56.2525C365.923 56.2525 368.286 53.47 368.286 47.6425V46.33C368.286 39.295 365.398 37.405 361.723 37.405C357.576 37.405 355.161 40.2925 355.161 46.12V47.38C355.161 54.3625 358.101 56.2525 361.881 56.2525ZM380.173 60.3475V33.31H386.001V35.725H386.211C388.521 34.045 391.828 32.8375 395.083 32.8375C400.281 32.8375 402.958 34.9375 402.958 40.2925V60.3475H396.868V41.71C396.868 38.98 395.976 37.8775 392.301 37.8775C390.201 37.8775 387.838 38.56 386.211 39.3475V60.3475H380.173Z" fill="#1C194A"/>
<rect x="474.75" y="0.75" width="273.5" height="91.5" rx="45.75" stroke="#BEBEBE" stroke-opacity="0.5" stroke-width="1.5"/>
<path d="M516.136 60.3475V24.3325H528.736C537.031 24.3325 540.601 27.6925 540.601 33.415C540.601 37.195 539.026 39.925 534.721 41.29V41.4475C539.236 42.2875 542.176 44.8075 542.176 50.0575C542.176 56.0425 538.133 60.3475 529.628 60.3475H516.136ZM522.541 55.5175H528.736C533.093 55.5175 535.403 53.6275 535.403 49.69C535.403 45.5425 532.936 43.9675 528.368 43.9675H522.541V55.5175ZM522.541 39.6625H527.581C531.361 39.6625 534.196 38.4025 534.196 34.3075C534.196 30.4225 531.991 29.11 527.843 29.11H522.541V39.6625ZM554.833 60.82C549.951 60.82 546.538 58.3525 546.538 53.155C546.538 48.1675 549.846 45.8575 555.201 45.07L561.553 44.335V42.2875C561.553 38.6125 559.926 37.7725 555.358 37.7725C552.733 37.7725 550.423 38.14 548.796 38.5075V34.36C551.316 33.3625 554.203 32.89 557.721 32.89C563.968 32.89 567.591 35.305 567.591 40.9225V60.3475H562.603L562.131 58.1425H561.816C560.503 59.665 558.351 60.82 554.833 60.82ZM556.671 56.5675C558.613 56.5675 560.556 55.885 561.553 54.94V48.2725L556.566 48.7975C553.888 49.0075 552.471 50.11 552.471 52.84C552.471 55.4125 554.203 56.5675 556.671 56.5675ZM586.011 60.82C578.031 60.82 573.096 56.3575 573.096 47.4325V46.5925C573.096 37.2475 578.766 32.8375 586.273 32.8375C589.843 32.8375 591.996 33.52 593.728 34.465V39.19C591.471 38.2975 589.843 37.72 586.641 37.72C582.126 37.72 579.343 40.555 579.343 45.9625V47.17C579.343 53.365 581.916 55.99 587.061 55.99C590.368 55.99 592.626 54.94 593.991 54.31V58.72C592.258 59.8225 589.738 60.82 586.011 60.82ZM599.228 60.3475V21.97H605.265V60.3475H599.228ZM615.345 60.3475C614.873 59.6125 606.21 47.065 605.79 46.3825C606.21 45.6475 614.61 34.045 615.03 33.3625H621.33C620.805 33.9925 612.51 45.385 612.09 46.015C612.563 46.6975 621.54 59.56 622.013 60.3475H615.345ZM638.573 60.82C629.596 60.82 625.186 55.7275 625.186 47.17V46.435C625.186 37.3525 630.698 32.89 637.576 32.89C645.556 32.89 649.021 37.3525 649.021 45.9625V48.4825H631.381C631.748 54.1 634.636 56.095 639.781 56.095C643.246 56.095 645.766 55.3075 648.128 54.1V58.3C646.291 59.5075 643.141 60.82 638.573 60.82ZM637.471 37.3525C634.688 37.3525 631.801 38.8225 631.381 44.335H642.878C642.878 39.2425 640.988 37.3525 637.471 37.3525ZM654.599 60.3475V33.31H660.426V35.725H660.636C662.946 34.045 666.254 32.8375 669.509 32.8375C674.706 32.8375 677.384 34.9375 677.384 40.2925V60.3475H671.294V41.71C671.294 38.98 670.401 37.8775 666.726 37.8775C664.626 37.8775 662.264 38.56 660.636 39.3475V60.3475H654.599ZM693.994 60.82C688.639 60.82 683.021 57.4075 683.021 47.6425V46.96C683.021 37.0375 688.061 32.8375 695.096 32.8375C698.246 32.8375 700.294 33.6775 701.554 34.36V21.97H707.539V60.3475H702.394L701.869 58.195H701.659C699.979 59.77 697.459 60.82 693.994 60.82ZM696.094 56.1475C698.614 56.1475 700.504 55.0975 701.554 54.31V38.9275C700.556 38.14 698.456 37.51 696.041 37.51C691.841 37.51 689.216 39.715 689.216 46.3825V47.38C689.216 54.1 691.999 56.1475 696.094 56.1475Z" fill="#1C194A"/>
<rect x="779.25" y="0.75" width="279.5" height="91.5" rx="6.75" stroke="#BEBEBE" stroke-opacity="0.5" stroke-width="1.5"/>
<path d="M820.56 60.3475V24.3325H833.16C841.612 24.3325 845.865 28.27 845.865 35.41C845.865 42.9175 841.087 46.855 833.58 46.855H827.017V60.3475H820.56ZM827.017 42.025H832.372C837.255 42.025 839.092 39.9775 839.092 35.7775C839.092 31.0525 837.255 29.32 832.477 29.32H827.017V42.025ZM862.439 60.82C854.197 60.82 849.629 55.8325 849.629 47.38V46.54C849.629 37.8775 854.879 32.8375 862.492 32.8375C870.577 32.8375 875.249 37.7725 875.249 46.3825V47.1175C875.249 55.8325 869.999 60.82 862.439 60.82ZM862.544 56.2525C866.587 56.2525 868.949 53.47 868.949 47.6425V46.33C868.949 39.295 866.062 37.405 862.387 37.405C858.239 37.405 855.824 40.2925 855.824 46.12V47.38C855.824 54.3625 858.764 56.2525 862.544 56.2525ZM880.837 60.3475V33.31H886.664V36.46H886.874C888.344 34.5175 891.127 33.1 893.962 33.1C894.697 33.1 895.379 33.1525 895.642 33.2575V38.6125C894.959 38.5075 894.067 38.455 893.437 38.455C891.022 38.455 888.607 39.1375 886.874 40.24V60.3475H880.837ZM910.379 60.6625C905.707 60.6625 902.714 58.7725 902.714 53.68V38.035H898.934V33.31H902.714V26.9575H908.647V33.31H915.104V38.035H908.647V52.84C908.647 55.0975 909.487 55.9375 912.322 55.9375C913.372 55.9375 914.474 55.78 915.419 55.5175V59.56C914.369 60.085 912.899 60.6625 910.379 60.6625ZM922.097 60.3475V38.035H918.212V33.31H922.097V29.95C922.097 24.1225 925.719 21.55 930.812 21.55C933.227 21.55 934.907 21.97 935.904 22.39V26.4325C935.169 26.275 934.014 26.065 932.439 26.065C929.604 26.065 928.029 27.3775 928.029 30.58V33.31H933.962V38.035H928.029V60.3475H922.097ZM950.212 60.82C941.97 60.82 937.402 55.8325 937.402 47.38V46.54C937.402 37.8775 942.652 32.8375 950.265 32.8375C958.35 32.8375 963.022 37.7725 963.022 46.3825V47.1175C963.022 55.8325 957.772 60.82 950.212 60.82ZM950.317 56.2525C954.36 56.2525 956.722 53.47 956.722 47.6425V46.33C956.722 39.295 953.835 37.405 950.16 37.405C946.012 37.405 943.597 40.2925 943.597 46.12V47.38C943.597 54.3625 946.537 56.2525 950.317 56.2525ZM968.715 60.3475V21.97H974.805V60.3475H968.715ZM982.199 60.3475V33.31H988.289V60.3475H982.199ZM982.199 28.8475V23.335H988.341V28.8475H982.199ZM1006.87 60.82C998.623 60.82 994.055 55.8325 994.055 47.38V46.54C994.055 37.8775 999.305 32.8375 1006.92 32.8375C1015 32.8375 1019.68 37.7725 1019.68 46.3825V47.1175C1019.68 55.8325 1014.43 60.82 1006.87 60.82ZM1006.97 56.2525C1011.01 56.2525 1013.38 53.47 1013.38 47.6425V46.33C1013.38 39.295 1010.49 37.405 1006.81 37.405C1002.67 37.405 1000.25 40.2925 1000.25 46.12V47.38C1000.25 54.3625 1003.19 56.2525 1006.97 56.2525Z" fill="#1C194A"/>
<rect y="123" width="93" height="93" rx="46.5" fill="#B7B4CB"/>
<rect x="0.75" y="123.75" width="91.5" height="91.5" rx="45.75" stroke="#BEBEBE" stroke-opacity="0.5" stroke-width="1.5"/>
<path d="M38.1006 183.557V153.947L32.0631 155.155V151.375L41.1981 147.28H44.6106V183.557H38.1006ZM53.1681 184.187V178.045H59.5731V184.187H53.1681Z" fill="#1C194A"/>
<rect x="123" y="123" width="351" height="93" rx="7.5" fill="#B7B4CB"/>
<rect x="123.75" y="123.75" width="349.5" height="91.5" rx="6.75" stroke="#BEBEBE" stroke-opacity="0.5" stroke-width="1.5"/>
<path d="M173.779 183.977C169.054 183.977 165.484 182.98 163.017 181.667V176.575C165.904 177.835 169.317 178.78 173.254 178.78C178.084 178.78 180.132 176.785 180.132 173.53C180.132 170.537 178.819 169.382 174.882 168.175L171.469 167.23C166.377 165.812 163.279 163.082 163.279 156.992C163.279 150.902 167.217 146.755 175.354 146.755C180.079 146.755 182.652 147.647 184.647 148.697V153.737C182.389 152.792 179.449 151.952 175.459 151.952C171.679 151.952 169.579 153.527 169.579 156.415C169.579 159.25 170.629 160.457 174.199 161.455L177.559 162.505C183.229 164.132 186.642 166.495 186.642 172.9C186.642 179.725 182.494 183.977 173.779 183.977ZM192.481 191.17V156.31H198.309V158.62H198.519C200.146 156.992 202.929 155.838 206.341 155.838C211.959 155.838 217.051 159.092 217.051 169.015V169.697C217.051 179.83 212.169 183.82 204.819 183.82C201.826 183.82 199.831 183.032 198.519 182.297V191.17H192.481ZM203.979 179.252C208.284 179.252 210.751 177.047 210.751 170.485V169.382C210.751 162.715 208.441 160.772 204.189 160.772C201.616 160.772 199.569 161.612 198.519 162.347V177.677C199.569 178.517 201.616 179.252 203.979 179.252ZM222.782 183.347V156.31H228.609V159.46H228.819C230.289 157.517 233.072 156.1 235.907 156.1C236.642 156.1 237.324 156.152 237.587 156.257V161.612C236.904 161.507 236.012 161.455 235.382 161.455C232.967 161.455 230.552 162.137 228.819 163.24V183.347H222.782ZM242.677 183.347V156.31H248.767V183.347H242.677ZM242.677 151.847V146.335H248.819V151.847H242.677ZM256.056 183.347V156.31H261.883V158.725H262.093C264.403 157.045 267.711 155.838 270.966 155.838C276.163 155.838 278.841 157.937 278.841 163.292V183.347H272.751V164.71C272.751 161.98 271.858 160.877 268.183 160.877C266.083 160.877 263.721 161.56 262.093 162.347V183.347H256.056ZM295.766 191.013C287.313 191.013 283.271 188.598 283.271 184.765C283.271 181.982 285.476 180.302 288.311 179.462V179.252C286.683 178.675 285.476 177.205 285.476 175.315C285.476 173.477 286.683 172.375 288.626 171.115C286.578 169.802 285.213 167.807 285.213 164.762V164.29C285.213 158.725 289.623 155.89 296.028 155.89C297.498 155.89 298.916 156.047 300.228 156.31H309.363V160.3H305.216C306.108 161.297 306.581 162.452 306.581 164.132V164.5C306.581 170.275 302.066 172.795 295.976 172.795C294.453 172.795 292.983 172.69 291.723 172.27C291.093 172.795 290.726 172.952 290.726 173.635C290.726 174.947 291.461 175.42 293.141 175.42H300.596C305.741 175.42 309.363 177.257 309.363 182.245C309.363 187.285 305.268 191.013 295.766 191.013ZM295.661 186.918C301.278 186.918 303.168 185.5 303.168 183.242C303.168 181.142 302.223 180.512 298.968 180.512H292.038C290.411 181.037 289.256 182.035 289.256 183.872C289.256 185.868 290.988 186.918 295.661 186.918ZM295.976 168.91C299.073 168.91 300.753 167.755 300.753 164.762V164.08C300.753 160.877 298.916 159.722 295.976 159.722C292.878 159.722 291.146 161.14 291.146 163.975V164.605C291.146 167.755 292.983 168.91 295.976 168.91ZM328.515 183.347V147.332H341.115C349.41 147.332 352.98 150.692 352.98 156.415C352.98 160.195 351.405 162.925 347.1 164.29V164.447C351.615 165.287 354.555 167.807 354.555 173.057C354.555 179.042 350.513 183.347 342.008 183.347H328.515ZM334.92 178.517H341.115C345.473 178.517 347.783 176.627 347.783 172.69C347.783 168.542 345.315 166.967 340.748 166.967H334.92V178.517ZM334.92 162.662H339.96C343.74 162.662 346.575 161.402 346.575 157.307C346.575 153.422 344.37 152.11 340.223 152.11H334.92V162.662ZM371.728 183.82C363.485 183.82 358.918 178.832 358.918 170.38V169.54C358.918 160.877 364.168 155.838 371.78 155.838C379.865 155.838 384.538 160.772 384.538 169.382V170.117C384.538 178.832 379.288 183.82 371.728 183.82ZM371.833 179.252C375.875 179.252 378.238 176.47 378.238 170.642V169.33C378.238 162.295 375.35 160.405 371.675 160.405C367.528 160.405 365.113 163.292 365.113 169.12V170.38C365.113 177.362 368.053 179.252 371.833 179.252ZM401.413 183.82C393.17 183.82 388.603 178.832 388.603 170.38V169.54C388.603 160.877 393.853 155.838 401.465 155.838C409.55 155.838 414.223 160.772 414.223 169.382V170.117C414.223 178.832 408.973 183.82 401.413 183.82ZM401.518 179.252C405.56 179.252 407.923 176.47 407.923 170.642V169.33C407.923 162.295 405.035 160.405 401.36 160.405C397.213 160.405 394.798 163.292 394.798 169.12V170.38C394.798 177.362 397.738 179.252 401.518 179.252ZM429.05 183.662C424.378 183.662 421.385 181.772 421.385 176.68V161.035H417.605V156.31H421.385V149.957H427.318V156.31H433.775V161.035H427.318V175.84C427.318 178.097 428.158 178.938 430.993 178.938C432.043 178.938 433.145 178.78 434.09 178.517V182.56C433.04 183.085 431.57 183.662 429.05 183.662Z" fill="#1C194A"/>
<rect x="504" y="123" width="443" height="93" rx="46.5" fill="#B7B4CB"/>
<rect x="504.75" y="123.75" width="441.5" height="91.5" rx="45.75" stroke="#BEBEBE" stroke-opacity="0.5" stroke-width="1.5"/>
<path d="M554.355 183.977C549.63 183.977 546.06 182.98 543.592 181.667V176.575C546.48 177.835 549.892 178.78 553.83 178.78C558.66 178.78 560.707 176.785 560.707 173.53C560.707 170.537 559.395 169.382 555.457 168.175L552.045 167.23C546.952 165.812 543.855 163.082 543.855 156.992C543.855 150.902 547.792 146.755 555.93 146.755C560.655 146.755 563.227 147.647 565.222 148.697V153.737C562.965 152.792 560.025 151.952 556.035 151.952C552.255 151.952 550.155 153.527 550.155 156.415C550.155 159.25 551.205 160.457 554.775 161.455L558.135 162.505C563.805 164.132 567.217 166.495 567.217 172.9C567.217 179.725 563.07 183.977 554.355 183.977ZM573.057 191.17V156.31H578.884V158.62H579.094C580.722 156.992 583.504 155.838 586.917 155.838C592.534 155.838 597.627 159.092 597.627 169.015V169.697C597.627 179.83 592.744 183.82 585.394 183.82C582.402 183.82 580.407 183.032 579.094 182.297V191.17H573.057ZM584.554 179.252C588.859 179.252 591.327 177.047 591.327 170.485V169.382C591.327 162.715 589.017 160.772 584.764 160.772C582.192 160.772 580.144 161.612 579.094 162.347V177.677C580.144 178.517 582.192 179.252 584.554 179.252ZM603.357 183.347V156.31H609.185V159.46H609.395C610.865 157.517 613.647 156.1 616.482 156.1C617.217 156.1 617.9 156.152 618.162 156.257V161.612C617.48 161.507 616.587 161.455 615.957 161.455C613.542 161.455 611.127 162.137 609.395 163.24V183.347H603.357ZM623.252 183.347V156.31H629.342V183.347H623.252ZM623.252 151.847V146.335H629.395V151.847H623.252ZM636.631 183.347V156.31H642.459V158.725H642.669C644.979 157.045 648.286 155.838 651.541 155.838C656.739 155.838 659.416 157.937 659.416 163.292V183.347H653.326V164.71C653.326 161.98 652.434 160.877 648.759 160.877C646.659 160.877 644.296 161.56 642.669 162.347V183.347H636.631ZM676.341 191.013C667.889 191.013 663.846 188.598 663.846 184.765C663.846 181.982 666.051 180.302 668.886 179.462V179.252C667.259 178.675 666.051 177.205 666.051 175.315C666.051 173.477 667.259 172.375 669.201 171.115C667.154 169.802 665.789 167.807 665.789 164.762V164.29C665.789 158.725 670.199 155.89 676.604 155.89C678.074 155.89 679.491 156.047 680.804 156.31H689.939V160.3H685.791C686.684 161.297 687.156 162.452 687.156 164.132V164.5C687.156 170.275 682.641 172.795 676.551 172.795C675.029 172.795 673.559 172.69 672.299 172.27C671.669 172.795 671.301 172.952 671.301 173.635C671.301 174.947 672.036 175.42 673.716 175.42H681.171C686.316 175.42 689.939 177.257 689.939 182.245C689.939 187.285 685.844 191.013 676.341 191.013ZM676.236 186.918C681.854 186.918 683.744 185.5 683.744 183.242C683.744 181.142 682.799 180.512 679.544 180.512H672.614C670.986 181.037 669.831 182.035 669.831 183.872C669.831 185.868 671.564 186.918 676.236 186.918ZM676.551 168.91C679.649 168.91 681.329 167.755 681.329 164.762V164.08C681.329 160.877 679.491 159.722 676.551 159.722C673.454 159.722 671.721 161.14 671.721 163.975V164.605C671.721 167.755 673.559 168.91 676.551 168.91ZM715.076 183.347L706.098 147.332H712.661L718.803 174.002H718.961L726.311 147.332H731.561L738.806 174.002H738.963L745.158 147.332H750.986L742.166 183.347H735.761L728.726 157.202H728.568L721.428 183.347H715.076ZM767.8 183.82C758.823 183.82 754.413 178.727 754.413 170.17V169.435C754.413 160.352 759.925 155.89 766.803 155.89C774.783 155.89 778.248 160.352 778.248 168.962V171.482H760.608C760.975 177.1 763.863 179.095 769.008 179.095C772.473 179.095 774.993 178.307 777.355 177.1V181.3C775.518 182.507 772.368 183.82 767.8 183.82ZM766.698 160.352C763.915 160.352 761.028 161.822 760.608 167.335H772.105C772.105 162.242 770.215 160.352 766.698 160.352ZM794.378 183.925C790.756 183.925 786.346 183.347 783.826 182.35V144.97H789.863V158.147H790.126C792.121 156.835 794.536 155.838 798.106 155.838C803.146 155.838 808.396 158.935 808.396 168.91V169.54C808.396 179.095 803.513 183.925 794.378 183.925ZM794.746 179.305C798.683 179.305 802.096 177.467 802.096 170.432V169.382C802.096 162.82 799.943 160.772 795.271 160.772C793.013 160.772 790.966 161.56 789.863 162.085V178.517C790.913 178.885 792.436 179.305 794.746 179.305ZM814.809 183.347V147.332H836.911V152.425H821.266V163.187H833.446V168.175H821.266V183.347H814.809ZM842.737 183.347V144.97H848.827V183.347H842.737ZM864.148 183.82C858.898 183.82 855.958 181.247 855.958 175.945V156.31H861.996V174.79C861.996 177.73 863.046 178.938 866.406 178.938C868.768 178.938 870.711 178.097 872.443 177.31V156.31H878.481V183.347H873.231L872.706 180.985H872.443C870.186 182.612 867.561 183.82 864.148 183.82ZM883.025 183.347L891.845 169.487L883.497 156.31H890.48L896.202 165.655L901.4 156.31H907.647L899.667 169.435L908.382 183.347H901.295L895.362 173.53L889.325 183.347H883.025Z" fill="#1C194A"/>
<rect x="978" y="123" width="248" height="93" rx="7.5" fill="#B7B4CB"/>
<rect x="978.75" y="123.75" width="246.5" height="91.5" rx="6.75" stroke="#BEBEBE" stroke-opacity="0.5" stroke-width="1.5"/>
<path d="M1020.09 183.347V147.332H1027.34L1042.3 172.742H1042.46V147.332H1048.18V183.347H1041.78L1025.97 156.205H1025.82V183.347H1020.09ZM1067.83 183.82C1058.85 183.82 1054.44 178.727 1054.44 170.17V169.435C1054.44 160.352 1059.96 155.89 1066.83 155.89C1074.81 155.89 1078.28 160.352 1078.28 168.962V171.482H1060.64C1061.01 177.1 1063.89 179.095 1069.04 179.095C1072.5 179.095 1075.02 178.307 1077.39 177.1V181.3C1075.55 182.507 1072.4 183.82 1067.83 183.82ZM1066.73 160.352C1063.95 160.352 1061.06 161.822 1060.64 167.335H1072.14C1072.14 162.242 1070.25 160.352 1066.73 160.352ZM1091.26 183.768C1087.74 183.768 1084.59 183.137 1082.33 181.93V177.52C1084.59 178.412 1086.59 179.2 1090.37 179.2C1094.15 179.2 1095.72 177.94 1095.72 175.945C1095.72 174.002 1094.67 173.057 1091.73 172.427L1089.21 171.85C1085.06 171.01 1082.33 168.91 1082.33 164.08C1082.33 159.092 1085.54 155.89 1092.36 155.89C1096.04 155.89 1098.35 156.573 1100.13 157.36V161.927C1098.56 161.245 1095.93 160.457 1092.89 160.457C1089.74 160.457 1088.06 161.507 1088.06 163.607C1088.06 165.497 1089.11 166.18 1091.68 166.81L1094.25 167.387C1099.55 168.595 1101.6 170.695 1101.6 175.367C1101.6 180.985 1097.87 183.768 1091.26 183.768ZM1116.48 183.662C1111.8 183.662 1108.81 181.772 1108.81 176.68V161.035H1105.03V156.31H1108.81V149.957H1114.74V156.31H1121.2V161.035H1114.74V175.84C1114.74 178.097 1115.58 178.938 1118.42 178.938C1119.47 178.938 1120.57 178.78 1121.52 178.517V182.56C1120.47 183.085 1119 183.662 1116.48 183.662ZM1126.87 184.187V178.045H1133.27V184.187H1126.87ZM1145.72 183.662C1142.41 183.662 1140.36 183.137 1138.52 182.192V177.415C1139.94 177.887 1141.94 178.412 1144.35 178.412C1147.92 178.412 1149.71 176.627 1149.71 173.005V147.332H1156.27V173.53C1156.27 179.305 1153.01 183.662 1145.72 183.662ZM1173.03 183.977C1168.3 183.977 1164.73 182.98 1162.26 181.667V176.575C1165.15 177.835 1168.56 178.78 1172.5 178.78C1177.33 178.78 1179.38 176.785 1179.38 173.53C1179.38 170.537 1178.07 169.382 1174.13 168.175L1170.72 167.23C1165.62 165.812 1162.53 163.082 1162.53 156.992C1162.53 150.902 1166.46 146.755 1174.6 146.755C1179.33 146.755 1181.9 147.647 1183.89 148.697V153.737C1181.64 152.792 1178.7 151.952 1174.71 151.952C1170.93 151.952 1168.83 153.527 1168.83 156.415C1168.83 159.25 1169.88 160.457 1173.45 161.455L1176.81 162.505C1182.48 164.132 1185.89 166.495 1185.89 172.9C1185.89 179.725 1181.74 183.977 1173.03 183.977Z" fill="#1C194A"/>
<rect y="246" width="93" height="93" rx="7.5" fill="#8B88AA"/>
<rect x="0.75" y="246.75" width="91.5" height="91.5" rx="6.75" stroke="#BEBEBE" stroke-opacity="0.5" stroke-width="1.5"/>
<path d="M28.594 306.347V302.567L35.4715 295.322C40.459 290.072 44.449 285.61 44.449 281.095C44.449 276.737 42.0865 275.057 37.519 275.057C34.999 275.057 32.059 276.265 30.064 277.472L29.014 272.695C31.429 271.277 35.104 269.965 39.2515 269.965C47.1265 269.965 51.169 273.745 51.169 280.255C51.169 286.66 45.709 292.382 41.299 296.95L37.0465 301.307H51.484V306.347H28.594ZM57.3722 307.187V301.045H63.7772V307.187H57.3722Z" fill="#1C194A"/>
<rect x="123" y="246" width="178" height="93" rx="46.5" fill="#8B88AA"/>
<rect x="123.75" y="246.75" width="176.5" height="91.5" rx="45.75" stroke="#BEBEBE" stroke-opacity="0.5" stroke-width="1.5"/>
<path d="M169.839 306.662C166.531 306.662 164.484 306.137 162.646 305.192V300.415C164.064 300.887 166.059 301.412 168.474 301.412C172.044 301.412 173.829 299.627 173.829 296.005V270.332H180.391V296.53C180.391 302.305 177.136 306.662 169.839 306.662ZM194.17 306.82C189.287 306.82 185.875 304.352 185.875 299.155C185.875 294.167 189.182 291.857 194.537 291.07L200.89 290.335V288.287C200.89 284.612 199.262 283.772 194.695 283.772C192.07 283.772 189.76 284.14 188.132 284.507V280.36C190.652 279.362 193.54 278.89 197.057 278.89C203.305 278.89 206.927 281.305 206.927 286.922V306.347H201.94L201.467 304.142H201.152C199.84 305.665 197.687 306.82 194.17 306.82ZM196.007 302.567C197.95 302.567 199.892 301.885 200.89 300.94V294.272L195.902 294.797C193.225 295.008 191.807 296.11 191.807 298.84C191.807 301.412 193.54 302.567 196.007 302.567ZM220.792 306.347L210.975 279.31H217.432L223.995 299.05H224.257L230.872 279.31H236.7L226.935 306.347H220.792ZM247.029 306.82C242.146 306.82 238.734 304.352 238.734 299.155C238.734 294.167 242.041 291.857 247.396 291.07L253.749 290.335V288.287C253.749 284.612 252.121 283.772 247.554 283.772C244.929 283.772 242.619 284.14 240.991 284.507V280.36C243.511 279.362 246.399 278.89 249.916 278.89C256.164 278.89 259.786 281.305 259.786 286.922V306.347H254.799L254.326 304.142H254.011C252.699 305.665 250.546 306.82 247.029 306.82ZM248.866 302.567C250.809 302.567 252.751 301.885 253.749 300.94V294.272L248.761 294.797C246.084 295.008 244.666 296.11 244.666 298.84C244.666 301.412 246.399 302.567 248.866 302.567Z" fill="#1C194A"/>
<rect x="331.5" y="246" width="215" height="93" rx="7.5" fill="#8B88AA"/>
<rect x="332.25" y="246.75" width="213.5" height="91.5" rx="6.75" stroke="#BEBEBE" stroke-opacity="0.5" stroke-width="1.5"/>
<path d="M393.922 306.347L380.639 288.077C385.049 282.145 389.512 276.212 393.974 270.332H400.642L387.727 287.395C392.294 293.695 396.862 299.995 401.377 306.347H393.922ZM373.552 306.347V270.332H380.009V306.347H373.552ZM417.328 306.82C409.085 306.82 404.518 301.832 404.518 293.38V292.54C404.518 283.877 409.768 278.838 417.38 278.838C425.465 278.838 430.138 283.772 430.138 292.382V293.117C430.138 301.832 424.888 306.82 417.328 306.82ZM417.433 302.252C421.475 302.252 423.838 299.47 423.838 293.642V292.33C423.838 285.295 420.95 283.405 417.275 283.405C413.128 283.405 410.713 286.292 410.713 292.12V293.38C410.713 300.362 413.653 302.252 417.433 302.252ZM444.966 306.662C440.293 306.662 437.301 304.772 437.301 299.68V284.035H433.521V279.31H437.301V272.957H443.233V279.31H449.691V284.035H443.233V298.84C443.233 301.097 444.073 301.938 446.908 301.938C447.958 301.938 449.061 301.78 450.006 301.517V305.56C448.956 306.085 447.486 306.662 444.966 306.662ZM455.621 306.347V267.97H461.711V306.347H455.621ZM469.104 306.347V279.31H475.194V306.347H469.104ZM469.104 274.847V269.335H475.247V274.847H469.104ZM482.483 306.347V279.31H488.311V281.725H488.521C490.831 280.045 494.138 278.838 497.393 278.838C502.591 278.838 505.268 280.937 505.268 286.292V306.347H499.178V287.71C499.178 284.98 498.286 283.877 494.611 283.877C492.511 283.877 490.148 284.56 488.521 285.347V306.347H482.483Z" fill="#1C194A"/>
<rect x="576" y="246" width="341" height="93" rx="46.5" fill="#8B88AA"/>
<rect x="576.75" y="246.75" width="339.5" height="91.5" rx="45.75" stroke="#BEBEBE" stroke-opacity="0.5" stroke-width="1.5"/>
<path d="M625.549 306.347V275.425H615.206V270.332H642.244V275.425H632.006V306.347H625.549ZM650.449 314.118C649.084 314.118 647.299 313.75 646.511 313.225V309.183C647.194 309.34 648.191 309.445 649.136 309.445C651.604 309.445 653.231 308.815 654.176 306.242L654.911 304.352L644.726 279.31H651.131L657.956 296.845H658.166L664.466 279.31H670.294L659.846 307.082C658.061 312.228 655.436 314.118 650.449 314.118ZM674.883 314.17V279.31H680.711V281.62H680.921C682.548 279.992 685.331 278.838 688.743 278.838C694.361 278.838 699.453 282.092 699.453 292.015V292.697C699.453 302.83 694.571 306.82 687.221 306.82C684.228 306.82 682.233 306.032 680.921 305.297V314.17H674.883ZM686.381 302.252C690.686 302.252 693.153 300.047 693.153 293.485V292.382C693.153 285.715 690.843 283.772 686.591 283.772C684.018 283.772 681.971 284.612 680.921 285.347V300.677C681.971 301.517 684.018 302.252 686.381 302.252ZM717.049 306.82C708.071 306.82 703.661 301.727 703.661 293.17V292.435C703.661 283.352 709.174 278.89 716.051 278.89C724.031 278.89 727.496 283.352 727.496 291.962V294.482H709.856C710.224 300.1 713.111 302.095 718.256 302.095C721.721 302.095 724.241 301.307 726.604 300.1V304.3C724.766 305.507 721.616 306.82 717.049 306.82ZM715.946 283.352C713.164 283.352 710.276 284.822 709.856 290.335H721.354C721.354 285.242 719.464 283.352 715.946 283.352ZM756.106 306.977C751.381 306.977 747.811 305.98 745.343 304.667V299.575C748.231 300.835 751.643 301.78 755.581 301.78C760.411 301.78 762.458 299.785 762.458 296.53C762.458 293.537 761.146 292.382 757.208 291.175L753.796 290.23C748.703 288.812 745.606 286.082 745.606 279.992C745.606 273.902 749.543 269.755 757.681 269.755C762.406 269.755 764.978 270.647 766.973 271.697V276.737C764.716 275.792 761.776 274.952 757.786 274.952C754.006 274.952 751.906 276.527 751.906 279.415C751.906 282.25 752.956 283.457 756.526 284.455L759.886 285.505C765.556 287.132 768.968 289.495 768.968 295.9C768.968 302.725 764.821 306.977 756.106 306.977ZM786.2 306.82C778.22 306.82 773.285 302.357 773.285 293.432V292.592C773.285 283.247 778.955 278.838 786.463 278.838C790.033 278.838 792.185 279.52 793.918 280.465V285.19C791.66 284.297 790.033 283.72 786.83 283.72C782.315 283.72 779.533 286.555 779.533 291.962V293.17C779.533 299.365 782.105 301.99 787.25 301.99C790.558 301.99 792.815 300.94 794.18 300.31V304.72C792.448 305.822 789.928 306.82 786.2 306.82ZM799.417 306.347V279.31H805.244V282.46H805.454C806.924 280.517 809.707 279.1 812.542 279.1C813.277 279.1 813.959 279.152 814.222 279.257V284.612C813.539 284.507 812.647 284.455 812.017 284.455C809.602 284.455 807.187 285.137 805.454 286.24V306.347H799.417ZM819.312 306.347V279.31H825.402V306.347H819.312ZM819.312 274.847V269.335H825.454V274.847H819.312ZM832.691 314.17V279.31H838.518V281.62H838.728C840.356 279.992 843.138 278.838 846.551 278.838C852.168 278.838 857.261 282.092 857.261 292.015V292.697C857.261 302.83 852.378 306.82 845.028 306.82C842.036 306.82 840.041 306.032 838.728 305.297V314.17H832.691ZM844.188 302.252C848.493 302.252 850.961 300.047 850.961 293.485V292.382C850.961 285.715 848.651 283.772 844.398 283.772C841.826 283.772 839.778 284.612 838.728 285.347V300.677C839.778 301.517 841.826 302.252 844.188 302.252ZM872.231 306.662C867.559 306.662 864.566 304.772 864.566 299.68V284.035H860.786V279.31H864.566V272.957H870.499V279.31H876.956V284.035H870.499V298.84C870.499 301.097 871.339 301.938 874.174 301.938C875.224 301.938 876.326 301.78 877.271 301.517V305.56C876.221 306.085 874.751 306.662 872.231 306.662Z" fill="#1C194A"/>
<rect y="369" width="93" height="93" rx="46.5" fill="#615F8C"/>
<rect x="0.75" y="369.75" width="91.5" height="91.5" rx="45.75" stroke="#BEBEBE" stroke-opacity="0.5" stroke-width="1.5"/>
<path d="M38.2284 429.872C33.9234 429.872 29.7234 428.665 27.6759 427.352L28.7259 422.68C30.5634 423.835 34.4484 424.727 37.1259 424.727C41.9559 424.727 44.7909 422.732 44.7909 418.69C44.7909 414.857 41.9034 413.282 37.3359 413.23L33.6084 413.125V408.452L36.9159 408.4C41.0634 408.295 43.8459 406.405 43.8459 403.045C43.8459 399.422 41.3784 398.11 37.4409 398.11C34.7634 398.11 31.9284 399.002 29.7759 400L29.0409 395.222C31.2459 393.962 35.6034 392.965 39.1209 392.965C45.7884 392.965 50.3034 396.115 50.3034 401.89C50.3034 406.195 47.7834 408.925 43.8459 410.29C48.3609 411.182 51.5109 413.755 51.5109 419.11C51.5109 425.725 46.4184 429.872 38.2284 429.872ZM57.3979 430.187V424.045H63.8029V430.187H57.3979Z" fill="#1C194A"/>
<rect x="123" y="369" width="305" height="93" rx="7.5" fill="#615F8C"/>
<rect x="123.75" y="369.75" width="303.5" height="91.5" rx="6.75" stroke="#BEBEBE" stroke-opacity="0.5" stroke-width="1.5"/>
<path d="M164.806 429.347V393.332H173.889L182.656 420.475H182.814L191.581 393.332H200.611V429.347H194.154V401.365H193.944L184.914 429.347H179.611L170.634 401.365H170.476V429.347H164.806ZM219.657 429.82C211.414 429.82 206.847 424.832 206.847 416.38V415.54C206.847 406.877 212.097 401.838 219.709 401.838C227.794 401.838 232.467 406.772 232.467 415.382V416.117C232.467 424.832 227.217 429.82 219.657 429.82ZM219.762 425.252C223.804 425.252 226.167 422.47 226.167 416.642V415.33C226.167 408.295 223.279 406.405 219.604 406.405C215.457 406.405 213.042 409.292 213.042 415.12V416.38C213.042 423.362 215.982 425.252 219.762 425.252ZM238.054 429.347V402.31H243.882V404.725H244.092C246.402 403.045 249.709 401.838 252.964 401.838C258.162 401.838 260.839 403.937 260.839 409.292V429.347H254.749V410.71C254.749 407.98 253.857 406.877 250.182 406.877C248.082 406.877 245.719 407.56 244.092 408.347V429.347H238.054ZM277.764 437.013C269.312 437.013 265.269 434.598 265.269 430.765C265.269 427.982 267.474 426.302 270.309 425.462V425.252C268.682 424.675 267.474 423.205 267.474 421.315C267.474 419.477 268.682 418.375 270.624 417.115C268.577 415.802 267.212 413.807 267.212 410.762V410.29C267.212 404.725 271.622 401.89 278.027 401.89C279.497 401.89 280.914 402.047 282.227 402.31H291.362V406.3H287.214C288.107 407.297 288.579 408.452 288.579 410.132V410.5C288.579 416.275 284.064 418.795 277.974 418.795C276.452 418.795 274.982 418.69 273.722 418.27C273.092 418.795 272.724 418.952 272.724 419.635C272.724 420.947 273.459 421.42 275.139 421.42H282.594C287.739 421.42 291.362 423.257 291.362 428.245C291.362 433.285 287.267 437.013 277.764 437.013ZM277.659 432.918C283.277 432.918 285.167 431.5 285.167 429.242C285.167 427.142 284.222 426.512 280.967 426.512H274.037C272.409 427.037 271.254 428.035 271.254 429.872C271.254 431.868 272.987 432.918 277.659 432.918ZM277.974 414.91C281.072 414.91 282.752 413.755 282.752 410.762V410.08C282.752 406.877 280.914 405.722 277.974 405.722C274.877 405.722 273.144 407.14 273.144 409.975V410.605C273.144 413.755 274.982 414.91 277.974 414.91ZM307.328 429.82C299.085 429.82 294.518 424.832 294.518 416.38V415.54C294.518 406.877 299.768 401.838 307.38 401.838C315.465 401.838 320.138 406.772 320.138 415.382V416.117C320.138 424.832 314.888 429.82 307.328 429.82ZM307.433 425.252C311.475 425.252 313.838 422.47 313.838 416.642V415.33C313.838 408.295 310.95 406.405 307.275 406.405C303.128 406.405 300.713 409.292 300.713 415.12V416.38C300.713 423.362 303.653 425.252 307.433 425.252ZM326.408 429.347V393.332H338.22C349.245 393.332 355.44 398.635 355.44 410.395V411.445C355.44 422.995 349.823 429.347 338.273 429.347H326.408ZM332.865 424.255H338.325C345.36 424.255 348.615 420.79 348.615 412.075V410.342C348.615 401.26 344.678 398.425 337.853 398.425H332.865V424.255ZM362.091 429.347V393.332H374.691C382.986 393.332 386.556 396.692 386.556 402.415C386.556 406.195 384.981 408.925 380.676 410.29V410.447C385.191 411.287 388.131 413.807 388.131 419.057C388.131 425.042 384.089 429.347 375.584 429.347H362.091ZM368.496 424.517H374.691C379.049 424.517 381.359 422.627 381.359 418.69C381.359 414.542 378.891 412.967 374.324 412.967H368.496V424.517ZM368.496 408.662H373.536C377.316 408.662 380.151 407.402 380.151 403.307C380.151 399.422 377.946 398.11 373.799 398.11H368.496V408.662Z" fill="#1C194A"/>
<rect x="459" y="369" width="240" height="93" rx="46.5" fill="#615F8C"/>
<rect x="459.75" y="369.75" width="238.5" height="91.5" rx="45.75" stroke="#BEBEBE" stroke-opacity="0.5" stroke-width="1.5"/>
<path d="M500.811 429.347V393.332H509.894L518.661 420.475H518.819L527.586 393.332H536.616V429.347H530.159V401.365H529.949L520.919 429.347H515.616L506.639 401.365H506.481V429.347H500.811ZM547.472 437.118C546.107 437.118 544.322 436.75 543.534 436.225V432.183C544.217 432.34 545.214 432.445 546.159 432.445C548.627 432.445 550.254 431.815 551.199 429.242L551.934 427.352L541.749 402.31H548.154L554.979 419.845H555.189L561.489 402.31H567.317L556.869 430.082C555.084 435.228 552.459 437.118 547.472 437.118ZM581.146 429.977C576.421 429.977 572.851 428.98 570.383 427.667V422.575C573.271 423.835 576.683 424.78 580.621 424.78C585.451 424.78 587.498 422.785 587.498 419.53C587.498 416.537 586.186 415.382 582.248 414.175L578.836 413.23C573.743 411.812 570.646 409.082 570.646 402.992C570.646 396.902 574.583 392.755 582.721 392.755C587.446 392.755 590.018 393.647 592.013 394.697V399.737C589.756 398.792 586.816 397.952 582.826 397.952C579.046 397.952 576.946 399.527 576.946 402.415C576.946 405.25 577.996 406.457 581.566 407.455L584.926 408.505C590.596 410.132 594.008 412.495 594.008 418.9C594.008 425.725 589.861 429.977 581.146 429.977ZM631.348 411.76C631.348 420.58 627.515 425.882 621.163 427.72L632.45 430.292L631.138 435.595L610.82 429.715C603.26 427.562 598.693 422.417 598.693 411.917V410.762C598.693 399.16 605.36 392.755 615.178 392.755C624.785 392.755 631.348 398.74 631.348 410.657V411.76ZM615.073 425.042C621.373 425.042 624.47 420.002 624.47 412.652V410.815C624.47 402.73 621.845 397.847 614.863 397.795C608.615 397.795 605.57 402.73 605.57 410.027V411.865C605.57 420.055 608.195 425.042 615.073 425.042ZM638.008 429.347V393.332H644.466V424.255H659.691V429.347H638.008Z" fill="#1C194A"/>
<rect x="729" y="369" width="203" height="93" rx="7.5" fill="#615F8C"/>
<rect x="729.75" y="369.75" width="201.5" height="91.5" rx="6.75" stroke="#BEBEBE" stroke-opacity="0.5" stroke-width="1.5"/>
<path d="M770.973 429.347V393.332H783.048C791.343 393.332 795.596 396.85 795.596 403.885C795.596 408.925 793.128 411.602 789.086 413.177V413.44L798.011 429.347H790.976L782.943 414.805H777.431V429.347H770.973ZM777.431 410.342H782.366C787.038 410.342 788.928 408.295 788.928 404.095C788.928 400 786.933 398.32 782.313 398.32H777.431V410.342ZM814.661 429.82C805.683 429.82 801.273 424.727 801.273 416.17V415.435C801.273 406.352 806.786 401.89 813.663 401.89C821.643 401.89 825.108 406.352 825.108 414.962V417.482H807.468C807.836 423.1 810.723 425.095 815.868 425.095C819.333 425.095 821.853 424.307 824.216 423.1V427.3C822.378 428.507 819.228 429.82 814.661 429.82ZM813.558 406.352C810.776 406.352 807.888 407.822 807.468 413.335H818.966C818.966 408.242 817.076 406.352 813.558 406.352ZM840.294 429.82C834.939 429.82 829.321 426.407 829.321 416.642V415.96C829.321 406.037 834.361 401.838 841.396 401.838C844.546 401.838 846.594 402.677 847.854 403.36V390.97H853.839V429.347H848.694L848.169 427.195H847.959C846.279 428.77 843.759 429.82 840.294 429.82ZM842.394 425.147C844.914 425.147 846.804 424.097 847.854 423.31V407.927C846.856 407.14 844.756 406.51 842.341 406.51C838.141 406.51 835.516 408.715 835.516 415.382V416.38C835.516 423.1 838.299 425.147 842.394 425.147ZM861.092 429.347V402.31H867.182V429.347H861.092ZM861.092 397.847V392.335H867.234V397.847H861.092ZM881.873 429.768C878.355 429.768 875.205 429.137 872.948 427.93V423.52C875.205 424.412 877.2 425.2 880.98 425.2C884.76 425.2 886.335 423.94 886.335 421.945C886.335 420.002 885.285 419.057 882.345 418.427L879.825 417.85C875.678 417.01 872.948 414.91 872.948 410.08C872.948 405.092 876.15 401.89 882.975 401.89C886.65 401.89 888.96 402.573 890.745 403.36V407.927C889.17 407.245 886.545 406.457 883.5 406.457C880.35 406.457 878.67 407.507 878.67 409.607C878.67 411.497 879.72 412.18 882.293 412.81L884.865 413.387C890.168 414.595 892.215 416.695 892.215 421.367C892.215 426.985 888.488 429.768 881.873 429.768Z" fill="#1C194A"/>
<rect x="123.75" y="492.75" width="412.5" height="91.5" rx="6.75" stroke="#BEBEBE" stroke-opacity="0.5" stroke-width="1.5"/>
<path d="M177.303 552.977C169.428 552.977 163.338 547.938 163.338 535.705V533.447C163.338 520.585 169.953 515.965 177.355 515.965C184.81 515.965 191.215 520.637 191.215 533.29V535.547C191.215 548.2 184.81 552.977 177.303 552.977ZM177.303 548.042C182.133 548.042 184.548 544.577 184.548 535.967V533.29C184.548 524.732 182.08 520.952 177.355 520.952C172.473 520.952 170.058 524.522 170.058 532.922V535.705C170.058 544.052 172.42 548.042 177.303 548.042ZM201.963 552.557V522.947L195.926 524.155V520.375L205.061 516.28H208.473V552.557H201.963ZM230.418 552.977C222.543 552.977 216.453 547.938 216.453 535.705V533.447C216.453 520.585 223.068 515.965 230.471 515.965C237.926 515.965 244.331 520.637 244.331 533.29V535.547C244.331 548.2 237.926 552.977 230.418 552.977ZM230.418 548.042C235.248 548.042 237.663 544.577 237.663 535.967V533.29C237.663 524.732 235.196 520.952 230.471 520.952C225.588 520.952 223.173 524.522 223.173 532.922V535.705C223.173 544.052 225.536 548.042 230.418 548.042ZM250.446 540.325V535.285H264.884V540.325H250.446ZM268.592 552.347V548.567L275.469 541.322C280.457 536.072 284.447 531.61 284.447 527.095C284.447 522.737 282.084 521.057 277.517 521.057C274.997 521.057 272.057 522.265 270.062 523.472L269.012 518.695C271.427 517.277 275.102 515.965 279.249 515.965C287.124 515.965 291.167 519.745 291.167 526.255C291.167 532.66 285.707 538.382 281.297 542.95L277.044 547.307H291.482V552.347H268.592ZM308.08 516.017C316.69 516.017 321.52 521.688 321.52 531.82V534.235C321.52 548.147 315.115 552.977 306.4 552.977C302.778 552.977 299.313 551.717 297.633 550.72L298.735 545.995C300.205 546.783 303.46 547.78 306.033 547.78C311.283 547.78 314.853 545.627 315.168 536.492C313.33 538.172 310.495 539.695 306.715 539.695C300.573 539.695 296.005 535.442 296.005 528.512C296.005 521.477 300.1 516.017 308.08 516.017ZM308.238 520.795C304.3 520.795 302.2 523.63 302.2 528.04C302.2 532.87 304.93 535.022 308.605 535.022C311.23 535.022 313.908 533.237 315.115 531.505V530.612C315.115 524.627 313.068 520.795 308.238 520.795ZM328.327 552.347L341.452 521.688H325.125V516.595H348.435V520.427L335.467 552.347H328.327ZM355.859 552.347L368.984 521.688H352.657V516.595H375.967V520.427L362.999 552.347H355.859ZM378.364 540.325V535.285H392.801V540.325H378.364ZM410.702 552.977C402.145 552.977 397.315 549.092 397.315 543.265C397.315 538.75 400.78 535.547 404.717 533.972C400.99 532.292 398.365 529.825 398.365 525.362C398.365 519.797 403.142 515.965 410.702 515.965C418.262 515.965 422.882 519.272 422.882 524.89C422.882 528.827 420.047 531.662 416.32 533.447C420.52 534.865 424.3 537.49 424.3 542.53C424.3 548.62 419.26 552.977 410.702 552.977ZM410.545 548.252C414.955 548.252 417.79 546.1 417.79 543.002C417.79 539.275 415.007 537.437 409.652 536.02C406.45 537.122 403.405 539.537 403.405 542.74C403.405 546.205 406.187 548.252 410.545 548.252ZM411.595 531.295C414.377 530.14 416.792 528.25 416.792 525.362C416.792 522.685 414.85 520.637 410.807 520.637C407.132 520.637 404.822 522.37 404.822 525.205C404.822 528.302 407.132 530.192 411.595 531.295ZM438.252 552.872C434.157 552.872 430.324 551.822 428.014 550.405L429.169 545.47C431.112 546.625 433.842 547.622 436.624 547.622C441.612 547.622 444.657 545.207 444.657 540.85C444.657 536.282 441.822 534.392 436.887 534.392C434.629 534.392 431.269 535.495 429.589 536.335L430.902 516.542H449.697V521.582H435.837L435.154 530.35C436.362 530.035 438.304 529.72 439.669 529.72C446.862 529.72 451.324 533.395 451.324 541.008C451.324 547.675 446.442 552.872 438.252 552.872ZM460.823 552.557V522.947L454.786 524.155V520.375L463.921 516.28H467.333V552.557H460.823ZM477.676 552.347L490.801 521.688H474.473V516.595H497.783V520.427L484.816 552.347H477.676Z" fill="#1C194A"/>
<rect x="567.75" y="492.75" width="669.5" height="91.5" rx="45.75" stroke="#BEBEBE" stroke-opacity="0.5" stroke-width="1.5"/>
<path d="M617.357 552.662C612.685 552.662 609.692 550.772 609.692 545.68V530.035H605.912V525.31H609.692V518.957H615.625V525.31H622.082V530.035H615.625V544.84C615.625 547.097 616.465 547.938 619.3 547.938C620.35 547.938 621.452 547.78 622.397 547.517V551.56C621.347 552.085 619.877 552.662 617.357 552.662ZM627.907 552.347V525.31H633.735V527.725H633.945C636.255 526.097 639.037 524.838 642.187 524.838C645.285 524.838 647.385 525.782 648.592 527.882H648.907C651.69 525.992 654.735 524.838 657.78 524.838C662.557 524.838 665.235 526.885 665.235 532.24V552.347H659.25V533.657C659.25 530.98 658.2 529.877 655.102 529.877C653.317 529.877 651.532 530.402 649.485 531.4C649.537 531.82 649.59 532.082 649.59 532.607V552.347H643.657V533.657C643.657 530.98 642.555 529.877 639.51 529.877C637.567 529.877 635.572 530.507 633.945 531.347V552.347H627.907ZM681.812 552.82C676.457 552.82 670.839 549.407 670.839 539.642V538.96C670.839 529.037 675.879 524.838 682.914 524.838C686.064 524.838 688.112 525.677 689.372 526.36V513.97H695.357V552.347H690.212L689.687 550.195H689.477C687.797 551.77 685.277 552.82 681.812 552.82ZM683.912 548.147C686.432 548.147 688.322 547.097 689.372 546.31V530.927C688.374 530.14 686.274 529.51 683.859 529.51C679.659 529.51 677.034 531.715 677.034 538.382V539.38C677.034 546.1 679.817 548.147 683.912 548.147ZM712.112 552.82C706.757 552.82 701.139 549.407 701.139 539.642V538.96C701.139 529.037 706.179 524.838 713.214 524.838C716.364 524.838 718.412 525.677 719.672 526.36V513.97H725.657V552.347H720.512L719.987 550.195H719.777C718.097 551.77 715.577 552.82 712.112 552.82ZM714.212 548.147C716.732 548.147 718.622 547.097 719.672 546.31V530.927C718.674 530.14 716.574 529.51 714.159 529.51C709.959 529.51 707.334 531.715 707.334 538.382V539.38C707.334 546.1 710.117 548.147 714.212 548.147ZM732.805 552.347V525.31H738.632V527.725H738.842C741.152 526.045 744.46 524.838 747.715 524.838C752.912 524.838 755.59 526.937 755.59 532.292V552.347H749.5V533.71C749.5 530.98 748.607 529.877 744.932 529.877C742.832 529.877 740.47 530.56 738.842 531.347V552.347H732.805ZM760.65 560.17C758.602 560.17 757.29 559.75 756.24 559.173V555.235C756.975 555.393 757.972 555.55 758.865 555.55C761.332 555.55 762.697 554.395 762.697 551.717V525.31H768.787V552.19C768.787 556.81 766.477 560.17 760.65 560.17ZM762.697 520.847V515.335H768.84V520.847H762.697ZM783.479 552.768C779.961 552.768 776.811 552.137 774.554 550.93V546.52C776.811 547.412 778.806 548.2 782.586 548.2C786.366 548.2 787.941 546.94 787.941 544.945C787.941 543.002 786.891 542.057 783.951 541.427L781.431 540.85C777.284 540.01 774.554 537.91 774.554 533.08C774.554 528.092 777.756 524.89 784.581 524.89C788.256 524.89 790.566 525.573 792.351 526.36V530.927C790.776 530.245 788.151 529.457 785.106 529.457C781.956 529.457 780.276 530.507 780.276 532.607C780.276 534.497 781.326 535.18 783.899 535.81L786.471 536.387C791.774 537.595 793.821 539.695 793.821 544.367C793.821 549.985 790.094 552.768 783.479 552.768ZM799.455 552.347V525.31H805.283V528.46H805.493C806.963 526.517 809.745 525.1 812.58 525.1C813.315 525.1 813.998 525.152 814.26 525.257V530.612C813.578 530.507 812.685 530.455 812.055 530.455C809.64 530.455 807.225 531.137 805.493 532.24V552.347H799.455ZM819.35 552.347V513.97H825.44V552.347H819.35ZM839.501 552.82C834.619 552.82 831.206 550.352 831.206 545.155C831.206 540.167 834.514 537.857 839.869 537.07L846.221 536.335V534.287C846.221 530.612 844.594 529.772 840.026 529.772C837.401 529.772 835.091 530.14 833.464 530.507V526.36C835.984 525.362 838.871 524.89 842.389 524.89C848.636 524.89 852.259 527.305 852.259 532.922V552.347H847.271L846.799 550.142H846.484C845.171 551.665 843.019 552.82 839.501 552.82ZM841.339 548.567C843.281 548.567 845.224 547.885 846.221 546.94V540.272L841.234 540.797C838.556 541.008 837.139 542.11 837.139 544.84C837.139 547.412 838.871 548.567 841.339 548.567ZM869.839 516.017C878.449 516.017 883.279 521.688 883.279 531.82V534.235C883.279 548.147 876.874 552.977 868.159 552.977C864.537 552.977 861.072 551.717 859.392 550.72L860.494 545.995C861.964 546.783 865.219 547.78 867.792 547.78C873.042 547.78 876.612 545.627 876.927 536.492C875.089 538.172 872.254 539.695 868.474 539.695C862.332 539.695 857.764 535.442 857.764 528.512C857.764 521.477 861.859 516.017 869.839 516.017ZM869.997 520.795C866.059 520.795 863.959 523.63 863.959 528.04C863.959 532.87 866.689 535.022 870.364 535.022C872.989 535.022 875.667 533.237 876.874 531.505V530.612C876.874 524.627 874.827 520.795 869.997 520.795ZM899.627 516.017C908.237 516.017 913.067 521.688 913.067 531.82V534.235C913.067 548.147 906.662 552.977 897.947 552.977C894.324 552.977 890.859 551.717 889.179 550.72L890.282 545.995C891.752 546.783 895.007 547.78 897.579 547.78C902.829 547.78 906.399 545.627 906.714 536.492C904.877 538.172 902.042 539.695 898.262 539.695C892.119 539.695 887.552 535.442 887.552 528.512C887.552 521.477 891.647 516.017 899.627 516.017ZM899.784 520.795C895.847 520.795 893.747 523.63 893.747 528.04C893.747 532.87 896.477 535.022 900.152 535.022C902.777 535.022 905.454 533.237 906.662 531.505V530.612C906.662 524.627 904.614 520.795 899.784 520.795ZM939.324 559.75C926.252 559.75 918.377 552.768 918.377 540.167C918.377 527.672 926.672 516.332 941.739 516.332C953.237 516.332 960.797 523.787 960.797 534.445C960.797 544.315 956.019 549.88 948.669 549.88C945.204 549.88 943.262 548.62 942.684 546.677H942.422C941.004 548.305 938.799 549.827 935.964 549.827C931.607 549.827 928.667 546.835 928.667 541.375C928.667 532.607 932.762 526.832 939.429 526.832C941.897 526.832 943.892 527.62 944.994 528.617H945.309L945.572 527.252H950.874L947.882 543.212C947.514 544.84 947.882 545.995 949.667 545.995C953.814 545.995 956.334 541.952 956.334 534.76C956.334 526.045 951.662 520.165 941.529 520.165C929.454 520.165 922.787 528.775 922.787 540.062C922.787 550.3 928.562 555.918 939.377 555.918C944.417 555.918 948.879 554.815 951.504 553.87V557.283C948.407 558.595 944.259 559.75 939.324 559.75ZM937.749 545.732C939.692 545.732 941.004 544.735 942.107 543.632L944.154 532.24C943.419 531.4 942.002 530.77 940.164 530.77C935.964 530.77 934.442 535.285 934.442 541.27C934.442 544.21 935.649 545.732 937.749 545.732ZM976.157 560.013C967.705 560.013 963.662 557.598 963.662 553.765C963.662 550.982 965.867 549.302 968.702 548.462V548.252C967.075 547.675 965.867 546.205 965.867 544.315C965.867 542.477 967.075 541.375 969.017 540.115C966.97 538.802 965.605 536.807 965.605 533.762V533.29C965.605 527.725 970.015 524.89 976.42 524.89C977.89 524.89 979.307 525.047 980.62 525.31H989.755V529.3H985.607C986.5 530.297 986.972 531.452 986.972 533.132V533.5C986.972 539.275 982.457 541.795 976.367 541.795C974.845 541.795 973.375 541.69 972.115 541.27C971.485 541.795 971.117 541.952 971.117 542.635C971.117 543.947 971.852 544.42 973.532 544.42H980.987C986.132 544.42 989.755 546.257 989.755 551.245C989.755 556.285 985.66 560.013 976.157 560.013ZM976.052 555.918C981.67 555.918 983.56 554.5 983.56 552.242C983.56 550.142 982.615 549.512 979.36 549.512H972.43C970.802 550.037 969.647 551.035 969.647 552.872C969.647 554.868 971.38 555.918 976.052 555.918ZM976.367 537.91C979.465 537.91 981.145 536.755 981.145 533.762V533.08C981.145 529.877 979.307 528.722 976.367 528.722C973.27 528.722 971.537 530.14 971.537 532.975V533.605C971.537 536.755 973.375 537.91 976.367 537.91ZM994.433 552.347V525.31H1000.26V527.725H1000.47C1002.78 526.097 1005.56 524.838 1008.71 524.838C1011.81 524.838 1013.91 525.782 1015.12 527.882H1015.43C1018.22 525.992 1021.26 524.838 1024.31 524.838C1029.08 524.838 1031.76 526.885 1031.76 532.24V552.347H1025.78V533.657C1025.78 530.98 1024.73 529.877 1021.63 529.877C1019.84 529.877 1018.06 530.402 1016.01 531.4C1016.06 531.82 1016.12 532.082 1016.12 532.607V552.347H1010.18V533.657C1010.18 530.98 1009.08 529.877 1006.04 529.877C1004.09 529.877 1002.1 530.507 1000.47 531.347V552.347H994.433ZM1045.5 552.82C1040.62 552.82 1037.21 550.352 1037.21 545.155C1037.21 540.167 1040.51 537.857 1045.87 537.07L1052.22 536.335V534.287C1052.22 530.612 1050.59 529.772 1046.03 529.772C1043.4 529.772 1041.09 530.14 1039.46 530.507V526.36C1041.98 525.362 1044.87 524.89 1048.39 524.89C1054.64 524.89 1058.26 527.305 1058.26 532.922V552.347H1053.27L1052.8 550.142H1052.48C1051.17 551.665 1049.02 552.82 1045.5 552.82ZM1047.34 548.567C1049.28 548.567 1051.22 547.885 1052.22 546.94V540.272L1047.23 540.797C1044.56 541.008 1043.14 542.11 1043.14 544.84C1043.14 547.412 1044.87 548.567 1047.34 548.567ZM1065.39 552.347V525.31H1071.48V552.347H1065.39ZM1065.39 520.847V515.335H1071.54V520.847H1065.39ZM1078.88 552.347V513.97H1084.97V552.347H1078.88ZM1092.1 553.187V547.045H1098.5V553.187H1092.1ZM1116.82 552.82C1108.84 552.82 1103.91 548.357 1103.91 539.432V538.592C1103.91 529.247 1109.58 524.838 1117.09 524.838C1120.66 524.838 1122.81 525.52 1124.54 526.465V531.19C1122.28 530.297 1120.66 529.72 1117.45 529.72C1112.94 529.72 1110.16 532.555 1110.16 537.962V539.17C1110.16 545.365 1112.73 547.99 1117.87 547.99C1121.18 547.99 1123.44 546.94 1124.8 546.31V550.72C1123.07 551.822 1120.55 552.82 1116.82 552.82ZM1141.33 552.82C1133.09 552.82 1128.52 547.832 1128.52 539.38V538.54C1128.52 529.877 1133.77 524.838 1141.38 524.838C1149.47 524.838 1154.14 529.772 1154.14 538.382V539.117C1154.14 547.832 1148.89 552.82 1141.33 552.82ZM1141.43 548.252C1145.48 548.252 1147.84 545.47 1147.84 539.642V538.33C1147.84 531.295 1144.95 529.405 1141.28 529.405C1137.13 529.405 1134.71 532.292 1134.71 538.12V539.38C1134.71 546.362 1137.65 548.252 1141.43 548.252ZM1159.73 552.347V525.31H1165.55V527.725H1165.76C1168.07 526.097 1170.86 524.838 1174.01 524.838C1177.1 524.838 1179.2 525.782 1180.41 527.882H1180.73C1183.51 525.992 1186.55 524.838 1189.6 524.838C1194.38 524.838 1197.05 526.885 1197.05 532.24V552.347H1191.07V533.657C1191.07 530.98 1190.02 529.877 1186.92 529.877C1185.14 529.877 1183.35 530.402 1181.3 531.4C1181.36 531.82 1181.41 532.082 1181.41 532.607V552.347H1175.48V533.657C1175.48 530.98 1174.37 529.877 1171.33 529.877C1169.39 529.877 1167.39 530.507 1165.76 531.347V552.347H1159.73Z" fill="#1C194A"/>
<path d="M45.75 569.304C44.7079 569.303 43.6902 568.988 42.8295 568.401C30.0782 559.745 24.5568 553.809 21.5113 550.099C15.0213 542.189 11.9142 534.068 12.0018 525.274C12.104 515.197 20.189 507 30.0246 507C37.1767 507 42.1302 511.029 45.015 514.384C45.1064 514.489 45.2193 514.574 45.3461 514.631C45.4729 514.689 45.6106 514.719 45.75 514.719C45.8894 514.719 46.0271 514.689 46.1539 514.631C46.2807 514.574 46.3936 514.489 46.485 514.384C49.3698 511.025 54.3233 507 61.4754 507C71.311 507 79.396 515.197 79.4982 525.276C79.5858 534.072 76.4755 542.192 69.9887 550.1C66.9432 553.811 61.4218 559.746 48.6705 568.402C47.8096 568.989 46.792 569.304 45.75 569.304Z" fill="#1C194A"/>
<path d="M43.2523 567.781L43.2507 567.78C30.5543 559.161 25.0875 553.274 22.0911 549.623C15.6938 541.826 12.6662 533.872 12.7518 525.282C12.85 515.599 20.617 507.75 30.0246 507.75C36.8694 507.75 41.6336 511.602 44.4463 514.873L44.4488 514.876C44.6105 515.062 44.8104 515.211 45.0349 515.314C45.2594 515.416 45.5033 515.469 45.75 515.469C45.9967 515.469 46.2406 515.416 46.4651 515.314C46.6896 515.211 46.8895 515.062 47.0513 514.876L47.0539 514.873C49.8662 511.599 54.6304 507.75 61.4754 507.75C70.883 507.75 78.65 515.599 78.7482 525.284C78.8338 533.875 75.803 541.829 69.4088 549.625C66.4124 553.276 60.9456 559.163 48.2493 567.782L48.248 567.783C47.5117 568.285 46.6415 568.553 45.7503 568.554C44.8589 568.553 43.9885 568.284 43.2523 567.781Z" stroke="#BEBEBE" stroke-opacity="0.5" stroke-width="1.5"/>
</svg>
